<svg xmlns="http://www.w3.org/2000/svg" xmlns:xlink="http://www.w3.org/1999/xlink" width="128" zoomAndPan="magnify" viewBox="0 0 96 9.75" height="13" preserveAspectRatio="xMidYMid meet" version="1.0"><defs><g/><clipPath id="0ece3fb363"><path d="M 1 0.808594 L 4 0.808594 L 4 4 L 1 4 Z M 1 0.808594 " clip-rule="nonzero"/></clipPath><clipPath id="83c7df252f"><path d="M 4 0.808594 L 6 0.808594 L 6 4 L 4 4 Z M 4 0.808594 " clip-rule="nonzero"/></clipPath><clipPath id="3fa263d7c3"><path d="M 6 0.808594 L 10 0.808594 L 10 4 L 6 4 Z M 6 0.808594 " clip-rule="nonzero"/></clipPath><clipPath id="8e8896c3f5"><path d="M 10 0.808594 L 13 0.808594 L 13 4 L 10 4 Z M 10 0.808594 " clip-rule="nonzero"/></clipPath><clipPath id="eee073f56d"><path d="M 15 0.808594 L 19 0.808594 L 19 4 L 15 4 Z M 15 0.808594 " clip-rule="nonzero"/></clipPath><clipPath id="acbab5aa18"><path d="M 19 0.808594 L 23 0.808594 L 23 4 L 19 4 Z M 19 0.808594 " clip-rule="nonzero"/></clipPath><clipPath id="d66cd40598"><path d="M 23 0.808594 L 26 0.808594 L 26 4 L 23 4 Z M 23 0.808594 " clip-rule="nonzero"/></clipPath><clipPath id="5b02e050ad"><path d="M 26 0.808594 L 29 0.808594 L 29 4 L 26 4 Z M 26 0.808594 " clip-rule="nonzero"/></clipPath><clipPath id="77bedac27b"><path d="M 30 0.808594 L 33 0.808594 L 33 4 L 30 4 Z M 30 0.808594 " clip-rule="nonzero"/></clipPath><clipPath id="237eb24544"><path d="M 33 0.808594 L 36 0.808594 L 36 4 L 33 4 Z M 33 0.808594 " clip-rule="nonzero"/></clipPath><clipPath id="ed6570f8cf"><path d="M 39 0.808594 L 42 0.808594 L 42 4 L 39 4 Z M 39 0.808594 " clip-rule="nonzero"/></clipPath><clipPath id="d625b9e0ad"><path d="M 42 0.808594 L 45 0.808594 L 45 4 L 42 4 Z M 42 0.808594 " clip-rule="nonzero"/></clipPath><clipPath id="2795b5a4b8"><path d="M 46 0.808594 L 49 0.808594 L 49 4 L 46 4 Z M 46 0.808594 " clip-rule="nonzero"/></clipPath><clipPath id="fa5b10edcd"><path d="M 49 0.808594 L 53 0.808594 L 53 4 L 49 4 Z M 49 0.808594 " clip-rule="nonzero"/></clipPath><clipPath id="ef75344fac"><path d="M 53 0.808594 L 56 0.808594 L 56 4 L 53 4 Z M 53 0.808594 " clip-rule="nonzero"/></clipPath><clipPath id="7a73612e7f"><path d="M 58 0.808594 L 61 0.808594 L 61 4 L 58 4 Z M 58 0.808594 " clip-rule="nonzero"/></clipPath><clipPath id="34d91a6861"><path d="M 62 0.808594 L 65 0.808594 L 65 4 L 62 4 Z M 62 0.808594 " clip-rule="nonzero"/></clipPath><clipPath id="dbbb4a99e0"><path d="M 66 0.808594 L 69 0.808594 L 69 4 L 66 4 Z M 66 0.808594 " clip-rule="nonzero"/></clipPath><clipPath id="d3b44acc32"><path d="M 69 0.808594 L 71 0.808594 L 71 4 L 69 4 Z M 69 0.808594 " clip-rule="nonzero"/></clipPath><clipPath id="7d83e2a3ed"><path d="M 71 0.808594 L 75 0.808594 L 75 4 L 71 4 Z M 71 0.808594 " clip-rule="nonzero"/></clipPath><clipPath id="cdaa4b1b7e"><path d="M 75 0.808594 L 76 0.808594 L 76 4 L 75 4 Z M 75 0.808594 " clip-rule="nonzero"/></clipPath><clipPath id="786c9a1fe1"><path d="M 77 0.808594 L 80 0.808594 L 80 4 L 77 4 Z M 77 0.808594 " clip-rule="nonzero"/></clipPath><clipPath id="3d6fbf7bdf"><rect x="0" width="81" y="0" height="6"/></clipPath><clipPath id="be560cc3d3"><path d="M 1.238281 0 L 86.757812 0 L 86.757812 8.773438 L 1.238281 8.773438 Z M 1.238281 0 " clip-rule="nonzero"/></clipPath></defs><g transform="matrix(1, 0, 0, 1, 4, 2)"><g clip-path="url(#3d6fbf7bdf)"><g clip-path="url(#0ece3fb363)"><g fill="#113456" fill-opacity="1"><g transform="translate(0.8257, 3.785004)"><g><path d="M 1.265625 -2.84375 C 1.585938 -2.84375 1.835938 -2.769531 2.015625 -2.625 C 2.203125 -2.476562 2.300781 -2.273438 2.3125 -2.015625 L 1.96875 -1.984375 C 1.945312 -2.160156 1.878906 -2.289062 1.765625 -2.375 C 1.660156 -2.46875 1.5 -2.515625 1.28125 -2.515625 C 1.082031 -2.515625 0.925781 -2.476562 0.8125 -2.40625 C 0.695312 -2.332031 0.640625 -2.226562 0.640625 -2.09375 C 0.640625 -2.007812 0.664062 -1.9375 0.71875 -1.875 C 0.769531 -1.820312 0.835938 -1.785156 0.921875 -1.765625 C 0.941406 -1.753906 1.019531 -1.726562 1.15625 -1.6875 C 1.289062 -1.644531 1.460938 -1.601562 1.671875 -1.5625 C 1.910156 -1.507812 2.09375 -1.410156 2.21875 -1.265625 C 2.34375 -1.128906 2.40625 -0.972656 2.40625 -0.796875 C 2.40625 -0.640625 2.363281 -0.5 2.28125 -0.375 C 2.195312 -0.25 2.078125 -0.144531 1.921875 -0.0625 C 1.765625 0.0078125 1.578125 0.046875 1.359375 0.046875 C 1.117188 0.046875 0.910156 0.0078125 0.734375 -0.0625 C 0.554688 -0.144531 0.421875 -0.253906 0.328125 -0.390625 C 0.234375 -0.535156 0.179688 -0.707031 0.171875 -0.90625 L 0.53125 -0.9375 C 0.539062 -0.707031 0.625 -0.539062 0.78125 -0.4375 C 0.945312 -0.332031 1.140625 -0.28125 1.359375 -0.28125 C 1.566406 -0.28125 1.734375 -0.320312 1.859375 -0.40625 C 1.984375 -0.5 2.046875 -0.625 2.046875 -0.78125 C 2.046875 -0.988281 1.878906 -1.128906 1.546875 -1.203125 L 1.328125 -1.265625 C 1.191406 -1.296875 1.035156 -1.335938 0.859375 -1.390625 C 0.679688 -1.441406 0.539062 -1.53125 0.4375 -1.65625 C 0.34375 -1.78125 0.296875 -1.921875 0.296875 -2.078125 C 0.296875 -2.222656 0.332031 -2.351562 0.40625 -2.46875 C 0.488281 -2.582031 0.601562 -2.671875 0.75 -2.734375 C 0.894531 -2.804688 1.066406 -2.84375 1.265625 -2.84375 Z M 1.265625 -2.84375 "/></g></g></g></g><g clip-path="url(#83c7df252f)"><g fill="#113456" fill-opacity="1"><g transform="translate(4.285025, 3.785004)"><g><path d="M 0.734375 0 L 0.359375 0 L 0.359375 -2.796875 L 0.734375 -2.796875 Z M 0.734375 0 "/></g></g></g></g><g clip-path="url(#3fa263d7c3)"><g fill="#113456" fill-opacity="1"><g transform="translate(6.227238, 3.785004)"><g><path d="M 1.609375 -2.84375 C 2.222656 -2.84375 2.601562 -2.566406 2.75 -2.015625 L 2.421875 -1.921875 C 2.410156 -1.929688 2.398438 -1.957031 2.390625 -2 C 2.378906 -2.050781 2.359375 -2.101562 2.328125 -2.15625 C 2.296875 -2.21875 2.257812 -2.269531 2.21875 -2.3125 C 2.0625 -2.457031 1.859375 -2.53125 1.609375 -2.53125 C 1.285156 -2.53125 1.035156 -2.429688 0.859375 -2.234375 C 0.679688 -2.035156 0.59375 -1.757812 0.59375 -1.40625 C 0.59375 -1.039062 0.6875 -0.757812 0.875 -0.5625 C 1.0625 -0.375 1.320312 -0.28125 1.65625 -0.28125 C 1.789062 -0.28125 1.929688 -0.3125 2.078125 -0.375 C 2.234375 -0.4375 2.351562 -0.503906 2.4375 -0.578125 L 2.4375 -1.09375 L 1.609375 -1.09375 L 1.609375 -1.421875 L 2.796875 -1.421875 L 2.796875 -0.390625 C 2.609375 -0.242188 2.421875 -0.132812 2.234375 -0.0625 C 2.046875 0.0078125 1.84375 0.046875 1.625 0.046875 C 1.34375 0.046875 1.09375 -0.0078125 0.875 -0.125 C 0.664062 -0.25 0.5 -0.414062 0.375 -0.625 C 0.257812 -0.84375 0.203125 -1.097656 0.203125 -1.390625 C 0.203125 -1.671875 0.257812 -1.921875 0.375 -2.140625 C 0.488281 -2.359375 0.648438 -2.53125 0.859375 -2.65625 C 1.066406 -2.78125 1.316406 -2.84375 1.609375 -2.84375 Z M 1.609375 -2.84375 "/></g></g></g></g><g clip-path="url(#8e8896c3f5)"><g fill="#113456" fill-opacity="1"><g transform="translate(10.119463, 3.785004)"><g><path d="M 2.609375 0 L 2.1875 0 L 1.859375 -0.859375 L 0.703125 -0.859375 L 0.390625 0 L 0 0 L 1.078125 -2.796875 L 1.46875 -2.796875 Z M 1.109375 -1.96875 L 0.8125 -1.15625 L 1.75 -1.15625 L 1.40625 -2.078125 C 1.363281 -2.179688 1.316406 -2.320312 1.265625 -2.5 C 1.265625 -2.488281 1.25 -2.421875 1.21875 -2.296875 C 1.1875 -2.179688 1.148438 -2.070312 1.109375 -1.96875 Z M 1.109375 -1.96875 "/></g></g></g></g><g fill="#113456" fill-opacity="1"><g transform="translate(13.578788, 3.785004)"><g/></g></g><g clip-path="url(#eee073f56d)"><g fill="#113456" fill-opacity="1"><g transform="translate(15.521, 3.785004)"><g><path d="M 2.15625 -0.609375 L 2.15625 -2.796875 L 2.515625 -2.796875 L 2.515625 0 L 2.140625 0 L 0.671875 -2.203125 L 0.671875 0 L 0.3125 0 L 0.3125 -2.796875 L 0.6875 -2.796875 Z M 2.15625 -0.609375 "/></g></g></g></g><g clip-path="url(#acbab5aa18)"><g fill="#113456" fill-opacity="1"><g transform="translate(19.194827, 3.785004)"><g><path d="M 1.46875 -2.84375 C 1.75 -2.84375 1.992188 -2.78125 2.203125 -2.65625 C 2.410156 -2.539062 2.570312 -2.375 2.6875 -2.15625 C 2.800781 -1.9375 2.859375 -1.679688 2.859375 -1.390625 C 2.859375 -1.109375 2.800781 -0.859375 2.6875 -0.640625 C 2.570312 -0.421875 2.410156 -0.25 2.203125 -0.125 C 2.003906 -0.0078125 1.785156 0.046875 1.546875 0.046875 C 1.273438 0.046875 1.035156 -0.015625 0.828125 -0.140625 C 0.617188 -0.265625 0.457031 -0.429688 0.34375 -0.640625 C 0.238281 -0.859375 0.1875 -1.097656 0.1875 -1.359375 C 0.1875 -1.660156 0.238281 -1.921875 0.34375 -2.140625 C 0.457031 -2.367188 0.613281 -2.539062 0.8125 -2.65625 C 1.007812 -2.78125 1.226562 -2.84375 1.46875 -2.84375 Z M 0.5625 -1.359375 C 0.5625 -1.140625 0.601562 -0.945312 0.6875 -0.78125 C 0.769531 -0.625 0.882812 -0.5 1.03125 -0.40625 C 1.175781 -0.3125 1.335938 -0.265625 1.515625 -0.265625 C 1.710938 -0.265625 1.878906 -0.3125 2.015625 -0.40625 C 2.160156 -0.5 2.273438 -0.628906 2.359375 -0.796875 C 2.441406 -0.960938 2.484375 -1.160156 2.484375 -1.390625 C 2.484375 -1.617188 2.441406 -1.816406 2.359375 -1.984375 C 2.273438 -2.160156 2.160156 -2.296875 2.015625 -2.390625 C 1.878906 -2.484375 1.71875 -2.53125 1.53125 -2.53125 C 1.226562 -2.53125 0.988281 -2.425781 0.8125 -2.21875 C 0.644531 -2.007812 0.5625 -1.722656 0.5625 -1.359375 Z M 0.5625 -1.359375 "/></g></g></g></g><g clip-path="url(#d66cd40598)"><g fill="#113456" fill-opacity="1"><g transform="translate(23.087052, 3.785004)"><g><path d="M 1.265625 -2.84375 C 1.585938 -2.84375 1.835938 -2.769531 2.015625 -2.625 C 2.203125 -2.476562 2.300781 -2.273438 2.3125 -2.015625 L 1.96875 -1.984375 C 1.945312 -2.160156 1.878906 -2.289062 1.765625 -2.375 C 1.660156 -2.46875 1.5 -2.515625 1.28125 -2.515625 C 1.082031 -2.515625 0.925781 -2.476562 0.8125 -2.40625 C 0.695312 -2.332031 0.640625 -2.226562 0.640625 -2.09375 C 0.640625 -2.007812 0.664062 -1.9375 0.71875 -1.875 C 0.769531 -1.820312 0.835938 -1.785156 0.921875 -1.765625 C 0.941406 -1.753906 1.019531 -1.726562 1.15625 -1.6875 C 1.289062 -1.644531 1.460938 -1.601562 1.671875 -1.5625 C 1.910156 -1.507812 2.09375 -1.410156 2.21875 -1.265625 C 2.34375 -1.128906 2.40625 -0.972656 2.40625 -0.796875 C 2.40625 -0.640625 2.363281 -0.5 2.28125 -0.375 C 2.195312 -0.25 2.078125 -0.144531 1.921875 -0.0625 C 1.765625 0.0078125 1.578125 0.046875 1.359375 0.046875 C 1.117188 0.046875 0.910156 0.0078125 0.734375 -0.0625 C 0.554688 -0.144531 0.421875 -0.253906 0.328125 -0.390625 C 0.234375 -0.535156 0.179688 -0.707031 0.171875 -0.90625 L 0.53125 -0.9375 C 0.539062 -0.707031 0.625 -0.539062 0.78125 -0.4375 C 0.945312 -0.332031 1.140625 -0.28125 1.359375 -0.28125 C 1.566406 -0.28125 1.734375 -0.320312 1.859375 -0.40625 C 1.984375 -0.5 2.046875 -0.625 2.046875 -0.78125 C 2.046875 -0.988281 1.878906 -1.128906 1.546875 -1.203125 L 1.328125 -1.265625 C 1.191406 -1.296875 1.035156 -1.335938 0.859375 -1.390625 C 0.679688 -1.441406 0.539062 -1.53125 0.4375 -1.65625 C 0.34375 -1.78125 0.296875 -1.921875 0.296875 -2.078125 C 0.296875 -2.222656 0.332031 -2.351562 0.40625 -2.46875 C 0.488281 -2.582031 0.601562 -2.671875 0.75 -2.734375 C 0.894531 -2.804688 1.066406 -2.84375 1.265625 -2.84375 Z M 1.265625 -2.84375 "/></g></g></g></g><g clip-path="url(#5b02e050ad)"><g fill="#113456" fill-opacity="1"><g transform="translate(26.546377, 3.785004)"><g><path d="M 1.265625 -2.84375 C 1.585938 -2.84375 1.835938 -2.769531 2.015625 -2.625 C 2.203125 -2.476562 2.300781 -2.273438 2.3125 -2.015625 L 1.96875 -1.984375 C 1.945312 -2.160156 1.878906 -2.289062 1.765625 -2.375 C 1.660156 -2.46875 1.5 -2.515625 1.28125 -2.515625 C 1.082031 -2.515625 0.925781 -2.476562 0.8125 -2.40625 C 0.695312 -2.332031 0.640625 -2.226562 0.640625 -2.09375 C 0.640625 -2.007812 0.664062 -1.9375 0.71875 -1.875 C 0.769531 -1.820312 0.835938 -1.785156 0.921875 -1.765625 C 0.941406 -1.753906 1.019531 -1.726562 1.15625 -1.6875 C 1.289062 -1.644531 1.460938 -1.601562 1.671875 -1.5625 C 1.910156 -1.507812 2.09375 -1.410156 2.21875 -1.265625 C 2.34375 -1.128906 2.40625 -0.972656 2.40625 -0.796875 C 2.40625 -0.640625 2.363281 -0.5 2.28125 -0.375 C 2.195312 -0.25 2.078125 -0.144531 1.921875 -0.0625 C 1.765625 0.0078125 1.578125 0.046875 1.359375 0.046875 C 1.117188 0.046875 0.910156 0.0078125 0.734375 -0.0625 C 0.554688 -0.144531 0.421875 -0.253906 0.328125 -0.390625 C 0.234375 -0.535156 0.179688 -0.707031 0.171875 -0.90625 L 0.53125 -0.9375 C 0.539062 -0.707031 0.625 -0.539062 0.78125 -0.4375 C 0.945312 -0.332031 1.140625 -0.28125 1.359375 -0.28125 C 1.566406 -0.28125 1.734375 -0.320312 1.859375 -0.40625 C 1.984375 -0.5 2.046875 -0.625 2.046875 -0.78125 C 2.046875 -0.988281 1.878906 -1.128906 1.546875 -1.203125 L 1.328125 -1.265625 C 1.191406 -1.296875 1.035156 -1.335938 0.859375 -1.390625 C 0.679688 -1.441406 0.539062 -1.53125 0.4375 -1.65625 C 0.34375 -1.78125 0.296875 -1.921875 0.296875 -2.078125 C 0.296875 -2.222656 0.332031 -2.351562 0.40625 -2.46875 C 0.488281 -2.582031 0.601562 -2.671875 0.75 -2.734375 C 0.894531 -2.804688 1.066406 -2.84375 1.265625 -2.84375 Z M 1.265625 -2.84375 "/></g></g></g></g><g clip-path="url(#77bedac27b)"><g fill="#113456" fill-opacity="1"><g transform="translate(30.005702, 3.785004)"><g><path d="M 2.609375 0 L 2.1875 0 L 1.859375 -0.859375 L 0.703125 -0.859375 L 0.390625 0 L 0 0 L 1.078125 -2.796875 L 1.46875 -2.796875 Z M 1.109375 -1.96875 L 0.8125 -1.15625 L 1.75 -1.15625 L 1.40625 -2.078125 C 1.363281 -2.179688 1.316406 -2.320312 1.265625 -2.5 C 1.265625 -2.488281 1.25 -2.421875 1.21875 -2.296875 C 1.1875 -2.179688 1.148438 -2.070312 1.109375 -1.96875 Z M 1.109375 -1.96875 "/></g></g></g></g><g clip-path="url(#237eb24544)"><g fill="#113456" fill-opacity="1"><g transform="translate(33.465026, 3.785004)"><g><path d="M 1.265625 -2.84375 C 1.585938 -2.84375 1.835938 -2.769531 2.015625 -2.625 C 2.203125 -2.476562 2.300781 -2.273438 2.3125 -2.015625 L 1.96875 -1.984375 C 1.945312 -2.160156 1.878906 -2.289062 1.765625 -2.375 C 1.660156 -2.46875 1.5 -2.515625 1.28125 -2.515625 C 1.082031 -2.515625 0.925781 -2.476562 0.8125 -2.40625 C 0.695312 -2.332031 0.640625 -2.226562 0.640625 -2.09375 C 0.640625 -2.007812 0.664062 -1.9375 0.71875 -1.875 C 0.769531 -1.820312 0.835938 -1.785156 0.921875 -1.765625 C 0.941406 -1.753906 1.019531 -1.726562 1.15625 -1.6875 C 1.289062 -1.644531 1.460938 -1.601562 1.671875 -1.5625 C 1.910156 -1.507812 2.09375 -1.410156 2.21875 -1.265625 C 2.34375 -1.128906 2.40625 -0.972656 2.40625 -0.796875 C 2.40625 -0.640625 2.363281 -0.5 2.28125 -0.375 C 2.195312 -0.25 2.078125 -0.144531 1.921875 -0.0625 C 1.765625 0.0078125 1.578125 0.046875 1.359375 0.046875 C 1.117188 0.046875 0.910156 0.0078125 0.734375 -0.0625 C 0.554688 -0.144531 0.421875 -0.253906 0.328125 -0.390625 C 0.234375 -0.535156 0.179688 -0.707031 0.171875 -0.90625 L 0.53125 -0.9375 C 0.539062 -0.707031 0.625 -0.539062 0.78125 -0.4375 C 0.945312 -0.332031 1.140625 -0.28125 1.359375 -0.28125 C 1.566406 -0.28125 1.734375 -0.320312 1.859375 -0.40625 C 1.984375 -0.5 2.046875 -0.625 2.046875 -0.78125 C 2.046875 -0.988281 1.878906 -1.128906 1.546875 -1.203125 L 1.328125 -1.265625 C 1.191406 -1.296875 1.035156 -1.335938 0.859375 -1.390625 C 0.679688 -1.441406 0.539062 -1.53125 0.4375 -1.65625 C 0.34375 -1.78125 0.296875 -1.921875 0.296875 -2.078125 C 0.296875 -2.222656 0.332031 -2.351562 0.40625 -2.46875 C 0.488281 -2.582031 0.601562 -2.671875 0.75 -2.734375 C 0.894531 -2.804688 1.066406 -2.84375 1.265625 -2.84375 Z M 1.265625 -2.84375 "/></g></g></g></g><g fill="#113456" fill-opacity="1"><g transform="translate(36.924351, 3.785004)"><g/></g></g><g clip-path="url(#ed6570f8cf)"><g fill="#113456" fill-opacity="1"><g transform="translate(38.866564, 3.785004)"><g><path d="M 2.28125 -2.625 C 2.375 -2.550781 2.441406 -2.460938 2.484375 -2.359375 C 2.523438 -2.253906 2.546875 -2.144531 2.546875 -2.03125 C 2.546875 -1.832031 2.476562 -1.664062 2.34375 -1.53125 C 2.21875 -1.394531 2.023438 -1.3125 1.765625 -1.28125 C 1.867188 -1.226562 1.957031 -1.160156 2.03125 -1.078125 C 2.113281 -1.003906 2.203125 -0.894531 2.296875 -0.75 L 2.78125 0 L 2.3125 0 L 1.953125 -0.5625 C 1.828125 -0.757812 1.726562 -0.898438 1.65625 -0.984375 C 1.582031 -1.078125 1.503906 -1.140625 1.421875 -1.171875 C 1.347656 -1.210938 1.25 -1.234375 1.125 -1.234375 L 0.6875 -1.234375 L 0.6875 0 L 0.3125 0 L 0.3125 -2.796875 L 1.59375 -2.796875 C 1.757812 -2.796875 1.894531 -2.78125 2 -2.75 C 2.101562 -2.726562 2.195312 -2.6875 2.28125 -2.625 Z M 2 -1.6875 C 2.0625 -1.726562 2.101562 -1.78125 2.125 -1.84375 C 2.15625 -1.90625 2.171875 -1.96875 2.171875 -2.03125 C 2.171875 -2.195312 2.109375 -2.3125 1.984375 -2.375 C 1.867188 -2.445312 1.734375 -2.484375 1.578125 -2.484375 L 0.6875 -2.484375 L 0.6875 -1.5625 L 1.515625 -1.5625 C 1.648438 -1.5625 1.75 -1.570312 1.8125 -1.59375 C 1.882812 -1.613281 1.945312 -1.644531 2 -1.6875 Z M 2 -1.6875 "/></g></g></g></g><g clip-path="url(#d625b9e0ad)"><g fill="#113456" fill-opacity="1"><g transform="translate(42.54039, 3.785004)"><g><path d="M 2.328125 -2.46875 L 0.6875 -2.46875 L 0.6875 -1.609375 L 2.234375 -1.609375 L 2.234375 -1.28125 L 0.6875 -1.28125 L 0.6875 -0.328125 L 2.390625 -0.328125 L 2.390625 0 L 0.3125 0 L 0.3125 -2.796875 L 2.328125 -2.796875 Z M 2.328125 -2.46875 "/></g></g></g></g><g clip-path="url(#2795b5a4b8)"><g fill="#113456" fill-opacity="1"><g transform="translate(45.999715, 3.785004)"><g><path d="M 2.046875 -2.65625 C 2.234375 -2.539062 2.375 -2.375 2.46875 -2.15625 C 2.570312 -1.945312 2.625 -1.703125 2.625 -1.421875 C 2.625 -1.179688 2.585938 -0.957031 2.515625 -0.75 C 2.453125 -0.550781 2.347656 -0.390625 2.203125 -0.265625 C 2.097656 -0.179688 1.976562 -0.113281 1.84375 -0.0625 C 1.71875 -0.0195312 1.554688 0 1.359375 0 L 0.3125 0 L 0.3125 -2.796875 L 1.328125 -2.796875 C 1.492188 -2.796875 1.628906 -2.785156 1.734375 -2.765625 C 1.847656 -2.742188 1.953125 -2.707031 2.046875 -2.65625 Z M 2.25 -1.421875 C 2.25 -1.703125 2.203125 -1.921875 2.109375 -2.078125 C 2.023438 -2.234375 1.921875 -2.335938 1.796875 -2.390625 C 1.671875 -2.441406 1.515625 -2.46875 1.328125 -2.46875 L 0.6875 -2.46875 L 0.6875 -0.328125 L 1.296875 -0.328125 C 1.484375 -0.328125 1.632812 -0.347656 1.75 -0.390625 C 1.875 -0.429688 1.988281 -0.53125 2.09375 -0.6875 C 2.195312 -0.851562 2.25 -1.097656 2.25 -1.421875 Z M 2.25 -1.421875 "/></g></g></g></g><g clip-path="url(#fa5b10edcd)"><g fill="#113456" fill-opacity="1"><g transform="translate(49.673541, 3.785004)"><g><path d="M 2.328125 -2.46875 L 0.6875 -2.46875 L 0.6875 -1.609375 L 2.234375 -1.609375 L 2.234375 -1.28125 L 0.6875 -1.28125 L 0.6875 -0.328125 L 2.390625 -0.328125 L 2.390625 0 L 0.3125 0 L 0.3125 -2.796875 L 2.328125 -2.796875 Z M 2.328125 -2.46875 "/></g></g></g></g><g clip-path="url(#ef75344fac)"><g fill="#113456" fill-opacity="1"><g transform="translate(53.132866, 3.785004)"><g><path d="M 1.265625 -2.84375 C 1.585938 -2.84375 1.835938 -2.769531 2.015625 -2.625 C 2.203125 -2.476562 2.300781 -2.273438 2.3125 -2.015625 L 1.96875 -1.984375 C 1.945312 -2.160156 1.878906 -2.289062 1.765625 -2.375 C 1.660156 -2.46875 1.5 -2.515625 1.28125 -2.515625 C 1.082031 -2.515625 0.925781 -2.476562 0.8125 -2.40625 C 0.695312 -2.332031 0.640625 -2.226562 0.640625 -2.09375 C 0.640625 -2.007812 0.664062 -1.9375 0.71875 -1.875 C 0.769531 -1.820312 0.835938 -1.785156 0.921875 -1.765625 C 0.941406 -1.753906 1.019531 -1.726562 1.15625 -1.6875 C 1.289062 -1.644531 1.460938 -1.601562 1.671875 -1.5625 C 1.910156 -1.507812 2.09375 -1.410156 2.21875 -1.265625 C 2.34375 -1.128906 2.40625 -0.972656 2.40625 -0.796875 C 2.40625 -0.640625 2.363281 -0.5 2.28125 -0.375 C 2.195312 -0.25 2.078125 -0.144531 1.921875 -0.0625 C 1.765625 0.0078125 1.578125 0.046875 1.359375 0.046875 C 1.117188 0.046875 0.910156 0.0078125 0.734375 -0.0625 C 0.554688 -0.144531 0.421875 -0.253906 0.328125 -0.390625 C 0.234375 -0.535156 0.179688 -0.707031 0.171875 -0.90625 L 0.53125 -0.9375 C 0.539062 -0.707031 0.625 -0.539062 0.78125 -0.4375 C 0.945312 -0.332031 1.140625 -0.28125 1.359375 -0.28125 C 1.566406 -0.28125 1.734375 -0.320312 1.859375 -0.40625 C 1.984375 -0.5 2.046875 -0.625 2.046875 -0.78125 C 2.046875 -0.988281 1.878906 -1.128906 1.546875 -1.203125 L 1.328125 -1.265625 C 1.191406 -1.296875 1.035156 -1.335938 0.859375 -1.390625 C 0.679688 -1.441406 0.539062 -1.53125 0.4375 -1.65625 C 0.34375 -1.78125 0.296875 -1.921875 0.296875 -2.078125 C 0.296875 -2.222656 0.332031 -2.351562 0.40625 -2.46875 C 0.488281 -2.582031 0.601562 -2.671875 0.75 -2.734375 C 0.894531 -2.804688 1.066406 -2.84375 1.265625 -2.84375 Z M 1.265625 -2.84375 "/></g></g></g></g><g fill="#113456" fill-opacity="1"><g transform="translate(56.59219, 3.785004)"><g/></g></g><g clip-path="url(#7a73612e7f)"><g fill="#113456" fill-opacity="1"><g transform="translate(58.534403, 3.785004)"><g><path d="M 1.265625 -2.84375 C 1.585938 -2.84375 1.835938 -2.769531 2.015625 -2.625 C 2.203125 -2.476562 2.300781 -2.273438 2.3125 -2.015625 L 1.96875 -1.984375 C 1.945312 -2.160156 1.878906 -2.289062 1.765625 -2.375 C 1.660156 -2.46875 1.5 -2.515625 1.28125 -2.515625 C 1.082031 -2.515625 0.925781 -2.476562 0.8125 -2.40625 C 0.695312 -2.332031 0.640625 -2.226562 0.640625 -2.09375 C 0.640625 -2.007812 0.664062 -1.9375 0.71875 -1.875 C 0.769531 -1.820312 0.835938 -1.785156 0.921875 -1.765625 C 0.941406 -1.753906 1.019531 -1.726562 1.15625 -1.6875 C 1.289062 -1.644531 1.460938 -1.601562 1.671875 -1.5625 C 1.910156 -1.507812 2.09375 -1.410156 2.21875 -1.265625 C 2.34375 -1.128906 2.40625 -0.972656 2.40625 -0.796875 C 2.40625 -0.640625 2.363281 -0.5 2.28125 -0.375 C 2.195312 -0.25 2.078125 -0.144531 1.921875 -0.0625 C 1.765625 0.0078125 1.578125 0.046875 1.359375 0.046875 C 1.117188 0.046875 0.910156 0.0078125 0.734375 -0.0625 C 0.554688 -0.144531 0.421875 -0.253906 0.328125 -0.390625 C 0.234375 -0.535156 0.179688 -0.707031 0.171875 -0.90625 L 0.53125 -0.9375 C 0.539062 -0.707031 0.625 -0.539062 0.78125 -0.4375 C 0.945312 -0.332031 1.140625 -0.28125 1.359375 -0.28125 C 1.566406 -0.28125 1.734375 -0.320312 1.859375 -0.40625 C 1.984375 -0.5 2.046875 -0.625 2.046875 -0.78125 C 2.046875 -0.988281 1.878906 -1.128906 1.546875 -1.203125 L 1.328125 -1.265625 C 1.191406 -1.296875 1.035156 -1.335938 0.859375 -1.390625 C 0.679688 -1.441406 0.539062 -1.53125 0.4375 -1.65625 C 0.34375 -1.78125 0.296875 -1.921875 0.296875 -2.078125 C 0.296875 -2.222656 0.332031 -2.351562 0.40625 -2.46875 C 0.488281 -2.582031 0.601562 -2.671875 0.75 -2.734375 C 0.894531 -2.804688 1.066406 -2.84375 1.265625 -2.84375 Z M 1.265625 -2.84375 "/></g></g></g></g><g clip-path="url(#34d91a6861)"><g fill="#113456" fill-opacity="1"><g transform="translate(61.993727, 3.785004)"><g><path d="M 1.46875 -2.84375 C 1.75 -2.84375 1.992188 -2.78125 2.203125 -2.65625 C 2.410156 -2.539062 2.570312 -2.375 2.6875 -2.15625 C 2.800781 -1.9375 2.859375 -1.679688 2.859375 -1.390625 C 2.859375 -1.109375 2.800781 -0.859375 2.6875 -0.640625 C 2.570312 -0.421875 2.410156 -0.25 2.203125 -0.125 C 2.003906 -0.0078125 1.785156 0.046875 1.546875 0.046875 C 1.273438 0.046875 1.035156 -0.015625 0.828125 -0.140625 C 0.617188 -0.265625 0.457031 -0.429688 0.34375 -0.640625 C 0.238281 -0.859375 0.1875 -1.097656 0.1875 -1.359375 C 0.1875 -1.660156 0.238281 -1.921875 0.34375 -2.140625 C 0.457031 -2.367188 0.613281 -2.539062 0.8125 -2.65625 C 1.007812 -2.78125 1.226562 -2.84375 1.46875 -2.84375 Z M 0.5625 -1.359375 C 0.5625 -1.140625 0.601562 -0.945312 0.6875 -0.78125 C 0.769531 -0.625 0.882812 -0.5 1.03125 -0.40625 C 1.175781 -0.3125 1.335938 -0.265625 1.515625 -0.265625 C 1.710938 -0.265625 1.878906 -0.3125 2.015625 -0.40625 C 2.160156 -0.5 2.273438 -0.628906 2.359375 -0.796875 C 2.441406 -0.960938 2.484375 -1.160156 2.484375 -1.390625 C 2.484375 -1.617188 2.441406 -1.816406 2.359375 -1.984375 C 2.273438 -2.160156 2.160156 -2.296875 2.015625 -2.390625 C 1.878906 -2.484375 1.71875 -2.53125 1.53125 -2.53125 C 1.226562 -2.53125 0.988281 -2.425781 0.8125 -2.21875 C 0.644531 -2.007812 0.5625 -1.722656 0.5625 -1.359375 Z M 0.5625 -1.359375 "/></g></g></g></g><g clip-path="url(#dbbb4a99e0)"><g fill="#113456" fill-opacity="1"><g transform="translate(65.885953, 3.785004)"><g><path d="M 1.515625 -2.84375 C 1.804688 -2.84375 2.046875 -2.769531 2.234375 -2.625 C 2.421875 -2.476562 2.550781 -2.28125 2.625 -2.03125 L 2.265625 -1.9375 C 2.203125 -2.125 2.109375 -2.269531 1.984375 -2.375 C 1.867188 -2.476562 1.710938 -2.53125 1.515625 -2.53125 C 1.222656 -2.53125 0.992188 -2.429688 0.828125 -2.234375 C 0.660156 -2.046875 0.578125 -1.773438 0.578125 -1.421875 C 0.578125 -1.046875 0.65625 -0.757812 0.8125 -0.5625 C 0.976562 -0.363281 1.207031 -0.265625 1.5 -0.265625 C 1.695312 -0.265625 1.867188 -0.328125 2.015625 -0.453125 C 2.160156 -0.578125 2.253906 -0.753906 2.296875 -0.984375 L 2.671875 -0.890625 C 2.597656 -0.597656 2.457031 -0.367188 2.25 -0.203125 C 2.050781 -0.0351562 1.800781 0.046875 1.5 0.046875 C 1.300781 0.046875 1.128906 0.0195312 0.984375 -0.03125 C 0.835938 -0.09375 0.710938 -0.175781 0.609375 -0.28125 C 0.460938 -0.425781 0.359375 -0.597656 0.296875 -0.796875 C 0.234375 -0.992188 0.203125 -1.203125 0.203125 -1.421875 C 0.203125 -1.710938 0.253906 -1.960938 0.359375 -2.171875 C 0.472656 -2.390625 0.628906 -2.554688 0.828125 -2.671875 C 1.023438 -2.785156 1.253906 -2.84375 1.515625 -2.84375 Z M 1.515625 -2.84375 "/></g></g></g></g><g clip-path="url(#d3b44acc32)"><g fill="#113456" fill-opacity="1"><g transform="translate(69.559779, 3.785004)"><g><path d="M 0.734375 0 L 0.359375 0 L 0.359375 -2.796875 L 0.734375 -2.796875 Z M 0.734375 0 "/></g></g></g></g><g clip-path="url(#7d83e2a3ed)"><g fill="#113456" fill-opacity="1"><g transform="translate(71.501992, 3.785004)"><g><path d="M 2.609375 0 L 2.1875 0 L 1.859375 -0.859375 L 0.703125 -0.859375 L 0.390625 0 L 0 0 L 1.078125 -2.796875 L 1.46875 -2.796875 Z M 1.109375 -1.96875 L 0.8125 -1.15625 L 1.75 -1.15625 L 1.40625 -2.078125 C 1.363281 -2.179688 1.316406 -2.320312 1.265625 -2.5 C 1.265625 -2.488281 1.25 -2.421875 1.21875 -2.296875 C 1.1875 -2.179688 1.148438 -2.070312 1.109375 -1.96875 Z M 1.109375 -1.96875 "/></g></g></g></g><g clip-path="url(#cdaa4b1b7e)"><g fill="#113456" fill-opacity="1"><g transform="translate(74.961317, 3.785004)"><g><path d="M 0.734375 0 L 0.359375 0 L 0.359375 -2.796875 L 0.734375 -2.796875 Z M 0.734375 0 "/></g></g></g></g><g clip-path="url(#786c9a1fe1)"><g fill="#113456" fill-opacity="1"><g transform="translate(76.903529, 3.785004)"><g><path d="M 1.265625 -2.84375 C 1.585938 -2.84375 1.835938 -2.769531 2.015625 -2.625 C 2.203125 -2.476562 2.300781 -2.273438 2.3125 -2.015625 L 1.96875 -1.984375 C 1.945312 -2.160156 1.878906 -2.289062 1.765625 -2.375 C 1.660156 -2.46875 1.5 -2.515625 1.28125 -2.515625 C 1.082031 -2.515625 0.925781 -2.476562 0.8125 -2.40625 C 0.695312 -2.332031 0.640625 -2.226562 0.640625 -2.09375 C 0.640625 -2.007812 0.664062 -1.9375 0.71875 -1.875 C 0.769531 -1.820312 0.835938 -1.785156 0.921875 -1.765625 C 0.941406 -1.753906 1.019531 -1.726562 1.15625 -1.6875 C 1.289062 -1.644531 1.460938 -1.601562 1.671875 -1.5625 C 1.910156 -1.507812 2.09375 -1.410156 2.21875 -1.265625 C 2.34375 -1.128906 2.40625 -0.972656 2.40625 -0.796875 C 2.40625 -0.640625 2.363281 -0.5 2.28125 -0.375 C 2.195312 -0.25 2.078125 -0.144531 1.921875 -0.0625 C 1.765625 0.0078125 1.578125 0.046875 1.359375 0.046875 C 1.117188 0.046875 0.910156 0.0078125 0.734375 -0.0625 C 0.554688 -0.144531 0.421875 -0.253906 0.328125 -0.390625 C 0.234375 -0.535156 0.179688 -0.707031 0.171875 -0.90625 L 0.53125 -0.9375 C 0.539062 -0.707031 0.625 -0.539062 0.78125 -0.4375 C 0.945312 -0.332031 1.140625 -0.28125 1.359375 -0.28125 C 1.566406 -0.28125 1.734375 -0.320312 1.859375 -0.40625 C 1.984375 -0.5 2.046875 -0.625 2.046875 -0.78125 C 2.046875 -0.988281 1.878906 -1.128906 1.546875 -1.203125 L 1.328125 -1.265625 C 1.191406 -1.296875 1.035156 -1.335938 0.859375 -1.390625 C 0.679688 -1.441406 0.539062 -1.53125 0.4375 -1.65625 C 0.34375 -1.78125 0.296875 -1.921875 0.296875 -2.078125 C 0.296875 -2.222656 0.332031 -2.351562 0.40625 -2.46875 C 0.488281 -2.582031 0.601562 -2.671875 0.75 -2.734375 C 0.894531 -2.804688 1.066406 -2.84375 1.265625 -2.84375 Z M 1.265625 -2.84375 "/></g></g></g></g></g></g><g clip-path="url(#be560cc3d3)"><path stroke-linecap="butt" transform="matrix(0.73125, 0, 0, 0.73125, 1.237549, 0)" fill="none" stroke-linejoin="miter" d="M 0.00100072 0 L 117.084345 0 L 117.084345 11.997864 L 0.00100072 11.997864 Z M 0.00100072 0 " stroke="#ffffff" stroke-width="2" stroke-opacity="1" stroke-miterlimit="4"/></g></svg>