<svg xmlns="http://www.w3.org/2000/svg" xmlns:xlink="http://www.w3.org/1999/xlink" width="20" zoomAndPan="magnify" viewBox="0 0 14.88 15" height="20" preserveAspectRatio="xMidYMid meet" version="1.0"><defs><clipPath id="519fddfc20"><path d="M 5.003906 3.957031 L 9.925781 3.957031 L 9.925781 10.988281 L 5.003906 10.988281 Z M 5.003906 3.957031 " clip-rule="nonzero"/></clipPath><clipPath id="21b85d8d5f"><path d="M 3.675781 3.660156 L 11.234375 3.660156 L 11.234375 11.394531 L 3.675781 11.394531 Z M 3.675781 3.660156 " clip-rule="nonzero"/></clipPath><clipPath id="990bc5f081"><path d="M 11.203125 5.769531 L 11.203125 9.328125 C 11.203125 9.890625 10.980469 10.425781 10.585938 10.820312 C 10.1875 11.214844 9.652344 11.4375 9.09375 11.4375 L 5.785156 11.4375 C 5.226562 11.4375 4.691406 11.214844 4.292969 10.820312 C 3.898438 10.425781 3.675781 9.890625 3.675781 9.328125 L 3.675781 5.769531 C 3.675781 5.210938 3.898438 4.675781 4.292969 4.277344 C 4.691406 3.882812 5.226562 3.660156 5.785156 3.660156 L 9.09375 3.660156 C 9.652344 3.660156 10.1875 3.882812 10.585938 4.277344 C 10.980469 4.675781 11.203125 5.210938 11.203125 5.769531 Z M 11.203125 5.769531 " clip-rule="nonzero"/></clipPath><clipPath id="7b7482f7af"><path d="M 0.410156 0 L 14.359375 0 L 14.359375 14.0625 L 0.410156 14.0625 Z M 0.410156 0 " clip-rule="nonzero"/></clipPath></defs><g clip-path="url(#519fddfc20)"><path fill="#113456" d="M 7.457031 11.980469 C 9.886719 11.980469 11.859375 10.007812 11.859375 7.574219 C 11.859375 5.144531 9.886719 3.171875 7.457031 3.171875 C 5.023438 3.171875 3.050781 5.144531 3.050781 7.574219 C 3.050781 10.007812 5.023438 11.980469 7.457031 11.980469 Z M 5.746094 5.972656 C 5.394531 5.972656 5.105469 6.261719 5.105469 6.613281 L 5.105469 8.539062 C 5.105469 8.890625 5.394531 9.179688 5.746094 9.179688 L 9.164062 9.179688 C 9.519531 9.179688 9.804688 8.890625 9.804688 8.539062 L 9.804688 6.613281 C 9.804688 6.261719 9.519531 5.972656 9.164062 5.972656 Z M 7.199219 6.757812 C 7.132812 6.714844 7.050781 6.710938 6.980469 6.746094 C 6.910156 6.785156 6.867188 6.855469 6.867188 6.933594 L 6.867188 8.21875 C 6.867188 8.296875 6.910156 8.367188 6.980469 8.40625 C 7.050781 8.441406 7.132812 8.4375 7.199219 8.394531 L 8.160156 7.753906 C 8.222656 7.714844 8.257812 7.648438 8.257812 7.574219 C 8.257812 7.503906 8.222656 7.4375 8.160156 7.398438 Z M 7.199219 6.757812 " fill-opacity="1" fill-rule="evenodd"/></g><g clip-path="url(#21b85d8d5f)"><g clip-path="url(#990bc5f081)"><path stroke-linecap="butt" transform="matrix(0.703125, 0, 0, 0.703125, 3.676301, 3.661528)" fill="none" stroke-linejoin="miter" d="M 10.704816 2.998049 L 10.704816 8.05916 C 10.704816 8.85916 10.38815 9.620271 9.827038 10.181382 C 9.260372 10.742493 8.499261 11.05916 7.704816 11.05916 L 2.99926 11.05916 C 2.204816 11.05916 1.443705 10.742493 0.877038 10.181382 C 0.315927 9.620271 -0.00073981 8.85916 -0.00073981 8.05916 L -0.00073981 2.998049 C -0.00073981 2.203604 0.315927 1.442493 0.877038 0.875826 C 1.443705 0.314715 2.204816 -0.00195156 2.99926 -0.00195156 L 7.704816 -0.00195156 C 8.499261 -0.00195156 9.260372 0.314715 9.827038 0.875826 C 10.38815 1.442493 10.704816 2.203604 10.704816 2.998049 Z M 10.704816 2.998049 " stroke="#113456" stroke-width="4" stroke-opacity="1" stroke-miterlimit="4"/></g></g><g clip-path="url(#7b7482f7af)"><path stroke-linecap="butt" transform="matrix(0.703125, 0, 0, 0.703125, 0.40875, 0)" fill="none" stroke-linejoin="miter" d="M 0.002 0 L 20.002 0 L 20.002 20 L 0.002 20 Z M 0.002 0 " stroke="#ffffff" stroke-width="2" stroke-opacity="1" stroke-miterlimit="4"/></g></svg>