<svg xmlns="http://www.w3.org/2000/svg" xmlns:xlink="http://www.w3.org/1999/xlink" width="20" zoomAndPan="magnify" viewBox="0 0 14.88 15" height="20" preserveAspectRatio="xMidYMid meet" version="1.0"><defs><clipPath id="17e72b5ce2"><path d="M 5.339844 6 L 6 6 L 6 11.097656 L 5.339844 11.097656 Z M 5.339844 6 " clip-rule="nonzero"/></clipPath><clipPath id="ead37e3cb5"><path d="M 5.339844 5.757812 L 9.558594 5.757812 L 9.558594 11.097656 L 5.339844 11.097656 Z M 5.339844 5.757812 " clip-rule="nonzero"/></clipPath><clipPath id="6726b9300d"><path d="M 3.554688 3.792969 L 11.285156 3.792969 L 11.285156 11.527344 L 3.554688 11.527344 Z M 3.554688 3.792969 " clip-rule="nonzero"/></clipPath><clipPath id="8821a49ce0"><path d="M 11.324219 5.902344 L 11.324219 9.71875 C 11.324219 10.882812 10.382812 11.824219 9.21875 11.824219 L 5.660156 11.824219 C 4.496094 11.824219 3.554688 10.882812 3.554688 9.71875 L 3.554688 5.902344 C 3.554688 4.738281 4.496094 3.792969 5.660156 3.792969 L 9.21875 3.792969 C 10.382812 3.792969 11.324219 4.738281 11.324219 5.902344 Z M 11.324219 5.902344 " clip-rule="nonzero"/></clipPath><clipPath id="69bab6038a"><path d="M 0.410156 0 L 14.359375 0 L 14.359375 14.0625 L 0.410156 14.0625 Z M 0.410156 0 " clip-rule="nonzero"/></clipPath></defs><g clip-path="url(#17e72b5ce2)"><path fill="#113456" d="M -16.683594 6.332031 L -15.929688 6.332031 L -15.929688 10.304688 L -13.847656 10.304688 L -13.847656 11.003906 L -16.683594 11.003906 Z M -13.105469 6.332031 C -13.042969 6.332031 -12.984375 6.34375 -12.925781 6.367188 C -12.867188 6.390625 -12.816406 6.421875 -12.773438 6.464844 C -12.730469 6.507812 -12.695312 6.558594 -12.671875 6.617188 C -12.644531 6.671875 -12.632812 6.730469 -12.632812 6.792969 C -12.632812 6.917969 -12.683594 7.039062 -12.769531 7.128906 C -12.859375 7.214844 -12.980469 7.265625 -13.105469 7.265625 C -13.230469 7.265625 -13.351562 7.214844 -13.4375 7.128906 C -13.527344 7.039062 -13.578125 6.917969 -13.578125 6.792969 C -13.578125 6.730469 -13.5625 6.671875 -13.539062 6.613281 C -13.515625 6.558594 -13.480469 6.507812 -13.4375 6.464844 C -13.394531 6.421875 -13.339844 6.386719 -13.285156 6.367188 C -13.226562 6.34375 -13.164062 6.332031 -13.105469 6.332031 Z M -13.472656 7.640625 L -12.75 7.640625 L -12.75 11.003906 L -13.472656 11.003906 Z M -12.324219 7.640625 L -11.601562 7.640625 L -11.601562 8.105469 C -11.386719 7.75 -11.019531 7.546875 -10.535156 7.546875 C -9.75 7.546875 -9.261719 8.160156 -9.261719 9.136719 L -9.261719 11.003906 L -9.984375 11.003906 L -9.984375 9.195312 C -9.984375 8.566406 -10.261719 8.210938 -10.757812 8.210938 C -11.304688 8.210938 -11.605469 8.582031 -11.605469 9.257812 L -11.605469 11.003906 L -12.328125 11.003906 Z M -8.878906 6.332031 L -8.15625 6.332031 L -8.15625 9.289062 L -6.808594 7.640625 L -5.902344 7.640625 L -7.34375 9.324219 L -5.902344 11.003906 L -6.808594 11.003906 L -8.15625 9.363281 L -8.15625 11.003906 L -8.878906 11.003906 Z M -5.621094 6.78125 L -4.882812 6.78125 L -4.882812 7.640625 L -4.027344 7.640625 L -4.027344 8.242188 L -4.882812 8.242188 L -4.882812 9.976562 C -4.882812 10.199219 -4.75 10.332031 -4.539062 10.332031 L -4.054688 10.332031 L -4.054688 11.007812 L -4.636719 11.007812 C -5.269531 11.007812 -5.621094 10.632812 -5.621094 9.972656 Z M -3.707031 7.640625 L -2.984375 7.640625 L -2.984375 8.058594 C -2.804688 7.738281 -2.503906 7.550781 -2.136719 7.550781 C -2.050781 7.546875 -1.96875 7.554688 -1.886719 7.582031 L -1.886719 8.253906 C -1.972656 8.234375 -2.066406 8.226562 -2.15625 8.230469 C -2.6875 8.230469 -2.984375 8.679688 -2.984375 9.449219 L -2.984375 11.007812 L -3.707031 11.007812 Z M -0.195312 7.550781 C 0.601562 7.550781 1.46875 8.035156 1.46875 9.402344 L 1.46875 9.5 L -1.125 9.5 C -1.070312 10.097656 -0.722656 10.429688 -0.140625 10.429688 C 0.277344 10.429688 0.632812 10.203125 0.714844 9.890625 L 1.449219 9.890625 C 1.375 10.566406 0.675781 11.097656 -0.140625 11.097656 C -1.179688 11.097656 -1.835938 10.417969 -1.835938 9.320312 C -1.835938 8.34375 -1.207031 7.546875 -0.195312 7.546875 Z M 0.695312 8.898438 C 0.589844 8.480469 0.265625 8.21875 -0.195312 8.21875 C -0.636719 8.21875 -0.949219 8.488281 -1.070312 8.898438 Z M 3.429688 7.550781 C 4.226562 7.550781 5.089844 8.035156 5.089844 9.402344 L 5.089844 9.5 L 2.496094 9.5 C 2.550781 10.097656 2.902344 10.429688 3.484375 10.429688 C 3.902344 10.429688 4.257812 10.203125 4.335938 9.890625 L 5.070312 9.890625 C 5 10.566406 4.300781 11.097656 3.484375 11.097656 C 2.441406 11.097656 1.785156 10.417969 1.785156 9.320312 C 1.785156 8.34375 2.417969 7.546875 3.429688 7.546875 Z M 4.316406 8.898438 C 4.214844 8.480469 3.890625 8.21875 3.429688 8.21875 C 2.988281 8.21875 2.675781 8.488281 2.550781 8.898438 Z M 4.316406 8.898438 " fill-opacity="1" fill-rule="nonzero"/></g><g clip-path="url(#ead37e3cb5)"><path fill="#113456" d="M 5.269531 7.539062 L 6.5625 7.539062 L 5.640625 6.660156 L 6.152344 6.136719 L 7.027344 7.039062 L 7.027344 5.757812 L 7.789062 5.757812 L 7.789062 7.039062 L 8.664062 6.140625 L 9.171875 6.660156 L 8.253906 7.535156 L 9.546875 7.535156 L 9.546875 8.257812 L 8.246094 8.257812 L 9.171875 9.15625 L 8.664062 9.667969 L 7.40625 8.40625 L 6.152344 9.667969 L 5.640625 9.160156 L 6.566406 8.261719 L 5.269531 8.261719 Z M 7.027344 9.296875 L 7.785156 9.296875 L 7.785156 11.011719 L 7.027344 11.011719 Z M 7.027344 9.296875 " fill-opacity="1" fill-rule="nonzero"/></g><g clip-path="url(#6726b9300d)"><g clip-path="url(#8821a49ce0)"><path stroke-linecap="butt" transform="matrix(0.703125, 0, 0, 0.703125, 3.554322, 3.794287)" fill="none" stroke-linejoin="miter" d="M 11.05052 2.998126 L 11.05052 8.425904 C 11.05052 10.081459 9.711631 11.420348 8.056076 11.420348 L 2.994964 11.420348 C 1.339409 11.420348 0.000519721 10.081459 0.000519721 8.425904 L 0.000519721 2.998126 C 0.000519721 1.34257 1.339409 -0.00187437 2.994964 -0.00187437 L 8.056076 -0.00187437 C 9.711631 -0.00187437 11.05052 1.34257 11.05052 2.998126 Z M 11.05052 2.998126 " stroke="#113456" stroke-width="2" stroke-opacity="1" stroke-miterlimit="4"/></g></g><g clip-path="url(#69bab6038a)"><path stroke-linecap="butt" transform="matrix(0.703125, 0, 0, 0.703125, 0.40875, 0)" fill="none" stroke-linejoin="miter" d="M 0.002 0 L 20.002 0 L 20.002 20 L 0.002 20 Z M 0.002 0 " stroke="#ffffff" stroke-width="2" stroke-opacity="1" stroke-miterlimit="4"/></g></svg>