<svg xmlns="http://www.w3.org/2000/svg" xmlns:xlink="http://www.w3.org/1999/xlink" width="20" zoomAndPan="magnify" viewBox="0 0 14.88 15" height="20" preserveAspectRatio="xMidYMid meet" version="1.0"><defs><clipPath id="99310a9061"><path d="M 0.410156 0 L 14.359375 0 L 14.359375 14.0625 L 0.410156 14.0625 Z M 0.410156 0 " clip-rule="nonzero"/></clipPath><clipPath id="6b50df7e84"><path d="M 3.664062 4.21875 L 11 4.21875 L 11 11.25 L 3.664062 11.25 Z M 3.664062 4.21875 " clip-rule="nonzero"/></clipPath><clipPath id="248b570a5a"><path d="M 10 10 L 12 10 L 12 11.25 L 10 11.25 Z M 10 10 " clip-rule="nonzero"/></clipPath><clipPath id="38631779f9"><path d="M 3.097656 3.664062 L 10.777344 3.664062 L 10.777344 11.398438 L 3.097656 11.398438 Z M 3.097656 3.664062 " clip-rule="nonzero"/></clipPath><clipPath id="a680d83598"><path d="M 10.742188 5.070312 L 10.742188 10.160156 C 10.742188 10.933594 10.113281 11.5625 9.335938 11.5625 L 4.503906 11.5625 C 3.726562 11.5625 3.097656 10.933594 3.097656 10.160156 L 3.097656 5.070312 C 3.097656 4.292969 3.726562 3.664062 4.503906 3.664062 L 9.335938 3.664062 C 10.113281 3.664062 10.742188 4.292969 10.742188 5.070312 Z M 10.742188 5.070312 " clip-rule="nonzero"/></clipPath></defs><g clip-path="url(#99310a9061)"><path stroke-linecap="butt" transform="matrix(0.703125, 0, 0, 0.703125, 0.40875, 0)" fill="none" stroke-linejoin="miter" d="M 0.002 0 L 20.002 0 L 20.002 20 L 0.002 20 Z M 0.002 0 " stroke="#ffffff" stroke-width="2" stroke-opacity="1" stroke-miterlimit="4"/></g><path fill="#113456" d="M 11.371094 10.695312 C 11.441406 10.695312 11.5 10.636719 11.5 10.566406 C 11.5 10.566406 11.5 10.5625 11.5 10.558594 C 11.5 10.464844 11.441406 10.417969 11.324219 10.417969 L 11.132812 10.417969 L 11.132812 10.917969 L 11.207031 10.917969 L 11.207031 10.699219 L 11.292969 10.699219 L 11.296875 10.703125 L 11.433594 10.917969 L 11.507812 10.917969 L 11.363281 10.695312 L 11.371094 10.691406 Z M 11.289062 10.644531 L 11.207031 10.644531 L 11.207031 10.476562 L 11.3125 10.476562 C 11.367188 10.476562 11.429688 10.484375 11.429688 10.554688 C 11.429688 10.636719 11.367188 10.644531 11.289062 10.644531 " fill-opacity="1" fill-rule="nonzero"/><g clip-path="url(#6b50df7e84)"><path fill="#113456" d="M 9.503906 10.070312 L 8.488281 10.070312 L 8.488281 8.480469 C 8.488281 8.097656 8.480469 7.609375 7.960938 7.609375 C 7.4375 7.609375 7.351562 8.023438 7.351562 8.449219 L 7.351562 10.070312 L 6.335938 10.070312 L 6.335938 6.796875 L 7.308594 6.796875 L 7.308594 7.246094 L 7.324219 7.246094 C 7.523438 6.90625 7.890625 6.703125 8.285156 6.71875 C 9.3125 6.71875 9.503906 7.394531 9.503906 8.273438 Z M 5.1875 6.351562 C 4.863281 6.351562 4.601562 6.085938 4.601562 5.761719 C 4.597656 5.4375 4.863281 5.171875 5.1875 5.171875 C 5.515625 5.171875 5.777344 5.4375 5.777344 5.761719 C 5.777344 6.085938 5.515625 6.351562 5.1875 6.351562 M 5.695312 10.070312 L 4.679688 10.070312 L 4.679688 6.796875 L 5.695312 6.796875 Z M 10.011719 4.230469 L 4.171875 4.230469 C 3.894531 4.226562 3.667969 4.449219 3.664062 4.722656 L 3.664062 10.589844 C 3.667969 10.863281 3.894531 11.085938 4.171875 11.082031 L 10.011719 11.082031 C 10.289062 11.085938 10.515625 10.863281 10.519531 10.589844 L 10.519531 4.722656 C 10.515625 4.445312 10.285156 4.226562 10.011719 4.230469 " fill-opacity="1" fill-rule="nonzero"/></g><g clip-path="url(#248b570a5a)"><path fill="#113456" d="M 11.296875 10.195312 C 11.039062 10.199219 10.832031 10.410156 10.835938 10.667969 C 10.835938 10.925781 11.050781 11.132812 11.308594 11.132812 C 11.566406 11.128906 11.773438 10.917969 11.769531 10.660156 C 11.765625 10.40625 11.5625 10.199219 11.308594 10.195312 L 11.296875 10.195312 M 11.296875 11.078125 C 11.070312 11.082031 10.886719 10.902344 10.882812 10.675781 C 10.878906 10.449219 11.058594 10.261719 11.285156 10.257812 C 11.511719 10.253906 11.695312 10.433594 11.699219 10.660156 L 11.699219 10.667969 C 11.707031 10.890625 11.53125 11.074219 11.308594 11.078125 L 11.296875 11.078125 " fill-opacity="1" fill-rule="nonzero"/></g><g clip-path="url(#38631779f9)"><g clip-path="url(#a680d83598)"><path stroke-linecap="butt" transform="matrix(0.703125, 0, 0, 0.703125, 3.098348, 3.664507)" fill="none" stroke-linejoin="miter" d="M 10.871238 1.999368 L 10.871238 9.238257 C 10.871238 10.338257 9.976794 11.232702 8.871238 11.232702 L 1.999016 11.232702 C 0.89346 11.232702 -0.00098421 10.338257 -0.00098421 9.238257 L -0.00098421 1.999368 C -0.00098421 0.893813 0.89346 -0.00063184 1.999016 -0.00063184 L 8.871238 -0.00063184 C 9.976794 -0.00063184 10.871238 0.893813 10.871238 1.999368 Z M 10.871238 1.999368 " stroke="#113456" stroke-width="3" stroke-opacity="1" stroke-miterlimit="4"/></g></g></svg>