<svg xmlns="http://www.w3.org/2000/svg" xmlns:xlink="http://www.w3.org/1999/xlink" width="20" zoomAndPan="magnify" viewBox="0 0 14.88 15" height="20" preserveAspectRatio="xMidYMid meet" version="1.0"><defs><g/><clipPath id="95ff38f55f"><path d="M 0.410156 0 L 14.359375 0 L 14.359375 14.0625 L 0.410156 14.0625 Z M 0.410156 0 " clip-rule="nonzero"/></clipPath><clipPath id="13e1f20999"><path d="M 3.597656 3.792969 L 11.332031 3.792969 L 11.332031 11.527344 L 3.597656 11.527344 Z M 3.597656 3.792969 " clip-rule="nonzero"/></clipPath><clipPath id="ae485acefa"><path d="M 0.410156 2 L 1.984375 2 L 1.984375 3 L 0.410156 3 Z M 0.410156 2 " clip-rule="nonzero"/></clipPath><clipPath id="5742c98f66"><rect x="0" width="2" y="0" height="5"/></clipPath></defs><g clip-path="url(#95ff38f55f)"><path stroke-linecap="butt" transform="matrix(0.703125, 0, 0, 0.703125, 0.40875, 0)" fill="none" stroke-linejoin="miter" d="M 0.002 0 L 20.002 0 L 20.002 20 L 0.002 20 Z M 0.002 0 " stroke="#ffffff" stroke-width="2" stroke-opacity="1" stroke-miterlimit="4"/></g><g clip-path="url(#13e1f20999)"><path fill="#113456" d="M 5.875 3.820312 C 5.460938 3.839844 5.179688 3.90625 4.933594 4.003906 C 4.675781 4.101562 4.460938 4.238281 4.246094 4.453125 C 4.027344 4.667969 3.894531 4.886719 3.796875 5.140625 C 3.703125 5.390625 3.636719 5.671875 3.617188 6.085938 C 3.601562 6.5 3.597656 6.632812 3.597656 7.6875 C 3.601562 8.746094 3.605469 8.878906 3.625 9.292969 C 3.644531 9.707031 3.710938 9.988281 3.808594 10.234375 C 3.90625 10.492188 4.039062 10.707031 4.257812 10.921875 C 4.472656 11.140625 4.691406 11.269531 4.945312 11.371094 C 5.191406 11.464844 5.476562 11.53125 5.890625 11.546875 C 6.304688 11.566406 6.4375 11.570312 7.492188 11.570312 C 8.546875 11.566406 8.679688 11.5625 9.09375 11.542969 C 9.507812 11.523438 9.792969 11.457031 10.039062 11.359375 C 10.292969 11.261719 10.511719 11.128906 10.726562 10.910156 C 10.941406 10.695312 11.074219 10.476562 11.171875 10.222656 C 11.269531 9.972656 11.332031 9.691406 11.351562 9.277344 C 11.371094 8.863281 11.375 8.730469 11.371094 7.675781 C 11.371094 6.617188 11.367188 6.488281 11.347656 6.070312 C 11.328125 5.65625 11.261719 5.375 11.164062 5.128906 C 11.0625 4.871094 10.929688 4.65625 10.714844 4.441406 C 10.496094 4.226562 10.28125 4.09375 10.023438 3.992188 C 9.777344 3.898438 9.496094 3.832031 9.082031 3.816406 C 8.664062 3.796875 8.535156 3.792969 7.476562 3.792969 C 6.421875 3.796875 6.289062 3.800781 5.875 3.820312 M 5.921875 10.847656 C 5.542969 10.832031 5.335938 10.769531 5.199219 10.714844 C 5.015625 10.644531 4.886719 10.5625 4.75 10.425781 C 4.613281 10.289062 4.53125 10.160156 4.460938 9.980469 C 4.40625 9.84375 4.34375 9.636719 4.324219 9.257812 C 4.304688 8.847656 4.300781 8.726562 4.296875 7.6875 C 4.296875 6.648438 4.300781 6.527344 4.316406 6.117188 C 4.335938 5.738281 4.398438 5.53125 4.449219 5.394531 C 4.519531 5.214844 4.605469 5.085938 4.738281 4.949219 C 4.875 4.8125 5.003906 4.726562 5.1875 4.65625 C 5.324219 4.601562 5.527344 4.539062 5.90625 4.519531 C 6.316406 4.5 6.441406 4.496094 7.480469 4.496094 C 8.515625 4.492188 8.640625 4.496094 9.050781 4.515625 C 9.429688 4.53125 9.632812 4.59375 9.773438 4.648438 C 9.953125 4.71875 10.082031 4.800781 10.21875 4.9375 C 10.355469 5.074219 10.441406 5.203125 10.511719 5.382812 C 10.566406 5.519531 10.628906 5.726562 10.644531 6.105469 C 10.664062 6.515625 10.671875 6.636719 10.671875 7.675781 C 10.671875 8.714844 10.671875 8.835938 10.652344 9.246094 C 10.636719 9.625 10.574219 9.832031 10.519531 9.96875 C 10.449219 10.148438 10.367188 10.277344 10.230469 10.414062 C 10.09375 10.550781 9.964844 10.636719 9.78125 10.707031 C 9.644531 10.761719 9.441406 10.824219 9.0625 10.84375 C 8.652344 10.863281 8.527344 10.867188 7.492188 10.867188 C 6.453125 10.871094 6.332031 10.867188 5.921875 10.847656 M 9.089844 5.605469 C 9.089844 5.863281 9.300781 6.070312 9.558594 6.070312 C 9.816406 6.070312 10.023438 5.859375 10.023438 5.601562 C 10.023438 5.34375 9.8125 5.136719 9.554688 5.136719 C 9.296875 5.136719 9.089844 5.347656 9.089844 5.601562 M 5.488281 7.6875 C 5.492188 8.789062 6.386719 9.679688 7.488281 9.675781 C 8.589844 9.675781 9.484375 8.78125 9.480469 7.679688 C 9.480469 6.574219 8.582031 5.683594 7.480469 5.6875 C 6.378906 5.6875 5.488281 6.582031 5.488281 7.6875 M 6.1875 7.683594 C 6.1875 6.96875 6.765625 6.386719 7.484375 6.386719 C 8.199219 6.382812 8.78125 6.964844 8.78125 7.679688 C 8.78125 8.394531 8.203125 8.976562 7.488281 8.976562 C 6.773438 8.980469 6.191406 8.398438 6.191406 7.683594 " fill-opacity="1" fill-rule="nonzero"/></g><g transform="matrix(1, 0, 0, 1, 9, 4)"><g clip-path="url(#5742c98f66)"><g clip-path="url(#ae485acefa)"><g fill="#113456" fill-opacity="1"><g transform="translate(0.596703, 2.644163)"><g><path d="M 0.703125 0 L 0.328125 0 L 0.328125 -0.375 L 0.703125 -0.375 Z M 0.703125 0 "/></g></g></g></g></g></g></svg>