<svg xmlns="http://www.w3.org/2000/svg" xmlns:xlink="http://www.w3.org/1999/xlink" width="9" zoomAndPan="magnify" viewBox="0 0 6.75 41.999999" height="56" preserveAspectRatio="xMidYMid meet" version="1.0"><defs><clipPath id="266c32dc74"><path d="M 1 33.910156 L 5.339844 33.910156 L 5.339844 41 L 1 41 Z M 1 33.910156 " clip-rule="nonzero"/></clipPath><clipPath id="bb9d84439d"><path d="M 1.132812 12.304688 L 6.195312 12.304688 L 6.195312 18.089844 L 1.132812 18.089844 Z M 1.132812 12.304688 " clip-rule="nonzero"/></clipPath><clipPath id="aaac141e58"><path d="M 0.132812 0.304688 L 5.003906 0.304688 L 5.003906 6.089844 L 0.132812 6.089844 Z M 0.132812 0.304688 " clip-rule="nonzero"/></clipPath><clipPath id="6eaeb7f8a4"><rect x="0" width="6" y="0" height="7"/></clipPath><clipPath id="e83b623c04"><path d="M 0 23.734375 L 6.507812 23.734375 L 6.507812 28 L 0 28 Z M 0 23.734375 " clip-rule="nonzero"/></clipPath><clipPath id="c287ee3674"><path d="M 0 0.75 L 6.507812 0.75 L 6.507812 7.257812 L 0 7.257812 Z M 0 0.75 " clip-rule="nonzero"/></clipPath></defs><g clip-path="url(#266c32dc74)"><path fill="#164d88" d="M 5.488281 36.160156 C 5.488281 34.921875 4.480469 33.917969 3.242188 33.917969 C 2.003906 33.917969 1 34.921875 1 36.160156 C 1 36.183594 1.003906 36.207031 1.003906 36.226562 C 1.003906 36.277344 1.003906 36.332031 1.011719 36.382812 C 1.011719 36.394531 1.015625 36.402344 1.015625 36.414062 C 1.019531 36.460938 1.027344 36.507812 1.035156 36.554688 C 1.042969 36.589844 1.050781 36.625 1.058594 36.65625 C 1.398438 38.175781 3.242188 40.796875 3.242188 40.796875 C 3.242188 40.796875 4.898438 38.398438 5.363281 36.886719 C 5.402344 36.777344 5.429688 36.664062 5.449219 36.546875 C 5.472656 36.433594 5.488281 36.324219 5.488281 36.226562 C 5.488281 36.222656 5.484375 36.214844 5.484375 36.207031 C 5.484375 36.191406 5.488281 36.175781 5.488281 36.160156 Z M 3.242188 37.332031 C 2.585938 37.332031 2.054688 36.800781 2.054688 36.144531 C 2.054688 35.488281 2.585938 34.957031 3.242188 34.957031 C 3.898438 34.957031 4.429688 35.488281 4.429688 36.144531 C 4.429688 36.800781 3.898438 37.332031 3.242188 37.332031 Z M 3.242188 37.332031 " fill-opacity="1" fill-rule="nonzero"/></g><g clip-path="url(#bb9d84439d)"><g transform="matrix(1, 0, 0, 1, 1, 12)"><g clip-path="url(#6eaeb7f8a4)"><g clip-path="url(#aaac141e58)"><path fill="#164d88" d="M 0.132812 3.078125 L 5.003906 0.304688 L 4.335938 5.8125 L 3.007812 4.304688 L 3 4.300781 L 1.664062 6.351562 L 0.722656 5.738281 L 2.0625 3.679688 L 2.058594 3.675781 L 0.132812 3.078125 " fill-opacity="1" fill-rule="nonzero"/></g></g></g></g><g clip-path="url(#e83b623c04)"><path fill="#164d88" d="M 0 24.109375 L 0 27.671875 C 0 27.800781 0.105469 27.902344 0.230469 27.902344 L 6.253906 27.902344 C 6.382812 27.902344 6.484375 27.800781 6.484375 27.671875 L 6.484375 24.109375 L 3.363281 26.015625 C 3.289062 26.0625 3.195312 26.0625 3.121094 26.015625 Z M 3.242188 25.546875 L 0.277344 23.734375 L 6.210938 23.734375 Z M 3.242188 25.546875 " fill-opacity="1" fill-rule="evenodd"/></g><g clip-path="url(#c287ee3674)"><path fill="#164d88" d="M 3.246094 0.75 C 1.46875 0.75 0.03125 2.167969 0.0078125 3.941406 C 0 4.441406 0.105469 4.914062 0.300781 5.335938 C 0.414062 5.585938 0.429688 5.867188 0.347656 6.128906 L 0.0507812 7.082031 L 1.136719 6.835938 C 1.382812 6.78125 1.636719 6.8125 1.863281 6.917969 C 2.292969 7.125 2.777344 7.234375 3.289062 7.230469 C 5.066406 7.207031 6.488281 5.769531 6.488281 3.988281 C 6.488281 2.199219 5.035156 0.75 3.246094 0.75 Z M 3.246094 0.75 " fill-opacity="1" fill-rule="nonzero"/></g><path fill="#ffffff" d="M 4.722656 5.570312 C 4.804688 5.4375 4.863281 5.292969 4.890625 5.140625 C 4.898438 5.09375 4.882812 5.042969 4.847656 5.011719 L 4.464844 4.628906 C 4.402344 4.5625 4.308594 4.527344 4.214844 4.539062 C 4.144531 4.546875 4.082031 4.578125 4.03125 4.628906 L 3.914062 4.746094 C 3.863281 4.796875 3.785156 4.8125 3.714844 4.789062 C 3.40625 4.679688 2.980469 4.257812 2.980469 4.257812 C 2.980469 4.257812 2.558594 3.832031 2.449219 3.523438 C 2.421875 3.453125 2.4375 3.375 2.492188 3.324219 L 2.609375 3.207031 C 2.660156 3.15625 2.691406 3.089844 2.699219 3.019531 C 2.707031 2.929688 2.675781 2.835938 2.609375 2.769531 L 2.226562 2.386719 C 2.191406 2.351562 2.144531 2.339844 2.097656 2.347656 C 1.945312 2.375 1.800781 2.429688 1.664062 2.515625 C 1.617188 2.546875 1.582031 2.597656 1.574219 2.65625 C 1.53125 2.933594 1.5 3.800781 2.46875 4.769531 C 3.4375 5.734375 4.304688 5.703125 4.582031 5.660156 C 4.636719 5.652344 4.691406 5.621094 4.722656 5.570312 Z M 4.722656 5.570312 " fill-opacity="1" fill-rule="nonzero"/></svg>