<svg xmlns="http://www.w3.org/2000/svg" xmlns:xlink="http://www.w3.org/1999/xlink" width="125" zoomAndPan="magnify" viewBox="0 0 93.75 16.5" height="22" preserveAspectRatio="xMidYMid meet" version="1.0"><defs><g/><clipPath id="7c3aa8bb3d"><path d="M 1.257812 0 L 82 0 L 82 16.015625 L 1.257812 16.015625 Z M 1.257812 0 " clip-rule="nonzero"/></clipPath><clipPath id="9b36a16fde"><path d="M 50.0625 9.160156 L 54.242188 9.160156 L 54.242188 14.6875 L 50.0625 14.6875 Z M 50.0625 9.160156 " clip-rule="nonzero"/></clipPath><clipPath id="3ad7c29499"><path d="M 48.210938 7.128906 L 56.289062 7.128906 L 56.289062 15.492188 L 48.210938 15.492188 Z M 48.210938 7.128906 " clip-rule="nonzero"/></clipPath><clipPath id="68bb2c4729"><path d="M 56.253906 9.308594 L 56.253906 13.257812 C 56.253906 14.464844 55.277344 15.441406 54.074219 15.441406 L 50.394531 15.441406 C 49.1875 15.441406 48.210938 14.464844 48.210938 13.257812 L 48.210938 9.308594 C 48.210938 8.105469 49.1875 7.128906 50.394531 7.128906 L 54.074219 7.128906 C 55.277344 7.128906 56.253906 8.105469 56.253906 9.308594 Z M 56.253906 9.308594 " clip-rule="nonzero"/></clipPath><clipPath id="e5189b70b4"><path d="M 17.804688 7.402344 L 26 7.402344 L 26 15.765625 L 17.804688 15.765625 Z M 17.804688 7.402344 " clip-rule="nonzero"/></clipPath><clipPath id="0eca5393c0"><path d="M 10 14 L 10.730469 14 L 10.730469 15 L 10 15 Z M 10 14 " clip-rule="nonzero"/></clipPath><clipPath id="3112f6a8ef"><path d="M 2.367188 7.835938 L 10 7.835938 L 10 15 L 2.367188 15 Z M 2.367188 7.835938 " clip-rule="nonzero"/></clipPath><clipPath id="f31582dee8"><path d="M 9 14 L 10.730469 14 L 10.730469 15 L 9 15 Z M 9 14 " clip-rule="nonzero"/></clipPath><clipPath id="9ef5410783"><path d="M 1.53125 7.261719 L 9.058594 7.261719 L 9.058594 15.628906 L 1.53125 15.628906 Z M 1.53125 7.261719 " clip-rule="nonzero"/></clipPath><clipPath id="8c90e07a70"><path d="M 9.449219 8.71875 L 9.449219 13.988281 C 9.449219 14.792969 8.796875 15.445312 7.992188 15.445312 L 2.988281 15.445312 C 2.183594 15.445312 1.53125 14.792969 1.53125 13.988281 L 1.53125 8.71875 C 1.53125 7.914062 2.183594 7.261719 2.988281 7.261719 L 7.992188 7.261719 C 8.796875 7.261719 9.449219 7.914062 9.449219 8.71875 Z M 9.449219 8.71875 " clip-rule="nonzero"/></clipPath><clipPath id="f298e6bbd1"><path d="M 34.558594 7.574219 L 39.578125 7.574219 L 39.578125 15.101562 L 34.558594 15.101562 Z M 34.558594 7.574219 " clip-rule="nonzero"/></clipPath><clipPath id="936d07dcd6"><path d="M 33.136719 7.398438 L 40.664062 7.398438 L 40.664062 15.761719 L 33.136719 15.761719 Z M 33.136719 7.398438 " clip-rule="nonzero"/></clipPath><clipPath id="12db02a228"><path d="M 40.925781 9.582031 L 40.925781 13.265625 C 40.925781 13.84375 40.695312 14.398438 40.285156 14.808594 C 39.875 15.21875 39.320312 15.449219 38.742188 15.449219 L 35.316406 15.449219 C 34.738281 15.449219 34.183594 15.21875 33.773438 14.808594 C 33.367188 14.398438 33.136719 13.84375 33.136719 13.265625 L 33.136719 9.582031 C 33.136719 9.003906 33.367188 8.445312 33.773438 8.039062 C 34.183594 7.628906 34.738281 7.398438 35.316406 7.398438 L 38.742188 7.398438 C 39.320312 7.398438 39.875 7.628906 40.285156 8.039062 C 40.695312 8.445312 40.925781 9.003906 40.925781 9.582031 Z M 40.925781 9.582031 " clip-rule="nonzero"/></clipPath><clipPath id="918b538ddc"><path d="M 1 1 L 80.855469 1 L 80.855469 6 L 1 6 Z M 1 1 " clip-rule="nonzero"/></clipPath><clipPath id="b25bc3385e"><path d="M 0.421875 0.164062 L 3 0.164062 L 3 4 L 0.421875 4 Z M 0.421875 0.164062 " clip-rule="nonzero"/></clipPath><clipPath id="3faae2c9cc"><path d="M 4 0.164062 L 5 0.164062 L 5 4 L 4 4 Z M 4 0.164062 " clip-rule="nonzero"/></clipPath><clipPath id="4e5f9bc89d"><path d="M 6 0.164062 L 9 0.164062 L 9 4 L 6 4 Z M 6 0.164062 " clip-rule="nonzero"/></clipPath><clipPath id="a81727def7"><path d="M 9 0.164062 L 13 0.164062 L 13 4 L 9 4 Z M 9 0.164062 " clip-rule="nonzero"/></clipPath><clipPath id="26d4d419c4"><path d="M 15 0.164062 L 18 0.164062 L 18 4 L 15 4 Z M 15 0.164062 " clip-rule="nonzero"/></clipPath><clipPath id="73861ed092"><path d="M 19 0.164062 L 22 0.164062 L 22 4 L 19 4 Z M 19 0.164062 " clip-rule="nonzero"/></clipPath><clipPath id="11d89ebd26"><path d="M 22 0.164062 L 26 0.164062 L 26 4 L 22 4 Z M 22 0.164062 " clip-rule="nonzero"/></clipPath><clipPath id="d205df9d70"><path d="M 26 0.164062 L 29 0.164062 L 29 4 L 26 4 Z M 26 0.164062 " clip-rule="nonzero"/></clipPath><clipPath id="6810199651"><path d="M 29 0.164062 L 33 0.164062 L 33 4 L 29 4 Z M 29 0.164062 " clip-rule="nonzero"/></clipPath><clipPath id="49dac48595"><path d="M 33 0.164062 L 36 0.164062 L 36 4 L 33 4 Z M 33 0.164062 " clip-rule="nonzero"/></clipPath><clipPath id="7c10ed633a"><path d="M 38 0.164062 L 42 0.164062 L 42 4 L 38 4 Z M 38 0.164062 " clip-rule="nonzero"/></clipPath><clipPath id="f19b9bc1e7"><path d="M 42 0.164062 L 45 0.164062 L 45 4 L 42 4 Z M 42 0.164062 " clip-rule="nonzero"/></clipPath><clipPath id="f7b01f30a0"><path d="M 45 0.164062 L 49 0.164062 L 49 4 L 45 4 Z M 45 0.164062 " clip-rule="nonzero"/></clipPath><clipPath id="67973882ff"><path d="M 49 0.164062 L 52 0.164062 L 52 4 L 49 4 Z M 49 0.164062 " clip-rule="nonzero"/></clipPath><clipPath id="ca747f2d93"><path d="M 52 0.164062 L 55 0.164062 L 55 4 L 52 4 Z M 52 0.164062 " clip-rule="nonzero"/></clipPath><clipPath id="3c46d58eac"><path d="M 58 0.164062 L 61 0.164062 L 61 4 L 58 4 Z M 58 0.164062 " clip-rule="nonzero"/></clipPath><clipPath id="c49b36aba3"><path d="M 61 0.164062 L 65 0.164062 L 65 4 L 61 4 Z M 61 0.164062 " clip-rule="nonzero"/></clipPath><clipPath id="4d9fc781a7"><path d="M 65 0.164062 L 68 0.164062 L 68 4 L 65 4 Z M 65 0.164062 " clip-rule="nonzero"/></clipPath><clipPath id="9395e67538"><path d="M 69 0.164062 L 70 0.164062 L 70 4 L 69 4 Z M 69 0.164062 " clip-rule="nonzero"/></clipPath><clipPath id="e45c0c5d18"><path d="M 70 0.164062 L 74 0.164062 L 74 4 L 70 4 Z M 70 0.164062 " clip-rule="nonzero"/></clipPath><clipPath id="a73aff31d2"><path d="M 74 0.164062 L 76 0.164062 L 76 4 L 74 4 Z M 74 0.164062 " clip-rule="nonzero"/></clipPath><clipPath id="f46137062d"><path d="M 76 0.164062 L 79 0.164062 L 79 4 L 76 4 Z M 76 0.164062 " clip-rule="nonzero"/></clipPath><clipPath id="e1b1647617"><rect x="0" width="80" y="0" height="5"/></clipPath><clipPath id="124bc5a41f"><rect x="0" width="81" y="0" height="17"/></clipPath></defs><g clip-path="url(#7c3aa8bb3d)"><g transform="matrix(1, 0, 0, 1, 1, 0)"><g clip-path="url(#124bc5a41f)"><g clip-path="url(#9b36a16fde)"><path fill="#113456" d="M 49.988281 11.003906 L 51.328125 11.003906 L 50.375 10.097656 L 50.902344 9.554688 L 51.808594 10.488281 L 51.808594 9.160156 L 52.597656 9.160156 L 52.597656 10.488281 L 53.503906 9.558594 L 54.03125 10.097656 L 53.078125 11.003906 L 54.417969 11.003906 L 54.417969 11.75 L 53.070312 11.75 L 54.03125 12.683594 L 53.503906 13.210938 L 52.203125 11.902344 L 50.902344 13.210938 L 50.375 12.683594 L 51.335938 11.753906 L 49.988281 11.753906 Z M 51.808594 12.824219 L 52.59375 12.824219 L 52.59375 14.601562 L 51.808594 14.601562 Z M 51.808594 12.824219 " fill-opacity="1" fill-rule="nonzero"/></g><g clip-path="url(#3ad7c29499)"><g clip-path="url(#68bb2c4729)"><path stroke-linecap="butt" transform="matrix(0.836348, 0, 0, 0.836348, 48.211823, 7.129304)" fill="none" stroke-linejoin="miter" d="M 9.615708 2.605719 L 9.615708 7.327697 C 9.615708 8.770912 8.448058 9.938563 7.009513 9.938563 L 2.609807 9.938563 C 1.166591 9.938563 -0.00105929 8.770912 -0.00105929 7.327697 L -0.00105929 2.605719 C -0.00105929 1.167174 1.166591 -0.000476085 2.609807 -0.000476085 L 7.009513 -0.000476085 C 8.448058 -0.000476085 9.615708 1.167174 9.615708 2.605719 Z M 9.615708 2.605719 " stroke="#113456" stroke-width="1.74076" stroke-opacity="1" stroke-miterlimit="4"/></g></g><g clip-path="url(#e5189b70b4)"><path fill="#113456" d="M 20.160156 7.429688 C 19.730469 7.449219 19.441406 7.519531 19.183594 7.617188 C 18.917969 7.722656 18.695312 7.859375 18.472656 8.082031 C 18.25 8.308594 18.113281 8.53125 18.007812 8.796875 C 17.910156 9.054688 17.84375 9.34375 17.824219 9.773438 C 17.804688 10.203125 17.800781 10.339844 17.804688 11.433594 C 17.804688 12.523438 17.808594 12.664062 17.832031 13.089844 C 17.851562 13.519531 17.917969 13.8125 18.019531 14.066406 C 18.121094 14.332031 18.261719 14.554688 18.484375 14.777344 C 18.707031 15.003906 18.933594 15.140625 19.199219 15.242188 C 19.453125 15.339844 19.746094 15.410156 20.175781 15.425781 C 20.605469 15.445312 20.742188 15.449219 21.832031 15.449219 C 22.925781 15.445312 23.0625 15.441406 23.492188 15.421875 C 23.921875 15.398438 24.210938 15.332031 24.46875 15.230469 C 24.734375 15.128906 24.957031 14.992188 25.179688 14.765625 C 25.402344 14.542969 25.539062 14.316406 25.644531 14.050781 C 25.742188 13.796875 25.808594 13.503906 25.828125 13.078125 C 25.847656 12.648438 25.851562 12.511719 25.847656 11.417969 C 25.847656 10.324219 25.84375 10.1875 25.820312 9.757812 C 25.800781 9.332031 25.734375 9.039062 25.632812 8.78125 C 25.53125 8.519531 25.390625 8.292969 25.167969 8.070312 C 24.945312 7.847656 24.71875 7.710938 24.453125 7.609375 C 24.199219 7.507812 23.90625 7.441406 23.476562 7.421875 C 23.046875 7.402344 22.910156 7.398438 21.820312 7.402344 C 20.726562 7.402344 20.589844 7.410156 20.160156 7.429688 M 20.207031 14.703125 C 19.816406 14.683594 19.601562 14.621094 19.460938 14.566406 C 19.273438 14.492188 19.136719 14.40625 18.996094 14.265625 C 18.855469 14.125 18.769531 13.992188 18.695312 13.804688 C 18.640625 13.660156 18.574219 13.449219 18.554688 13.054688 C 18.535156 12.632812 18.53125 12.503906 18.527344 11.429688 C 18.527344 10.355469 18.53125 10.230469 18.546875 9.804688 C 18.566406 9.414062 18.628906 9.199219 18.683594 9.058594 C 18.757812 8.871094 18.84375 8.738281 18.984375 8.59375 C 19.125 8.453125 19.261719 8.367188 19.449219 8.292969 C 19.589844 8.238281 19.800781 8.171875 20.195312 8.152344 C 20.617188 8.132812 20.746094 8.128906 21.820312 8.128906 C 22.894531 8.125 23.019531 8.128906 23.445312 8.148438 C 23.835938 8.164062 24.050781 8.230469 24.191406 8.285156 C 24.378906 8.355469 24.515625 8.445312 24.65625 8.585938 C 24.796875 8.726562 24.882812 8.859375 24.957031 9.046875 C 25.011719 9.1875 25.078125 9.402344 25.097656 9.792969 C 25.117188 10.21875 25.121094 10.34375 25.125 11.417969 C 25.125 12.492188 25.121094 12.621094 25.105469 13.042969 C 25.085938 13.4375 25.019531 13.648438 24.964844 13.792969 C 24.894531 13.980469 24.808594 14.113281 24.667969 14.253906 C 24.527344 14.394531 24.390625 14.480469 24.203125 14.554688 C 24.0625 14.609375 23.851562 14.675781 23.457031 14.695312 C 23.035156 14.714844 22.90625 14.71875 21.832031 14.722656 C 20.757812 14.722656 20.632812 14.71875 20.207031 14.703125 M 23.488281 9.273438 C 23.488281 9.539062 23.703125 9.757812 23.96875 9.757812 C 24.238281 9.753906 24.453125 9.539062 24.453125 9.273438 C 24.453125 9.007812 24.234375 8.789062 23.96875 8.789062 C 23.703125 8.789062 23.484375 9.007812 23.488281 9.273438 M 19.761719 11.429688 C 19.761719 12.570312 20.6875 13.492188 21.828125 13.492188 C 22.972656 13.488281 23.894531 12.5625 23.890625 11.421875 C 23.890625 10.28125 22.960938 9.355469 21.820312 9.359375 C 20.679688 9.359375 19.757812 10.289062 19.761719 11.429688 M 20.484375 11.425781 C 20.484375 10.6875 21.082031 10.085938 21.824219 10.082031 C 22.5625 10.082031 23.164062 10.679688 23.167969 11.421875 C 23.167969 12.164062 22.570312 12.765625 21.828125 12.765625 C 21.089844 12.765625 20.488281 12.167969 20.484375 11.425781 " fill-opacity="1" fill-rule="nonzero"/></g><g clip-path="url(#0eca5393c0)"><path fill="#113456" d="M 10.355469 14.542969 C 10.425781 14.542969 10.488281 14.484375 10.488281 14.410156 C 10.488281 14.410156 10.488281 14.40625 10.488281 14.402344 C 10.488281 14.304688 10.429688 14.257812 10.304688 14.257812 L 10.109375 14.257812 L 10.109375 14.773438 L 10.183594 14.773438 L 10.183594 14.546875 L 10.273438 14.546875 L 10.277344 14.550781 L 10.417969 14.773438 L 10.496094 14.773438 L 10.34375 14.542969 Z M 10.269531 14.488281 L 10.183594 14.488281 L 10.183594 14.316406 L 10.292969 14.316406 C 10.347656 14.316406 10.414062 14.324219 10.414062 14.398438 C 10.414062 14.484375 10.347656 14.488281 10.269531 14.488281 " fill-opacity="1" fill-rule="nonzero"/></g><g clip-path="url(#3112f6a8ef)"><path fill="#113456" d="M 8.417969 13.894531 L 7.367188 13.894531 L 7.367188 12.246094 C 7.367188 11.851562 7.359375 11.347656 6.820312 11.347656 C 6.277344 11.347656 6.1875 11.777344 6.1875 12.21875 L 6.1875 13.894531 L 5.132812 13.894531 L 5.132812 10.503906 L 6.144531 10.503906 L 6.144531 10.96875 L 6.160156 10.96875 C 6.363281 10.617188 6.746094 10.40625 7.15625 10.421875 C 8.222656 10.421875 8.417969 11.121094 8.417969 12.035156 Z M 3.945312 10.042969 C 3.609375 10.042969 3.335938 9.769531 3.335938 9.429688 C 3.335938 9.09375 3.609375 8.820312 3.945312 8.820312 C 4.285156 8.820312 4.558594 9.09375 4.558594 9.429688 C 4.558594 9.769531 4.285156 10.042969 3.945312 10.042969 M 4.472656 13.894531 L 3.421875 13.894531 L 3.421875 10.503906 L 4.472656 10.503906 Z M 8.941406 7.84375 L 2.890625 7.84375 C 2.605469 7.839844 2.371094 8.070312 2.367188 8.355469 L 2.367188 14.433594 C 2.371094 14.71875 2.605469 14.949219 2.890625 14.945312 L 8.945312 14.945312 C 9.230469 14.949219 9.464844 14.71875 9.46875 14.433594 L 9.46875 8.355469 C 9.464844 8.066406 9.230469 7.839844 8.941406 7.84375 " fill-opacity="1" fill-rule="nonzero"/></g><g clip-path="url(#f31582dee8)"><path fill="#113456" d="M 10.277344 14.027344 C 10.011719 14.027344 9.796875 14.25 9.796875 14.515625 C 9.800781 14.78125 10.019531 14.996094 10.289062 14.996094 C 10.554688 14.992188 10.769531 14.773438 10.765625 14.507812 C 10.765625 14.242188 10.550781 14.027344 10.289062 14.027344 L 10.277344 14.027344 M 10.277344 14.941406 C 10.042969 14.945312 9.851562 14.757812 9.847656 14.523438 C 9.84375 14.289062 10.03125 14.09375 10.261719 14.089844 C 10.5 14.085938 10.691406 14.273438 10.695312 14.507812 L 10.695312 14.515625 C 10.699219 14.746094 10.519531 14.933594 10.289062 14.941406 L 10.277344 14.941406 " fill-opacity="1" fill-rule="nonzero"/></g><g clip-path="url(#9ef5410783)"><g clip-path="url(#8c90e07a70)"><path stroke-linecap="butt" transform="matrix(0.836348, 0, 0, 0.836348, 1.532461, 7.263665)" fill="none" stroke-linejoin="miter" d="M 9.46586 1.739807 L 9.46586 8.040448 C 9.46586 9.002592 8.68587 9.782582 7.723726 9.782582 L 1.740686 9.782582 C 0.778542 9.782582 -0.00144824 9.002592 -0.00144824 8.040448 L -0.00144824 1.739807 C -0.00144824 0.777663 0.778542 -0.00232694 1.740686 -0.00232694 L 7.723726 -0.00232694 C 8.68587 -0.00232694 9.46586 0.777663 9.46586 1.739807 Z M 9.46586 1.739807 " stroke="#113456" stroke-width="2.61114" stroke-opacity="1" stroke-miterlimit="4"/></g></g><g clip-path="url(#f298e6bbd1)"><path fill="#113456" d="M 37.050781 15.726562 C 39.519531 15.726562 41.523438 13.722656 41.523438 11.25 C 41.523438 8.777344 39.519531 6.773438 37.050781 6.773438 C 34.578125 6.773438 32.574219 8.777344 32.574219 11.25 C 32.574219 13.722656 34.578125 15.726562 37.050781 15.726562 Z M 35.3125 9.625 C 34.953125 9.625 34.660156 9.914062 34.660156 10.273438 L 34.660156 12.226562 C 34.660156 12.585938 34.953125 12.878906 35.3125 12.878906 L 38.785156 12.878906 C 39.144531 12.878906 39.4375 12.585938 39.4375 12.226562 L 39.4375 10.273438 C 39.4375 9.914062 39.144531 9.625 38.785156 9.625 Z M 36.789062 10.417969 C 36.722656 10.375 36.636719 10.371094 36.566406 10.410156 C 36.496094 10.445312 36.453125 10.519531 36.453125 10.601562 L 36.453125 11.902344 C 36.453125 11.980469 36.496094 12.054688 36.566406 12.09375 C 36.636719 12.132812 36.722656 12.125 36.789062 12.082031 L 37.765625 11.429688 C 37.828125 11.390625 37.863281 11.324219 37.863281 11.25 C 37.863281 11.179688 37.828125 11.109375 37.765625 11.070312 Z M 36.789062 10.417969 " fill-opacity="1" fill-rule="evenodd"/></g><g clip-path="url(#936d07dcd6)"><g clip-path="url(#12db02a228)"><path stroke-linecap="butt" transform="matrix(0.836348, 0, 0, 0.836348, 33.135533, 7.39846)" fill="none" stroke-linejoin="miter" d="M 9.314596 2.610838 L 9.314596 7.015215 C 9.314596 7.706464 9.03903 8.369689 8.548617 8.860102 C 8.058204 9.350515 7.394979 9.626081 6.70373 9.626081 L 2.607613 9.626081 C 1.916364 9.626081 1.253139 9.350515 0.762726 8.860102 C 0.276983 8.369689 0.00141763 7.706464 0.00141763 7.015215 L 0.00141763 2.610838 C 0.00141763 1.919589 0.276983 1.251694 0.762726 0.765951 C 1.253139 0.275538 1.916364 -0.0000274757 2.607613 -0.0000274757 L 6.70373 -0.0000274757 C 7.394979 -0.0000274757 8.058204 0.275538 8.548617 0.765951 C 9.03903 1.251694 9.314596 1.919589 9.314596 2.610838 Z M 9.314596 2.610838 " stroke="#113456" stroke-width="3.481521" stroke-opacity="1" stroke-miterlimit="4"/></g></g><g clip-path="url(#918b538ddc)"><g transform="matrix(1, 0, 0, 1, 1, 1)"><g clip-path="url(#e1b1647617)"><g clip-path="url(#b25bc3385e)"><g fill="#113456" fill-opacity="1"><g transform="translate(0.530768, 3.120477)"><g><path d="M 1.25 -2.828125 C 1.570312 -2.828125 1.820312 -2.75 2 -2.59375 C 2.1875 -2.445312 2.285156 -2.242188 2.296875 -1.984375 L 1.9375 -1.96875 C 1.925781 -2.144531 1.863281 -2.273438 1.75 -2.359375 C 1.644531 -2.441406 1.484375 -2.484375 1.265625 -2.484375 C 1.066406 -2.484375 0.910156 -2.445312 0.796875 -2.375 C 0.691406 -2.300781 0.640625 -2.203125 0.640625 -2.078125 C 0.640625 -1.992188 0.660156 -1.921875 0.703125 -1.859375 C 0.753906 -1.804688 0.828125 -1.769531 0.921875 -1.75 C 0.941406 -1.738281 1.015625 -1.710938 1.140625 -1.671875 C 1.273438 -1.628906 1.445312 -1.585938 1.65625 -1.546875 C 1.894531 -1.492188 2.070312 -1.394531 2.1875 -1.25 C 2.3125 -1.113281 2.375 -0.957031 2.375 -0.78125 C 2.375 -0.632812 2.332031 -0.492188 2.25 -0.359375 C 2.175781 -0.234375 2.0625 -0.132812 1.90625 -0.0625 C 1.75 0.0078125 1.566406 0.046875 1.359375 0.046875 C 1.109375 0.046875 0.894531 0.0078125 0.71875 -0.0625 C 0.550781 -0.144531 0.421875 -0.253906 0.328125 -0.390625 C 0.234375 -0.535156 0.179688 -0.703125 0.171875 -0.890625 L 0.515625 -0.921875 C 0.535156 -0.703125 0.625 -0.539062 0.78125 -0.4375 C 0.9375 -0.332031 1.125 -0.28125 1.34375 -0.28125 C 1.550781 -0.28125 1.71875 -0.320312 1.84375 -0.40625 C 1.96875 -0.5 2.03125 -0.617188 2.03125 -0.765625 C 2.03125 -0.972656 1.863281 -1.117188 1.53125 -1.203125 L 1.328125 -1.25 C 1.191406 -1.28125 1.035156 -1.320312 0.859375 -1.375 C 0.679688 -1.425781 0.539062 -1.515625 0.4375 -1.640625 C 0.332031 -1.765625 0.28125 -1.90625 0.28125 -2.0625 C 0.28125 -2.207031 0.316406 -2.335938 0.390625 -2.453125 C 0.472656 -2.566406 0.585938 -2.65625 0.734375 -2.71875 C 0.878906 -2.789062 1.050781 -2.828125 1.25 -2.828125 Z M 1.25 -2.828125 "/></g></g></g></g><g clip-path="url(#3faae2c9cc)"><g fill="#113456" fill-opacity="1"><g transform="translate(3.97444, 3.120477)"><g><path d="M 0.71875 0 L 0.359375 0 L 0.359375 -2.78125 L 0.71875 -2.78125 Z M 0.71875 0 "/></g></g></g></g><g clip-path="url(#4e5f9bc89d)"><g fill="#113456" fill-opacity="1"><g transform="translate(5.907864, 3.120477)"><g><path d="M 1.59375 -2.828125 C 2.207031 -2.828125 2.582031 -2.550781 2.71875 -2 L 2.390625 -1.90625 C 2.390625 -1.914062 2.378906 -1.941406 2.359375 -1.984375 C 2.347656 -2.035156 2.328125 -2.085938 2.296875 -2.140625 C 2.273438 -2.203125 2.242188 -2.25 2.203125 -2.28125 C 2.046875 -2.425781 1.84375 -2.5 1.59375 -2.5 C 1.269531 -2.5 1.019531 -2.398438 0.84375 -2.203125 C 0.664062 -2.015625 0.578125 -1.742188 0.578125 -1.390625 C 0.578125 -1.023438 0.671875 -0.75 0.859375 -0.5625 C 1.046875 -0.375 1.304688 -0.28125 1.640625 -0.28125 C 1.773438 -0.28125 1.914062 -0.3125 2.0625 -0.375 C 2.21875 -0.4375 2.335938 -0.5 2.421875 -0.5625 L 2.421875 -1.09375 L 1.59375 -1.09375 L 1.59375 -1.421875 L 2.765625 -1.421875 L 2.765625 -0.390625 C 2.578125 -0.242188 2.390625 -0.132812 2.203125 -0.0625 C 2.023438 0.0078125 1.828125 0.046875 1.609375 0.046875 C 1.335938 0.046875 1.09375 -0.0078125 0.875 -0.125 C 0.65625 -0.25 0.488281 -0.414062 0.375 -0.625 C 0.257812 -0.84375 0.203125 -1.09375 0.203125 -1.375 C 0.203125 -1.65625 0.253906 -1.90625 0.359375 -2.125 C 0.472656 -2.34375 0.632812 -2.515625 0.84375 -2.640625 C 1.050781 -2.765625 1.300781 -2.828125 1.59375 -2.828125 Z M 1.59375 -2.828125 "/></g></g></g></g><g clip-path="url(#a81727def7)"><g fill="#113456" fill-opacity="1"><g transform="translate(9.782478, 3.120477)"><g><path d="M 2.59375 0 L 2.171875 0 L 1.84375 -0.84375 L 0.6875 -0.84375 L 0.390625 0 L 0 0 L 1.0625 -2.78125 L 1.453125 -2.78125 Z M 1.09375 -1.953125 L 0.796875 -1.140625 L 1.734375 -1.140625 L 1.390625 -2.046875 C 1.347656 -2.160156 1.300781 -2.304688 1.25 -2.484375 C 1.25 -2.472656 1.234375 -2.40625 1.203125 -2.28125 C 1.171875 -2.164062 1.132812 -2.054688 1.09375 -1.953125 Z M 1.09375 -1.953125 "/></g></g></g></g><g fill="#113456" fill-opacity="1"><g transform="translate(13.22615, 3.120477)"><g/></g></g><g clip-path="url(#26d4d419c4)"><g fill="#113456" fill-opacity="1"><g transform="translate(15.159574, 3.120477)"><g><path d="M 2.140625 -0.59375 L 2.140625 -2.78125 L 2.484375 -2.78125 L 2.484375 0 L 2.109375 0 L 0.65625 -2.171875 L 0.65625 0 L 0.3125 0 L 0.3125 -2.78125 L 0.6875 -2.78125 Z M 2.140625 -0.59375 "/></g></g></g></g><g clip-path="url(#73861ed092)"><g fill="#113456" fill-opacity="1"><g transform="translate(18.816777, 3.120477)"><g><path d="M 1.453125 -2.828125 C 1.734375 -2.828125 1.976562 -2.765625 2.1875 -2.640625 C 2.394531 -2.523438 2.554688 -2.359375 2.671875 -2.140625 C 2.785156 -1.921875 2.84375 -1.671875 2.84375 -1.390625 C 2.84375 -1.097656 2.78125 -0.84375 2.65625 -0.625 C 2.539062 -0.414062 2.382812 -0.25 2.1875 -0.125 C 1.988281 -0.0078125 1.769531 0.046875 1.53125 0.046875 C 1.257812 0.046875 1.019531 -0.015625 0.8125 -0.140625 C 0.613281 -0.265625 0.457031 -0.429688 0.34375 -0.640625 C 0.238281 -0.859375 0.1875 -1.097656 0.1875 -1.359375 C 0.1875 -1.648438 0.238281 -1.90625 0.34375 -2.125 C 0.457031 -2.34375 0.609375 -2.515625 0.796875 -2.640625 C 0.992188 -2.765625 1.210938 -2.828125 1.453125 -2.828125 Z M 0.5625 -1.34375 C 0.5625 -1.125 0.597656 -0.929688 0.671875 -0.765625 C 0.753906 -0.609375 0.867188 -0.484375 1.015625 -0.390625 C 1.160156 -0.304688 1.320312 -0.265625 1.5 -0.265625 C 1.695312 -0.265625 1.863281 -0.304688 2 -0.390625 C 2.144531 -0.484375 2.253906 -0.613281 2.328125 -0.78125 C 2.410156 -0.945312 2.453125 -1.148438 2.453125 -1.390625 C 2.453125 -1.609375 2.410156 -1.800781 2.328125 -1.96875 C 2.253906 -2.144531 2.144531 -2.273438 2 -2.359375 C 1.863281 -2.453125 1.703125 -2.5 1.515625 -2.5 C 1.210938 -2.5 0.976562 -2.394531 0.8125 -2.1875 C 0.644531 -1.988281 0.5625 -1.707031 0.5625 -1.34375 Z M 0.5625 -1.34375 "/></g></g></g></g><g clip-path="url(#11d89ebd26)"><g fill="#113456" fill-opacity="1"><g transform="translate(22.691391, 3.120477)"><g><path d="M 1.25 -2.828125 C 1.570312 -2.828125 1.820312 -2.75 2 -2.59375 C 2.1875 -2.445312 2.285156 -2.242188 2.296875 -1.984375 L 1.9375 -1.96875 C 1.925781 -2.144531 1.863281 -2.273438 1.75 -2.359375 C 1.644531 -2.441406 1.484375 -2.484375 1.265625 -2.484375 C 1.066406 -2.484375 0.910156 -2.445312 0.796875 -2.375 C 0.691406 -2.300781 0.640625 -2.203125 0.640625 -2.078125 C 0.640625 -1.992188 0.660156 -1.921875 0.703125 -1.859375 C 0.753906 -1.804688 0.828125 -1.769531 0.921875 -1.75 C 0.941406 -1.738281 1.015625 -1.710938 1.140625 -1.671875 C 1.273438 -1.628906 1.445312 -1.585938 1.65625 -1.546875 C 1.894531 -1.492188 2.070312 -1.394531 2.1875 -1.25 C 2.3125 -1.113281 2.375 -0.957031 2.375 -0.78125 C 2.375 -0.632812 2.332031 -0.492188 2.25 -0.359375 C 2.175781 -0.234375 2.0625 -0.132812 1.90625 -0.0625 C 1.75 0.0078125 1.566406 0.046875 1.359375 0.046875 C 1.109375 0.046875 0.894531 0.0078125 0.71875 -0.0625 C 0.550781 -0.144531 0.421875 -0.253906 0.328125 -0.390625 C 0.234375 -0.535156 0.179688 -0.703125 0.171875 -0.890625 L 0.515625 -0.921875 C 0.535156 -0.703125 0.625 -0.539062 0.78125 -0.4375 C 0.9375 -0.332031 1.125 -0.28125 1.34375 -0.28125 C 1.550781 -0.28125 1.71875 -0.320312 1.84375 -0.40625 C 1.96875 -0.5 2.03125 -0.617188 2.03125 -0.765625 C 2.03125 -0.972656 1.863281 -1.117188 1.53125 -1.203125 L 1.328125 -1.25 C 1.191406 -1.28125 1.035156 -1.320312 0.859375 -1.375 C 0.679688 -1.425781 0.539062 -1.515625 0.4375 -1.640625 C 0.332031 -1.765625 0.28125 -1.90625 0.28125 -2.0625 C 0.28125 -2.207031 0.316406 -2.335938 0.390625 -2.453125 C 0.472656 -2.566406 0.585938 -2.65625 0.734375 -2.71875 C 0.878906 -2.789062 1.050781 -2.828125 1.25 -2.828125 Z M 1.25 -2.828125 "/></g></g></g></g><g clip-path="url(#d205df9d70)"><g fill="#113456" fill-opacity="1"><g transform="translate(26.135062, 3.120477)"><g><path d="M 1.25 -2.828125 C 1.570312 -2.828125 1.820312 -2.75 2 -2.59375 C 2.1875 -2.445312 2.285156 -2.242188 2.296875 -1.984375 L 1.9375 -1.96875 C 1.925781 -2.144531 1.863281 -2.273438 1.75 -2.359375 C 1.644531 -2.441406 1.484375 -2.484375 1.265625 -2.484375 C 1.066406 -2.484375 0.910156 -2.445312 0.796875 -2.375 C 0.691406 -2.300781 0.640625 -2.203125 0.640625 -2.078125 C 0.640625 -1.992188 0.660156 -1.921875 0.703125 -1.859375 C 0.753906 -1.804688 0.828125 -1.769531 0.921875 -1.75 C 0.941406 -1.738281 1.015625 -1.710938 1.140625 -1.671875 C 1.273438 -1.628906 1.445312 -1.585938 1.65625 -1.546875 C 1.894531 -1.492188 2.070312 -1.394531 2.1875 -1.25 C 2.3125 -1.113281 2.375 -0.957031 2.375 -0.78125 C 2.375 -0.632812 2.332031 -0.492188 2.25 -0.359375 C 2.175781 -0.234375 2.0625 -0.132812 1.90625 -0.0625 C 1.75 0.0078125 1.566406 0.046875 1.359375 0.046875 C 1.109375 0.046875 0.894531 0.0078125 0.71875 -0.0625 C 0.550781 -0.144531 0.421875 -0.253906 0.328125 -0.390625 C 0.234375 -0.535156 0.179688 -0.703125 0.171875 -0.890625 L 0.515625 -0.921875 C 0.535156 -0.703125 0.625 -0.539062 0.78125 -0.4375 C 0.9375 -0.332031 1.125 -0.28125 1.34375 -0.28125 C 1.550781 -0.28125 1.71875 -0.320312 1.84375 -0.40625 C 1.96875 -0.5 2.03125 -0.617188 2.03125 -0.765625 C 2.03125 -0.972656 1.863281 -1.117188 1.53125 -1.203125 L 1.328125 -1.25 C 1.191406 -1.28125 1.035156 -1.320312 0.859375 -1.375 C 0.679688 -1.425781 0.539062 -1.515625 0.4375 -1.640625 C 0.332031 -1.765625 0.28125 -1.90625 0.28125 -2.0625 C 0.28125 -2.207031 0.316406 -2.335938 0.390625 -2.453125 C 0.472656 -2.566406 0.585938 -2.65625 0.734375 -2.71875 C 0.878906 -2.789062 1.050781 -2.828125 1.25 -2.828125 Z M 1.25 -2.828125 "/></g></g></g></g><g clip-path="url(#6810199651)"><g fill="#113456" fill-opacity="1"><g transform="translate(29.578734, 3.120477)"><g><path d="M 2.59375 0 L 2.171875 0 L 1.84375 -0.84375 L 0.6875 -0.84375 L 0.390625 0 L 0 0 L 1.0625 -2.78125 L 1.453125 -2.78125 Z M 1.09375 -1.953125 L 0.796875 -1.140625 L 1.734375 -1.140625 L 1.390625 -2.046875 C 1.347656 -2.160156 1.300781 -2.304688 1.25 -2.484375 C 1.25 -2.472656 1.234375 -2.40625 1.203125 -2.28125 C 1.171875 -2.164062 1.132812 -2.054688 1.09375 -1.953125 Z M 1.09375 -1.953125 "/></g></g></g></g><g clip-path="url(#49dac48595)"><g fill="#113456" fill-opacity="1"><g transform="translate(33.022406, 3.120477)"><g><path d="M 1.25 -2.828125 C 1.570312 -2.828125 1.820312 -2.75 2 -2.59375 C 2.1875 -2.445312 2.285156 -2.242188 2.296875 -1.984375 L 1.9375 -1.96875 C 1.925781 -2.144531 1.863281 -2.273438 1.75 -2.359375 C 1.644531 -2.441406 1.484375 -2.484375 1.265625 -2.484375 C 1.066406 -2.484375 0.910156 -2.445312 0.796875 -2.375 C 0.691406 -2.300781 0.640625 -2.203125 0.640625 -2.078125 C 0.640625 -1.992188 0.660156 -1.921875 0.703125 -1.859375 C 0.753906 -1.804688 0.828125 -1.769531 0.921875 -1.75 C 0.941406 -1.738281 1.015625 -1.710938 1.140625 -1.671875 C 1.273438 -1.628906 1.445312 -1.585938 1.65625 -1.546875 C 1.894531 -1.492188 2.070312 -1.394531 2.1875 -1.25 C 2.3125 -1.113281 2.375 -0.957031 2.375 -0.78125 C 2.375 -0.632812 2.332031 -0.492188 2.25 -0.359375 C 2.175781 -0.234375 2.0625 -0.132812 1.90625 -0.0625 C 1.75 0.0078125 1.566406 0.046875 1.359375 0.046875 C 1.109375 0.046875 0.894531 0.0078125 0.71875 -0.0625 C 0.550781 -0.144531 0.421875 -0.253906 0.328125 -0.390625 C 0.234375 -0.535156 0.179688 -0.703125 0.171875 -0.890625 L 0.515625 -0.921875 C 0.535156 -0.703125 0.625 -0.539062 0.78125 -0.4375 C 0.9375 -0.332031 1.125 -0.28125 1.34375 -0.28125 C 1.550781 -0.28125 1.71875 -0.320312 1.84375 -0.40625 C 1.96875 -0.5 2.03125 -0.617188 2.03125 -0.765625 C 2.03125 -0.972656 1.863281 -1.117188 1.53125 -1.203125 L 1.328125 -1.25 C 1.191406 -1.28125 1.035156 -1.320312 0.859375 -1.375 C 0.679688 -1.425781 0.539062 -1.515625 0.4375 -1.640625 C 0.332031 -1.765625 0.28125 -1.90625 0.28125 -2.0625 C 0.28125 -2.207031 0.316406 -2.335938 0.390625 -2.453125 C 0.472656 -2.566406 0.585938 -2.65625 0.734375 -2.71875 C 0.878906 -2.789062 1.050781 -2.828125 1.25 -2.828125 Z M 1.25 -2.828125 "/></g></g></g></g><g fill="#113456" fill-opacity="1"><g transform="translate(36.466077, 3.120477)"><g/></g></g><g clip-path="url(#7c10ed633a)"><g fill="#113456" fill-opacity="1"><g transform="translate(38.399502, 3.120477)"><g><path d="M 2.25 -2.609375 C 2.351562 -2.535156 2.425781 -2.445312 2.46875 -2.34375 C 2.507812 -2.238281 2.53125 -2.128906 2.53125 -2.015625 C 2.53125 -1.816406 2.460938 -1.648438 2.328125 -1.515625 C 2.203125 -1.390625 2.007812 -1.304688 1.75 -1.265625 C 1.851562 -1.210938 1.941406 -1.144531 2.015625 -1.0625 C 2.097656 -0.988281 2.1875 -0.882812 2.28125 -0.75 L 2.75 0 L 2.296875 0 L 1.9375 -0.5625 C 1.8125 -0.75 1.710938 -0.882812 1.640625 -0.96875 C 1.566406 -1.0625 1.488281 -1.128906 1.40625 -1.171875 C 1.332031 -1.210938 1.238281 -1.234375 1.125 -1.234375 L 0.671875 -1.234375 L 0.671875 0 L 0.3125 0 L 0.3125 -2.78125 L 1.578125 -2.78125 C 1.742188 -2.78125 1.878906 -2.765625 1.984375 -2.734375 C 2.085938 -2.710938 2.175781 -2.671875 2.25 -2.609375 Z M 1.984375 -1.671875 C 2.046875 -1.710938 2.085938 -1.765625 2.109375 -1.828125 C 2.140625 -1.890625 2.15625 -1.953125 2.15625 -2.015625 C 2.15625 -2.179688 2.09375 -2.296875 1.96875 -2.359375 C 1.851562 -2.429688 1.71875 -2.46875 1.5625 -2.46875 L 0.671875 -2.46875 L 0.671875 -1.546875 L 1.5 -1.546875 C 1.632812 -1.546875 1.734375 -1.554688 1.796875 -1.578125 C 1.867188 -1.597656 1.929688 -1.628906 1.984375 -1.671875 Z M 1.984375 -1.671875 "/></g></g></g></g><g clip-path="url(#f19b9bc1e7)"><g fill="#113456" fill-opacity="1"><g transform="translate(42.056704, 3.120477)"><g><path d="M 2.3125 -2.453125 L 0.671875 -2.453125 L 0.671875 -1.59375 L 2.203125 -1.59375 L 2.203125 -1.265625 L 0.671875 -1.265625 L 0.671875 -0.328125 L 2.375 -0.328125 L 2.375 0 L 0.3125 0 L 0.3125 -2.78125 L 2.3125 -2.78125 Z M 2.3125 -2.453125 "/></g></g></g></g><g clip-path="url(#f7b01f30a0)"><g fill="#113456" fill-opacity="1"><g transform="translate(45.500376, 3.120477)"><g><path d="M 2.03125 -2.625 C 2.21875 -2.519531 2.359375 -2.359375 2.453125 -2.140625 C 2.554688 -1.929688 2.609375 -1.6875 2.609375 -1.40625 C 2.609375 -1.164062 2.570312 -0.941406 2.5 -0.734375 C 2.425781 -0.535156 2.320312 -0.378906 2.1875 -0.265625 C 2.070312 -0.171875 1.953125 -0.101562 1.828125 -0.0625 C 1.703125 -0.0195312 1.539062 0 1.34375 0 L 0.3125 0 L 0.3125 -2.78125 L 1.3125 -2.78125 C 1.476562 -2.78125 1.613281 -2.769531 1.71875 -2.75 C 1.832031 -2.726562 1.9375 -2.6875 2.03125 -2.625 Z M 2.21875 -1.40625 C 2.21875 -1.6875 2.171875 -1.90625 2.078125 -2.0625 C 1.992188 -2.21875 1.890625 -2.320312 1.765625 -2.375 C 1.648438 -2.425781 1.503906 -2.453125 1.328125 -2.453125 L 0.671875 -2.453125 L 0.671875 -0.328125 L 1.28125 -0.328125 C 1.46875 -0.328125 1.617188 -0.347656 1.734375 -0.390625 C 1.859375 -0.429688 1.96875 -0.53125 2.0625 -0.6875 C 2.164062 -0.851562 2.21875 -1.09375 2.21875 -1.40625 Z M 2.21875 -1.40625 "/></g></g></g></g><g clip-path="url(#67973882ff)"><g fill="#113456" fill-opacity="1"><g transform="translate(49.157579, 3.120477)"><g><path d="M 2.3125 -2.453125 L 0.671875 -2.453125 L 0.671875 -1.59375 L 2.203125 -1.59375 L 2.203125 -1.265625 L 0.671875 -1.265625 L 0.671875 -0.328125 L 2.375 -0.328125 L 2.375 0 L 0.3125 0 L 0.3125 -2.78125 L 2.3125 -2.78125 Z M 2.3125 -2.453125 "/></g></g></g></g><g clip-path="url(#ca747f2d93)"><g fill="#113456" fill-opacity="1"><g transform="translate(52.60125, 3.120477)"><g><path d="M 1.25 -2.828125 C 1.570312 -2.828125 1.820312 -2.75 2 -2.59375 C 2.1875 -2.445312 2.285156 -2.242188 2.296875 -1.984375 L 1.9375 -1.96875 C 1.925781 -2.144531 1.863281 -2.273438 1.75 -2.359375 C 1.644531 -2.441406 1.484375 -2.484375 1.265625 -2.484375 C 1.066406 -2.484375 0.910156 -2.445312 0.796875 -2.375 C 0.691406 -2.300781 0.640625 -2.203125 0.640625 -2.078125 C 0.640625 -1.992188 0.660156 -1.921875 0.703125 -1.859375 C 0.753906 -1.804688 0.828125 -1.769531 0.921875 -1.75 C 0.941406 -1.738281 1.015625 -1.710938 1.140625 -1.671875 C 1.273438 -1.628906 1.445312 -1.585938 1.65625 -1.546875 C 1.894531 -1.492188 2.070312 -1.394531 2.1875 -1.25 C 2.3125 -1.113281 2.375 -0.957031 2.375 -0.78125 C 2.375 -0.632812 2.332031 -0.492188 2.25 -0.359375 C 2.175781 -0.234375 2.0625 -0.132812 1.90625 -0.0625 C 1.75 0.0078125 1.566406 0.046875 1.359375 0.046875 C 1.109375 0.046875 0.894531 0.0078125 0.71875 -0.0625 C 0.550781 -0.144531 0.421875 -0.253906 0.328125 -0.390625 C 0.234375 -0.535156 0.179688 -0.703125 0.171875 -0.890625 L 0.515625 -0.921875 C 0.535156 -0.703125 0.625 -0.539062 0.78125 -0.4375 C 0.9375 -0.332031 1.125 -0.28125 1.34375 -0.28125 C 1.550781 -0.28125 1.71875 -0.320312 1.84375 -0.40625 C 1.96875 -0.5 2.03125 -0.617188 2.03125 -0.765625 C 2.03125 -0.972656 1.863281 -1.117188 1.53125 -1.203125 L 1.328125 -1.25 C 1.191406 -1.28125 1.035156 -1.320312 0.859375 -1.375 C 0.679688 -1.425781 0.539062 -1.515625 0.4375 -1.640625 C 0.332031 -1.765625 0.28125 -1.90625 0.28125 -2.0625 C 0.28125 -2.207031 0.316406 -2.335938 0.390625 -2.453125 C 0.472656 -2.566406 0.585938 -2.65625 0.734375 -2.71875 C 0.878906 -2.789062 1.050781 -2.828125 1.25 -2.828125 Z M 1.25 -2.828125 "/></g></g></g></g><g fill="#113456" fill-opacity="1"><g transform="translate(56.044922, 3.120477)"><g/></g></g><g clip-path="url(#3c46d58eac)"><g fill="#113456" fill-opacity="1"><g transform="translate(57.978346, 3.120477)"><g><path d="M 1.25 -2.828125 C 1.570312 -2.828125 1.820312 -2.75 2 -2.59375 C 2.1875 -2.445312 2.285156 -2.242188 2.296875 -1.984375 L 1.9375 -1.96875 C 1.925781 -2.144531 1.863281 -2.273438 1.75 -2.359375 C 1.644531 -2.441406 1.484375 -2.484375 1.265625 -2.484375 C 1.066406 -2.484375 0.910156 -2.445312 0.796875 -2.375 C 0.691406 -2.300781 0.640625 -2.203125 0.640625 -2.078125 C 0.640625 -1.992188 0.660156 -1.921875 0.703125 -1.859375 C 0.753906 -1.804688 0.828125 -1.769531 0.921875 -1.75 C 0.941406 -1.738281 1.015625 -1.710938 1.140625 -1.671875 C 1.273438 -1.628906 1.445312 -1.585938 1.65625 -1.546875 C 1.894531 -1.492188 2.070312 -1.394531 2.1875 -1.25 C 2.3125 -1.113281 2.375 -0.957031 2.375 -0.78125 C 2.375 -0.632812 2.332031 -0.492188 2.25 -0.359375 C 2.175781 -0.234375 2.0625 -0.132812 1.90625 -0.0625 C 1.75 0.0078125 1.566406 0.046875 1.359375 0.046875 C 1.109375 0.046875 0.894531 0.0078125 0.71875 -0.0625 C 0.550781 -0.144531 0.421875 -0.253906 0.328125 -0.390625 C 0.234375 -0.535156 0.179688 -0.703125 0.171875 -0.890625 L 0.515625 -0.921875 C 0.535156 -0.703125 0.625 -0.539062 0.78125 -0.4375 C 0.9375 -0.332031 1.125 -0.28125 1.34375 -0.28125 C 1.550781 -0.28125 1.71875 -0.320312 1.84375 -0.40625 C 1.96875 -0.5 2.03125 -0.617188 2.03125 -0.765625 C 2.03125 -0.972656 1.863281 -1.117188 1.53125 -1.203125 L 1.328125 -1.25 C 1.191406 -1.28125 1.035156 -1.320312 0.859375 -1.375 C 0.679688 -1.425781 0.539062 -1.515625 0.4375 -1.640625 C 0.332031 -1.765625 0.28125 -1.90625 0.28125 -2.0625 C 0.28125 -2.207031 0.316406 -2.335938 0.390625 -2.453125 C 0.472656 -2.566406 0.585938 -2.65625 0.734375 -2.71875 C 0.878906 -2.789062 1.050781 -2.828125 1.25 -2.828125 Z M 1.25 -2.828125 "/></g></g></g></g><g clip-path="url(#c49b36aba3)"><g fill="#113456" fill-opacity="1"><g transform="translate(61.422018, 3.120477)"><g><path d="M 1.453125 -2.828125 C 1.734375 -2.828125 1.976562 -2.765625 2.1875 -2.640625 C 2.394531 -2.523438 2.554688 -2.359375 2.671875 -2.140625 C 2.785156 -1.921875 2.84375 -1.671875 2.84375 -1.390625 C 2.84375 -1.097656 2.78125 -0.84375 2.65625 -0.625 C 2.539062 -0.414062 2.382812 -0.25 2.1875 -0.125 C 1.988281 -0.0078125 1.769531 0.046875 1.53125 0.046875 C 1.257812 0.046875 1.019531 -0.015625 0.8125 -0.140625 C 0.613281 -0.265625 0.457031 -0.429688 0.34375 -0.640625 C 0.238281 -0.859375 0.1875 -1.097656 0.1875 -1.359375 C 0.1875 -1.648438 0.238281 -1.90625 0.34375 -2.125 C 0.457031 -2.34375 0.609375 -2.515625 0.796875 -2.640625 C 0.992188 -2.765625 1.210938 -2.828125 1.453125 -2.828125 Z M 0.5625 -1.34375 C 0.5625 -1.125 0.597656 -0.929688 0.671875 -0.765625 C 0.753906 -0.609375 0.867188 -0.484375 1.015625 -0.390625 C 1.160156 -0.304688 1.320312 -0.265625 1.5 -0.265625 C 1.695312 -0.265625 1.863281 -0.304688 2 -0.390625 C 2.144531 -0.484375 2.253906 -0.613281 2.328125 -0.78125 C 2.410156 -0.945312 2.453125 -1.148438 2.453125 -1.390625 C 2.453125 -1.609375 2.410156 -1.800781 2.328125 -1.96875 C 2.253906 -2.144531 2.144531 -2.273438 2 -2.359375 C 1.863281 -2.453125 1.703125 -2.5 1.515625 -2.5 C 1.210938 -2.5 0.976562 -2.394531 0.8125 -2.1875 C 0.644531 -1.988281 0.5625 -1.707031 0.5625 -1.34375 Z M 0.5625 -1.34375 "/></g></g></g></g><g clip-path="url(#4d9fc781a7)"><g fill="#113456" fill-opacity="1"><g transform="translate(65.296632, 3.120477)"><g><path d="M 1.5 -2.828125 C 1.789062 -2.828125 2.03125 -2.753906 2.21875 -2.609375 C 2.40625 -2.460938 2.535156 -2.265625 2.609375 -2.015625 L 2.234375 -1.921875 C 2.179688 -2.109375 2.09375 -2.25 1.96875 -2.34375 C 1.851562 -2.445312 1.695312 -2.5 1.5 -2.5 C 1.207031 -2.5 0.976562 -2.40625 0.8125 -2.21875 C 0.65625 -2.03125 0.578125 -1.757812 0.578125 -1.40625 C 0.578125 -1.039062 0.65625 -0.757812 0.8125 -0.5625 C 0.96875 -0.363281 1.191406 -0.265625 1.484375 -0.265625 C 1.679688 -0.265625 1.847656 -0.320312 1.984375 -0.4375 C 2.128906 -0.5625 2.226562 -0.738281 2.28125 -0.96875 L 2.65625 -0.875 C 2.570312 -0.582031 2.429688 -0.351562 2.234375 -0.1875 C 2.035156 -0.03125 1.785156 0.046875 1.484375 0.046875 C 1.285156 0.046875 1.113281 0.0195312 0.96875 -0.03125 C 0.820312 -0.0820312 0.695312 -0.164062 0.59375 -0.28125 C 0.457031 -0.425781 0.359375 -0.59375 0.296875 -0.78125 C 0.234375 -0.976562 0.203125 -1.1875 0.203125 -1.40625 C 0.203125 -1.695312 0.253906 -1.945312 0.359375 -2.15625 C 0.472656 -2.363281 0.628906 -2.523438 0.828125 -2.640625 C 1.023438 -2.765625 1.25 -2.828125 1.5 -2.828125 Z M 1.5 -2.828125 "/></g></g></g></g><g clip-path="url(#9395e67538)"><g fill="#113456" fill-opacity="1"><g transform="translate(68.953835, 3.120477)"><g><path d="M 0.71875 0 L 0.359375 0 L 0.359375 -2.78125 L 0.71875 -2.78125 Z M 0.71875 0 "/></g></g></g></g><g clip-path="url(#e45c0c5d18)"><g fill="#113456" fill-opacity="1"><g transform="translate(70.887259, 3.120477)"><g><path d="M 2.59375 0 L 2.171875 0 L 1.84375 -0.84375 L 0.6875 -0.84375 L 0.390625 0 L 0 0 L 1.0625 -2.78125 L 1.453125 -2.78125 Z M 1.09375 -1.953125 L 0.796875 -1.140625 L 1.734375 -1.140625 L 1.390625 -2.046875 C 1.347656 -2.160156 1.300781 -2.304688 1.25 -2.484375 C 1.25 -2.472656 1.234375 -2.40625 1.203125 -2.28125 C 1.171875 -2.164062 1.132812 -2.054688 1.09375 -1.953125 Z M 1.09375 -1.953125 "/></g></g></g></g><g clip-path="url(#a73aff31d2)"><g fill="#113456" fill-opacity="1"><g transform="translate(74.330931, 3.120477)"><g><path d="M 0.71875 0 L 0.359375 0 L 0.359375 -2.78125 L 0.71875 -2.78125 Z M 0.71875 0 "/></g></g></g></g><g clip-path="url(#f46137062d)"><g fill="#113456" fill-opacity="1"><g transform="translate(76.264355, 3.120477)"><g><path d="M 1.25 -2.828125 C 1.570312 -2.828125 1.820312 -2.75 2 -2.59375 C 2.1875 -2.445312 2.285156 -2.242188 2.296875 -1.984375 L 1.9375 -1.96875 C 1.925781 -2.144531 1.863281 -2.273438 1.75 -2.359375 C 1.644531 -2.441406 1.484375 -2.484375 1.265625 -2.484375 C 1.066406 -2.484375 0.910156 -2.445312 0.796875 -2.375 C 0.691406 -2.300781 0.640625 -2.203125 0.640625 -2.078125 C 0.640625 -1.992188 0.660156 -1.921875 0.703125 -1.859375 C 0.753906 -1.804688 0.828125 -1.769531 0.921875 -1.75 C 0.941406 -1.738281 1.015625 -1.710938 1.140625 -1.671875 C 1.273438 -1.628906 1.445312 -1.585938 1.65625 -1.546875 C 1.894531 -1.492188 2.070312 -1.394531 2.1875 -1.25 C 2.3125 -1.113281 2.375 -0.957031 2.375 -0.78125 C 2.375 -0.632812 2.332031 -0.492188 2.25 -0.359375 C 2.175781 -0.234375 2.0625 -0.132812 1.90625 -0.0625 C 1.75 0.0078125 1.566406 0.046875 1.359375 0.046875 C 1.109375 0.046875 0.894531 0.0078125 0.71875 -0.0625 C 0.550781 -0.144531 0.421875 -0.253906 0.328125 -0.390625 C 0.234375 -0.535156 0.179688 -0.703125 0.171875 -0.890625 L 0.515625 -0.921875 C 0.535156 -0.703125 0.625 -0.539062 0.78125 -0.4375 C 0.9375 -0.332031 1.125 -0.28125 1.34375 -0.28125 C 1.550781 -0.28125 1.71875 -0.320312 1.84375 -0.40625 C 1.96875 -0.5 2.03125 -0.617188 2.03125 -0.765625 C 2.03125 -0.972656 1.863281 -1.117188 1.53125 -1.203125 L 1.328125 -1.25 C 1.191406 -1.28125 1.035156 -1.320312 0.859375 -1.375 C 0.679688 -1.425781 0.539062 -1.515625 0.4375 -1.640625 C 0.332031 -1.765625 0.28125 -1.90625 0.28125 -2.0625 C 0.28125 -2.207031 0.316406 -2.335938 0.390625 -2.453125 C 0.472656 -2.566406 0.585938 -2.65625 0.734375 -2.71875 C 0.878906 -2.789062 1.050781 -2.828125 1.25 -2.828125 Z M 1.25 -2.828125 "/></g></g></g></g></g></g></g></g></g></g></svg>