<svg xmlns="http://www.w3.org/2000/svg" xmlns:xlink="http://www.w3.org/1999/xlink" width="162" zoomAndPan="magnify" viewBox="0 0 121.5 31.5" height="42" preserveAspectRatio="xMidYMid meet" version="1.0"><defs><g/><clipPath id="c28f04bb01"><path d="M 44 7 L 120.304688 7 L 120.304688 23 L 44 23 Z M 44 7 " clip-rule="nonzero"/></clipPath><clipPath id="cc72279dba"><path d="M 0.410156 4 L 7 4 L 7 13 L 0.410156 13 Z M 0.410156 4 " clip-rule="nonzero"/></clipPath><clipPath id="321fa0f2a4"><rect x="0" width="77" y="0" height="16"/></clipPath><clipPath id="c855bda54e"><path d="M 8 5 L 15.9375 5 L 15.9375 14 L 8 14 Z M 8 5 " clip-rule="nonzero"/></clipPath><clipPath id="2cef8f7acd"><rect x="0" width="16" y="0" height="16"/></clipPath><clipPath id="54db98442f"><rect x="0" width="38" y="0" height="21"/></clipPath><clipPath id="1e2bbd4996"><path d="M 0.136719 2 L 5 2 L 5 7 L 0.136719 7 Z M 0.136719 2 " clip-rule="nonzero"/></clipPath><clipPath id="5b05da607c"><path d="M 65 3 L 68.648438 3 L 68.648438 7 L 65 7 Z M 65 3 " clip-rule="nonzero"/></clipPath><clipPath id="b73bf56ec7"><rect x="0" width="69" y="0" height="9"/></clipPath></defs><g clip-path="url(#c28f04bb01)"><g transform="matrix(1, 0, 0, 1, 44, 7)"><g clip-path="url(#321fa0f2a4)"><g clip-path="url(#cc72279dba)"><g fill="#113456" fill-opacity="1"><g transform="translate(0.491305, 12.273204)"><g><path d="M 2.328125 -3.09375 L 2.328125 -1.140625 C 2.328125 -0.867188 2.351562 -0.671875 2.40625 -0.546875 C 2.46875 -0.421875 2.570312 -0.335938 2.71875 -0.296875 C 2.863281 -0.253906 3.097656 -0.226562 3.421875 -0.21875 L 3.421875 0 C 3.046875 -0.0195312 2.515625 -0.03125 1.828125 -0.03125 C 1.210938 -0.03125 0.753906 -0.0195312 0.453125 0 L 0.453125 -0.21875 C 0.710938 -0.226562 0.898438 -0.253906 1.015625 -0.296875 C 1.140625 -0.335938 1.222656 -0.421875 1.265625 -0.546875 C 1.304688 -0.671875 1.328125 -0.867188 1.328125 -1.140625 L 1.328125 -6.5 C 1.328125 -6.769531 1.304688 -6.96875 1.265625 -7.09375 C 1.222656 -7.21875 1.140625 -7.300781 1.015625 -7.34375 C 0.898438 -7.382812 0.710938 -7.410156 0.453125 -7.421875 L 0.453125 -7.640625 C 0.753906 -7.617188 1.191406 -7.609375 1.765625 -7.609375 L 2.9375 -7.625 C 3.070312 -7.632812 3.226562 -7.640625 3.40625 -7.640625 C 4.25 -7.640625 4.890625 -7.445312 5.328125 -7.0625 C 5.773438 -6.675781 6 -6.15625 6 -5.5 C 6 -5.101562 5.910156 -4.722656 5.734375 -4.359375 C 5.554688 -4.003906 5.253906 -3.703125 4.828125 -3.453125 C 4.410156 -3.210938 3.851562 -3.09375 3.15625 -3.09375 Z M 3.125 -7.421875 C 2.90625 -7.421875 2.738281 -7.394531 2.625 -7.34375 C 2.519531 -7.300781 2.441406 -7.210938 2.390625 -7.078125 C 2.347656 -6.953125 2.328125 -6.757812 2.328125 -6.5 L 2.328125 -3.296875 L 3.0625 -3.296875 C 3.757812 -3.296875 4.242188 -3.484375 4.515625 -3.859375 C 4.785156 -4.242188 4.921875 -4.753906 4.921875 -5.390625 C 4.921875 -6.085938 4.78125 -6.597656 4.5 -6.921875 C 4.226562 -7.253906 3.769531 -7.421875 3.125 -7.421875 Z M 3.125 -7.421875 "/></g></g></g></g><g fill="#113456" fill-opacity="1"><g transform="translate(7.186409, 12.273204)"><g><path d="M 3.671875 -5.71875 C 3.960938 -5.71875 4.195312 -5.632812 4.375 -5.46875 C 4.5625 -5.300781 4.65625 -5.097656 4.65625 -4.859375 C 4.65625 -4.671875 4.597656 -4.507812 4.484375 -4.375 C 4.367188 -4.238281 4.21875 -4.171875 4.03125 -4.171875 C 3.875 -4.171875 3.738281 -4.222656 3.625 -4.328125 C 3.519531 -4.429688 3.46875 -4.566406 3.46875 -4.734375 C 3.46875 -4.972656 3.585938 -5.171875 3.828125 -5.328125 C 3.773438 -5.398438 3.703125 -5.4375 3.609375 -5.4375 C 3.328125 -5.4375 3.070312 -5.320312 2.84375 -5.09375 C 2.613281 -4.875 2.429688 -4.609375 2.296875 -4.296875 C 2.171875 -3.984375 2.109375 -3.6875 2.109375 -3.40625 L 2.109375 -1.109375 C 2.109375 -0.773438 2.203125 -0.546875 2.390625 -0.421875 C 2.578125 -0.296875 2.863281 -0.234375 3.25 -0.234375 L 3.25 0 L 2.984375 -0.015625 C 2.253906 -0.0351562 1.789062 -0.046875 1.59375 -0.046875 C 1.40625 -0.046875 0.976562 -0.03125 0.3125 0 L 0.3125 -0.234375 C 0.613281 -0.234375 0.828125 -0.285156 0.953125 -0.390625 C 1.078125 -0.503906 1.140625 -0.707031 1.140625 -1 L 1.140625 -4.390625 C 1.140625 -4.710938 1.078125 -4.945312 0.953125 -5.09375 C 0.828125 -5.25 0.613281 -5.328125 0.3125 -5.328125 L 0.3125 -5.5625 C 0.539062 -5.539062 0.765625 -5.53125 0.984375 -5.53125 C 1.429688 -5.53125 1.804688 -5.578125 2.109375 -5.671875 L 2.109375 -4.328125 C 2.234375 -4.691406 2.4375 -5.015625 2.71875 -5.296875 C 3.007812 -5.578125 3.328125 -5.71875 3.671875 -5.71875 Z M 3.671875 -5.71875 "/></g></g></g><g fill="#113456" fill-opacity="1"><g transform="translate(12.369734, 12.273204)"><g><path d="M 2.953125 -5.71875 C 3.691406 -5.71875 4.285156 -5.472656 4.734375 -4.984375 C 5.179688 -4.492188 5.40625 -3.757812 5.40625 -2.78125 C 5.40625 -1.789062 5.179688 -1.050781 4.734375 -0.5625 C 4.285156 -0.0820312 3.691406 0.15625 2.953125 0.15625 C 2.222656 0.15625 1.628906 -0.0820312 1.171875 -0.5625 C 0.722656 -1.050781 0.5 -1.789062 0.5 -2.78125 C 0.5 -3.757812 0.722656 -4.492188 1.171875 -4.984375 C 1.628906 -5.472656 2.222656 -5.71875 2.953125 -5.71875 Z M 2.953125 -5.5 C 2.523438 -5.5 2.1875 -5.273438 1.9375 -4.828125 C 1.6875 -4.390625 1.5625 -3.707031 1.5625 -2.78125 C 1.5625 -1.84375 1.6875 -1.15625 1.9375 -0.71875 C 2.1875 -0.28125 2.523438 -0.0625 2.953125 -0.0625 C 3.390625 -0.0625 3.734375 -0.28125 3.984375 -0.71875 C 4.234375 -1.15625 4.359375 -1.84375 4.359375 -2.78125 C 4.359375 -3.707031 4.234375 -4.390625 3.984375 -4.828125 C 3.734375 -5.273438 3.390625 -5.5 2.953125 -5.5 Z M 2.953125 -5.5 "/></g></g></g><g fill="#113456" fill-opacity="1"><g transform="translate(18.665298, 12.273204)"><g><path d="M 3.75 -5.71875 C 4.132812 -5.71875 4.476562 -5.609375 4.78125 -5.390625 C 5.09375 -5.179688 5.332031 -4.875 5.5 -4.46875 C 5.675781 -4.070312 5.765625 -3.59375 5.765625 -3.03125 C 5.765625 -2.476562 5.675781 -1.957031 5.5 -1.46875 C 5.320312 -0.988281 5.046875 -0.597656 4.671875 -0.296875 C 4.304688 0.00390625 3.847656 0.15625 3.296875 0.15625 C 3.015625 0.15625 2.765625 0.101562 2.546875 0 C 2.328125 -0.113281 2.15625 -0.257812 2.03125 -0.4375 L 2.03125 0.953125 C 2.03125 1.242188 2.113281 1.445312 2.28125 1.5625 C 2.457031 1.675781 2.71875 1.734375 3.0625 1.734375 L 3.0625 1.953125 L 2.8125 1.9375 C 2.144531 1.914062 1.710938 1.90625 1.515625 1.90625 C 1.335938 1.90625 0.945312 1.921875 0.34375 1.953125 L 0.34375 1.734375 C 0.613281 1.734375 0.800781 1.679688 0.90625 1.578125 C 1.007812 1.484375 1.0625 1.3125 1.0625 1.0625 L 1.0625 -4.390625 C 1.0625 -4.710938 1 -4.945312 0.875 -5.09375 C 0.75 -5.25 0.535156 -5.328125 0.234375 -5.328125 L 0.234375 -5.5625 C 0.460938 -5.539062 0.6875 -5.53125 0.90625 -5.53125 C 1.363281 -5.53125 1.738281 -5.578125 2.03125 -5.671875 L 2.03125 -4.53125 C 2.1875 -4.90625 2.414062 -5.195312 2.71875 -5.40625 C 3.019531 -5.613281 3.363281 -5.71875 3.75 -5.71875 Z M 3.171875 -0.09375 C 4.203125 -0.09375 4.71875 -1.019531 4.71875 -2.875 C 4.71875 -4.550781 4.300781 -5.390625 3.46875 -5.390625 C 3.144531 -5.390625 2.851562 -5.269531 2.59375 -5.03125 C 2.332031 -4.800781 2.144531 -4.46875 2.03125 -4.03125 L 2.03125 -0.78125 C 2.132812 -0.570312 2.28125 -0.40625 2.46875 -0.28125 C 2.664062 -0.15625 2.898438 -0.09375 3.171875 -0.09375 Z M 3.171875 -0.09375 "/></g></g></g><g fill="#113456" fill-opacity="1"><g transform="translate(25.317209, 12.273204)"><g><path d="M 5 -1.296875 C 4.863281 -0.898438 4.617188 -0.554688 4.265625 -0.265625 C 3.910156 0.015625 3.484375 0.15625 2.984375 0.15625 C 2.472656 0.15625 2.03125 0.0390625 1.65625 -0.1875 C 1.28125 -0.425781 0.992188 -0.753906 0.796875 -1.171875 C 0.597656 -1.597656 0.5 -2.085938 0.5 -2.640625 C 0.5 -3.265625 0.597656 -3.804688 0.796875 -4.265625 C 0.992188 -4.734375 1.273438 -5.09375 1.640625 -5.34375 C 2.015625 -5.59375 2.445312 -5.71875 2.9375 -5.71875 C 3.582031 -5.71875 4.078125 -5.519531 4.421875 -5.125 C 4.773438 -4.726562 4.953125 -4.132812 4.953125 -3.34375 L 1.578125 -3.34375 C 1.554688 -3.132812 1.546875 -2.898438 1.546875 -2.640625 C 1.546875 -2.171875 1.625 -1.757812 1.78125 -1.40625 C 1.9375 -1.050781 2.140625 -0.773438 2.390625 -0.578125 C 2.648438 -0.390625 2.921875 -0.296875 3.203125 -0.296875 C 3.546875 -0.296875 3.847656 -0.378906 4.109375 -0.546875 C 4.378906 -0.710938 4.601562 -0.988281 4.78125 -1.375 Z M 2.890625 -5.5 C 2.554688 -5.5 2.265625 -5.332031 2.015625 -5 C 1.773438 -4.675781 1.625 -4.191406 1.5625 -3.546875 L 3.921875 -3.546875 C 3.929688 -4.109375 3.847656 -4.570312 3.671875 -4.9375 C 3.492188 -5.3125 3.234375 -5.5 2.890625 -5.5 Z M 2.890625 -5.5 "/></g></g></g><g fill="#113456" fill-opacity="1"><g transform="translate(31.159239, 12.273204)"><g><path d="M 3.671875 -5.71875 C 3.960938 -5.71875 4.195312 -5.632812 4.375 -5.46875 C 4.5625 -5.300781 4.65625 -5.097656 4.65625 -4.859375 C 4.65625 -4.671875 4.597656 -4.507812 4.484375 -4.375 C 4.367188 -4.238281 4.21875 -4.171875 4.03125 -4.171875 C 3.875 -4.171875 3.738281 -4.222656 3.625 -4.328125 C 3.519531 -4.429688 3.46875 -4.566406 3.46875 -4.734375 C 3.46875 -4.972656 3.585938 -5.171875 3.828125 -5.328125 C 3.773438 -5.398438 3.703125 -5.4375 3.609375 -5.4375 C 3.328125 -5.4375 3.070312 -5.320312 2.84375 -5.09375 C 2.613281 -4.875 2.429688 -4.609375 2.296875 -4.296875 C 2.171875 -3.984375 2.109375 -3.6875 2.109375 -3.40625 L 2.109375 -1.109375 C 2.109375 -0.773438 2.203125 -0.546875 2.390625 -0.421875 C 2.578125 -0.296875 2.863281 -0.234375 3.25 -0.234375 L 3.25 0 L 2.984375 -0.015625 C 2.253906 -0.0351562 1.789062 -0.046875 1.59375 -0.046875 C 1.40625 -0.046875 0.976562 -0.03125 0.3125 0 L 0.3125 -0.234375 C 0.613281 -0.234375 0.828125 -0.285156 0.953125 -0.390625 C 1.078125 -0.503906 1.140625 -0.707031 1.140625 -1 L 1.140625 -4.390625 C 1.140625 -4.710938 1.078125 -4.945312 0.953125 -5.09375 C 0.828125 -5.25 0.613281 -5.328125 0.3125 -5.328125 L 0.3125 -5.5625 C 0.539062 -5.539062 0.765625 -5.53125 0.984375 -5.53125 C 1.429688 -5.53125 1.804688 -5.578125 2.109375 -5.671875 L 2.109375 -4.328125 C 2.234375 -4.691406 2.4375 -5.015625 2.71875 -5.296875 C 3.007812 -5.578125 3.328125 -5.71875 3.671875 -5.71875 Z M 3.671875 -5.71875 "/></g></g></g><g fill="#113456" fill-opacity="1"><g transform="translate(36.342563, 12.273204)"><g><path d="M 2.046875 -5.546875 L 3.65625 -5.546875 L 3.65625 -5.328125 L 2.046875 -5.328125 L 2.046875 -1.15625 C 2.046875 -0.832031 2.101562 -0.597656 2.21875 -0.453125 C 2.34375 -0.304688 2.519531 -0.234375 2.75 -0.234375 C 2.96875 -0.234375 3.15625 -0.320312 3.3125 -0.5 C 3.46875 -0.6875 3.601562 -0.984375 3.71875 -1.390625 L 3.9375 -1.34375 C 3.75 -0.34375 3.28125 0.15625 2.53125 0.15625 C 2.28125 0.15625 2.078125 0.125 1.921875 0.0625 C 1.765625 0.0078125 1.625 -0.078125 1.5 -0.203125 C 1.34375 -0.359375 1.234375 -0.550781 1.171875 -0.78125 C 1.109375 -1.019531 1.078125 -1.332031 1.078125 -1.71875 L 1.078125 -5.328125 L 0.046875 -5.328125 L 0.046875 -5.546875 L 1.078125 -5.546875 L 1.078125 -7.203125 C 1.484375 -7.210938 1.804688 -7.265625 2.046875 -7.359375 Z M 2.046875 -5.546875 "/></g></g></g><g fill="#113456" fill-opacity="1"><g transform="translate(40.543232, 12.273204)"><g><path d="M 1.546875 -8.265625 C 1.734375 -8.265625 1.894531 -8.191406 2.03125 -8.046875 C 2.164062 -7.910156 2.234375 -7.75 2.234375 -7.5625 C 2.234375 -7.375 2.164062 -7.210938 2.03125 -7.078125 C 1.894531 -6.941406 1.734375 -6.875 1.546875 -6.875 C 1.359375 -6.875 1.191406 -6.941406 1.046875 -7.078125 C 0.910156 -7.210938 0.84375 -7.375 0.84375 -7.5625 C 0.84375 -7.75 0.910156 -7.910156 1.046875 -8.046875 C 1.191406 -8.191406 1.359375 -8.265625 1.546875 -8.265625 Z M 2.109375 -1 C 2.109375 -0.707031 2.164062 -0.503906 2.28125 -0.390625 C 2.40625 -0.285156 2.617188 -0.234375 2.921875 -0.234375 L 2.921875 0 C 2.265625 -0.03125 1.832031 -0.046875 1.625 -0.046875 C 1.414062 -0.046875 0.976562 -0.03125 0.3125 0 L 0.3125 -0.234375 C 0.613281 -0.234375 0.828125 -0.285156 0.953125 -0.390625 C 1.078125 -0.503906 1.140625 -0.707031 1.140625 -1 L 1.140625 -4.390625 C 1.140625 -4.710938 1.078125 -4.945312 0.953125 -5.09375 C 0.828125 -5.25 0.613281 -5.328125 0.3125 -5.328125 L 0.3125 -5.5625 C 0.539062 -5.539062 0.765625 -5.53125 0.984375 -5.53125 C 1.429688 -5.53125 1.804688 -5.578125 2.109375 -5.671875 Z M 2.109375 -1 "/></g></g></g><g fill="#113456" fill-opacity="1"><g transform="translate(44.085195, 12.273204)"><g><path d="M 5 -1.296875 C 4.863281 -0.898438 4.617188 -0.554688 4.265625 -0.265625 C 3.910156 0.015625 3.484375 0.15625 2.984375 0.15625 C 2.472656 0.15625 2.03125 0.0390625 1.65625 -0.1875 C 1.28125 -0.425781 0.992188 -0.753906 0.796875 -1.171875 C 0.597656 -1.597656 0.5 -2.085938 0.5 -2.640625 C 0.5 -3.265625 0.597656 -3.804688 0.796875 -4.265625 C 0.992188 -4.734375 1.273438 -5.09375 1.640625 -5.34375 C 2.015625 -5.59375 2.445312 -5.71875 2.9375 -5.71875 C 3.582031 -5.71875 4.078125 -5.519531 4.421875 -5.125 C 4.773438 -4.726562 4.953125 -4.132812 4.953125 -3.34375 L 1.578125 -3.34375 C 1.554688 -3.132812 1.546875 -2.898438 1.546875 -2.640625 C 1.546875 -2.171875 1.625 -1.757812 1.78125 -1.40625 C 1.9375 -1.050781 2.140625 -0.773438 2.390625 -0.578125 C 2.648438 -0.390625 2.921875 -0.296875 3.203125 -0.296875 C 3.546875 -0.296875 3.847656 -0.378906 4.109375 -0.546875 C 4.378906 -0.710938 4.601562 -0.988281 4.78125 -1.375 Z M 2.890625 -5.5 C 2.554688 -5.5 2.265625 -5.332031 2.015625 -5 C 1.773438 -4.675781 1.625 -4.191406 1.5625 -3.546875 L 3.921875 -3.546875 C 3.929688 -4.109375 3.847656 -4.570312 3.671875 -4.9375 C 3.492188 -5.3125 3.234375 -5.5 2.890625 -5.5 Z M 2.890625 -5.5 "/></g></g></g><g fill="#113456" fill-opacity="1"><g transform="translate(49.927225, 12.273204)"><g><path d="M 2.25 -5.71875 C 2.507812 -5.71875 2.738281 -5.675781 2.9375 -5.59375 C 3.132812 -5.507812 3.296875 -5.414062 3.421875 -5.3125 C 3.503906 -5.25 3.566406 -5.21875 3.609375 -5.21875 C 3.742188 -5.21875 3.828125 -5.378906 3.859375 -5.703125 L 4.109375 -5.703125 C 4.078125 -5.347656 4.0625 -4.734375 4.0625 -3.859375 L 3.8125 -3.859375 C 3.726562 -4.335938 3.570312 -4.726562 3.34375 -5.03125 C 3.125 -5.34375 2.789062 -5.5 2.34375 -5.5 C 2.082031 -5.5 1.867188 -5.425781 1.703125 -5.28125 C 1.535156 -5.132812 1.453125 -4.929688 1.453125 -4.671875 C 1.453125 -4.421875 1.535156 -4.210938 1.703125 -4.046875 C 1.878906 -3.878906 2.160156 -3.675781 2.546875 -3.4375 C 2.609375 -3.394531 2.707031 -3.332031 2.84375 -3.25 C 3.175781 -3.03125 3.441406 -2.835938 3.640625 -2.671875 C 3.835938 -2.503906 4 -2.3125 4.125 -2.09375 C 4.25 -1.882812 4.3125 -1.640625 4.3125 -1.359375 C 4.3125 -0.878906 4.132812 -0.503906 3.78125 -0.234375 C 3.425781 0.0234375 2.988281 0.15625 2.46875 0.15625 C 2.144531 0.15625 1.863281 0.101562 1.625 0 C 1.457031 -0.0820312 1.304688 -0.179688 1.171875 -0.296875 C 1.148438 -0.316406 1.117188 -0.328125 1.078125 -0.328125 C 1.023438 -0.328125 0.976562 -0.289062 0.9375 -0.21875 C 0.90625 -0.15625 0.878906 -0.0546875 0.859375 0.078125 L 0.609375 0.078125 C 0.628906 -0.335938 0.640625 -1.054688 0.640625 -2.078125 L 0.890625 -2.078125 C 0.972656 -1.398438 1.117188 -0.894531 1.328125 -0.5625 C 1.535156 -0.226562 1.890625 -0.0625 2.390625 -0.0625 C 2.648438 -0.0625 2.875 -0.144531 3.0625 -0.3125 C 3.257812 -0.476562 3.359375 -0.738281 3.359375 -1.09375 C 3.359375 -1.375 3.257812 -1.609375 3.0625 -1.796875 C 2.875 -1.992188 2.566406 -2.226562 2.140625 -2.5 C 1.785156 -2.726562 1.507812 -2.910156 1.3125 -3.046875 C 1.125 -3.191406 0.960938 -3.367188 0.828125 -3.578125 C 0.703125 -3.785156 0.640625 -4.03125 0.640625 -4.3125 C 0.640625 -4.769531 0.789062 -5.117188 1.09375 -5.359375 C 1.40625 -5.597656 1.789062 -5.71875 2.25 -5.71875 Z M 2.25 -5.71875 "/></g></g></g><g fill="#113456" fill-opacity="1"><g transform="translate(55.132717, 12.273204)"><g/></g></g><g fill="#113456" fill-opacity="1"><g transform="translate(58.199549, 12.273204)"><g/></g></g><g fill="#113456" fill-opacity="1"><g transform="translate(61.266382, 12.273204)"><g/></g></g><g fill="#113456" fill-opacity="1"><g transform="translate(64.333214, 12.273204)"><g/></g></g><g fill="#113456" fill-opacity="1"><g transform="translate(67.400047, 12.273204)"><g/></g></g><g fill="#113456" fill-opacity="1"><g transform="translate(70.466879, 12.273204)"><g/></g></g><g fill="#113456" fill-opacity="1"><g transform="translate(73.533712, 12.273204)"><g/></g></g></g></g></g><g transform="matrix(1, 0, 0, 1, 101, 7)"><g clip-path="url(#2cef8f7acd)"><g fill="#113456" fill-opacity="1"><g transform="translate(0.714826, 13.007604)"><g><path d="M 2.84375 -8 C 3.175781 -8 3.4375 -7.960938 3.625 -7.890625 C 3.8125 -7.816406 4.003906 -7.71875 4.203125 -7.59375 C 4.367188 -7.488281 4.492188 -7.4375 4.578125 -7.4375 C 4.648438 -7.4375 4.703125 -7.472656 4.734375 -7.546875 C 4.773438 -7.628906 4.804688 -7.753906 4.828125 -7.921875 L 5.078125 -7.921875 C 5.046875 -7.492188 5.03125 -6.738281 5.03125 -5.65625 L 4.765625 -5.65625 C 4.722656 -6.25 4.550781 -6.75 4.25 -7.15625 C 3.957031 -7.570312 3.523438 -7.78125 2.953125 -7.78125 C 2.546875 -7.78125 2.21875 -7.660156 1.96875 -7.421875 C 1.71875 -7.179688 1.59375 -6.875 1.59375 -6.5 C 1.59375 -6.21875 1.65625 -5.972656 1.78125 -5.765625 C 1.914062 -5.554688 2.082031 -5.375 2.28125 -5.21875 C 2.476562 -5.070312 2.765625 -4.882812 3.140625 -4.65625 L 3.453125 -4.46875 C 3.921875 -4.175781 4.289062 -3.921875 4.5625 -3.703125 C 4.832031 -3.484375 5.050781 -3.234375 5.21875 -2.953125 C 5.382812 -2.671875 5.46875 -2.335938 5.46875 -1.953125 C 5.46875 -1.285156 5.242188 -0.765625 4.796875 -0.390625 C 4.347656 -0.0234375 3.785156 0.15625 3.109375 0.15625 C 2.742188 0.15625 2.445312 0.117188 2.21875 0.046875 C 2 -0.0234375 1.785156 -0.125 1.578125 -0.25 C 1.410156 -0.351562 1.285156 -0.40625 1.203125 -0.40625 C 1.128906 -0.40625 1.070312 -0.363281 1.03125 -0.28125 C 1 -0.207031 0.972656 -0.0859375 0.953125 0.078125 L 0.703125 0.078125 C 0.734375 -0.328125 0.75 -1.21875 0.75 -2.59375 L 1 -2.59375 C 1.050781 -1.84375 1.234375 -1.234375 1.546875 -0.765625 C 1.867188 -0.296875 2.363281 -0.0625 3.03125 -0.0625 C 3.425781 -0.0625 3.765625 -0.1875 4.046875 -0.4375 C 4.328125 -0.6875 4.46875 -1.054688 4.46875 -1.546875 C 4.46875 -1.960938 4.328125 -2.3125 4.046875 -2.59375 C 3.773438 -2.882812 3.335938 -3.210938 2.734375 -3.578125 C 2.296875 -3.847656 1.941406 -4.085938 1.671875 -4.296875 C 1.398438 -4.503906 1.175781 -4.753906 1 -5.046875 C 0.832031 -5.335938 0.75 -5.679688 0.75 -6.078125 C 0.75 -6.703125 0.945312 -7.175781 1.34375 -7.5 C 1.75 -7.832031 2.25 -8 2.84375 -8 Z M 2.84375 -8 "/></g></g></g><g fill="#113456" fill-opacity="1"><g transform="translate(5.606822, 13.007604)"><g><path d="M 0.75 0.15625 L 0.375 0.15625 L 3.40625 -8.03125 L 3.765625 -8.03125 Z M 0.75 0.15625 "/></g></g></g><g clip-path="url(#c855bda54e)"><g fill="#113456" fill-opacity="1"><g transform="translate(8.63075, 13.007604)"><g><path d="M 6.3125 -0.9375 C 6.488281 -0.476562 6.742188 -0.238281 7.078125 -0.21875 L 7.078125 0 C 6.773438 -0.0195312 6.378906 -0.03125 5.890625 -0.03125 C 5.242188 -0.03125 4.769531 -0.0195312 4.46875 0 L 4.46875 -0.21875 C 4.75 -0.238281 4.945312 -0.273438 5.0625 -0.328125 C 5.1875 -0.378906 5.25 -0.484375 5.25 -0.640625 C 5.25 -0.765625 5.207031 -0.9375 5.125 -1.15625 L 4.4375 -2.984375 L 1.75 -2.984375 L 1.296875 -1.796875 C 1.140625 -1.398438 1.0625 -1.097656 1.0625 -0.890625 C 1.0625 -0.660156 1.140625 -0.492188 1.296875 -0.390625 C 1.460938 -0.285156 1.707031 -0.226562 2.03125 -0.21875 L 2.03125 0 C 1.613281 -0.0195312 1.1875 -0.03125 0.75 -0.03125 C 0.414062 -0.03125 0.140625 -0.0195312 -0.078125 0 L -0.078125 -0.21875 C 0.296875 -0.3125 0.585938 -0.632812 0.796875 -1.1875 L 3.421875 -7.9375 L 3.59375 -7.9375 Z M 4.34375 -3.203125 L 3.109375 -6.53125 L 1.828125 -3.203125 Z M 4.34375 -3.203125 "/></g></g></g></g></g></g><g transform="matrix(1, 0, 0, 1, 5, 3)"><g clip-path="url(#54db98442f)"><g fill="#113456" fill-opacity="1"><g transform="translate(0.576744, 16.916807)"><g><path d="M 6.34375 -10.796875 C 6.976562 -10.796875 7.523438 -10.707031 7.984375 -10.53125 C 8.441406 -10.363281 8.859375 -10.128906 9.234375 -9.828125 C 9.347656 -9.734375 9.453125 -9.6875 9.546875 -9.6875 C 9.640625 -9.6875 9.71875 -9.757812 9.78125 -9.90625 C 9.84375 -10.050781 9.882812 -10.28125 9.90625 -10.59375 L 10.265625 -10.59375 C 10.222656 -9.882812 10.203125 -8.632812 10.203125 -6.84375 L 9.859375 -6.84375 C 9.785156 -7.632812 9.65625 -8.257812 9.46875 -8.71875 C 9.28125 -9.175781 8.953125 -9.566406 8.484375 -9.890625 C 8.273438 -10.023438 8.03125 -10.128906 7.75 -10.203125 C 7.476562 -10.285156 7.207031 -10.328125 6.9375 -10.328125 C 6.21875 -10.328125 5.632812 -10.078125 5.1875 -9.578125 C 4.75 -9.078125 4.4375 -8.441406 4.25 -7.671875 C 4.070312 -6.898438 3.984375 -6.097656 3.984375 -5.265625 C 3.984375 -3.523438 4.191406 -2.226562 4.609375 -1.375 C 5.035156 -0.519531 5.628906 -0.09375 6.390625 -0.09375 C 6.691406 -0.09375 6.9375 -0.148438 7.125 -0.265625 C 7.332031 -0.421875 7.4375 -0.671875 7.4375 -1.015625 L 7.4375 -2.515625 C 7.4375 -3.015625 7.394531 -3.378906 7.3125 -3.609375 C 7.226562 -3.847656 7.082031 -4.007812 6.875 -4.09375 C 6.675781 -4.175781 6.359375 -4.226562 5.921875 -4.25 L 5.921875 -4.546875 C 6.597656 -4.515625 7.550781 -4.5 8.78125 -4.5 C 9.800781 -4.5 10.566406 -4.515625 11.078125 -4.546875 L 11.078125 -4.25 C 10.898438 -4.226562 10.769531 -4.1875 10.6875 -4.125 C 10.601562 -4.0625 10.546875 -3.945312 10.515625 -3.78125 C 10.484375 -3.613281 10.46875 -3.335938 10.46875 -2.953125 L 10.46875 0 L 10.171875 0 C 10.160156 -0.207031 10.113281 -0.398438 10.03125 -0.578125 C 9.945312 -0.765625 9.835938 -0.859375 9.703125 -0.859375 C 9.492188 -0.859375 9.15625 -0.742188 8.6875 -0.515625 C 7.6875 -0.0351562 6.84375 0.203125 6.15625 0.203125 C 4.300781 0.203125 2.898438 -0.265625 1.953125 -1.203125 C 1.003906 -2.140625 0.53125 -3.472656 0.53125 -5.203125 C 0.53125 -6.296875 0.773438 -7.265625 1.265625 -8.109375 C 1.765625 -8.960938 2.453125 -9.625 3.328125 -10.09375 C 4.210938 -10.5625 5.21875 -10.796875 6.34375 -10.796875 Z M 6.34375 -10.796875 "/></g></g></g><g fill="#113456" fill-opacity="1"><g transform="translate(12.013306, 16.916807)"><g><path d="M 14.015625 -10.28125 C 13.691406 -10.269531 13.457031 -10.234375 13.3125 -10.171875 C 13.164062 -10.109375 13.066406 -9.988281 13.015625 -9.8125 C 12.972656 -9.644531 12.953125 -9.375 12.953125 -9 L 12.953125 -1.578125 C 12.953125 -1.203125 12.976562 -0.929688 13.03125 -0.765625 C 13.082031 -0.597656 13.175781 -0.484375 13.3125 -0.421875 C 13.457031 -0.359375 13.691406 -0.316406 14.015625 -0.296875 L 14.015625 0 C 13.398438 -0.03125 12.515625 -0.046875 11.359375 -0.046875 C 10.160156 -0.046875 9.273438 -0.03125 8.703125 0 L 8.703125 -0.296875 C 9.054688 -0.316406 9.316406 -0.359375 9.484375 -0.421875 C 9.648438 -0.484375 9.757812 -0.597656 9.8125 -0.765625 C 9.875 -0.929688 9.90625 -1.203125 9.90625 -1.578125 L 9.90625 -9.21875 L 6.3125 -0.015625 L 6.078125 -0.015625 L 1.859375 -9.609375 L 1.859375 -2.9375 C 1.859375 -2.195312 1.882812 -1.664062 1.9375 -1.34375 C 2 -1.019531 2.128906 -0.78125 2.328125 -0.625 C 2.535156 -0.476562 2.878906 -0.367188 3.359375 -0.296875 L 3.359375 0 C 2.953125 -0.03125 2.394531 -0.046875 1.6875 -0.046875 C 1.15625 -0.046875 0.742188 -0.03125 0.453125 0 L 0.453125 -0.296875 C 0.753906 -0.367188 0.976562 -0.476562 1.125 -0.625 C 1.28125 -0.769531 1.382812 -0.988281 1.4375 -1.28125 C 1.488281 -1.582031 1.515625 -2.03125 1.515625 -2.625 L 1.515625 -9 C 1.515625 -9.375 1.484375 -9.644531 1.421875 -9.8125 C 1.367188 -9.988281 1.269531 -10.109375 1.125 -10.171875 C 0.988281 -10.234375 0.765625 -10.269531 0.453125 -10.28125 L 0.453125 -10.59375 C 0.742188 -10.5625 1.15625 -10.546875 1.6875 -10.546875 C 2.882812 -10.546875 3.914062 -10.5625 4.78125 -10.59375 L 7.609375 -4.234375 L 10.0625 -10.546875 L 11.359375 -10.546875 C 12.515625 -10.546875 13.398438 -10.5625 14.015625 -10.59375 Z M 14.015625 -10.28125 "/></g></g></g><g fill="#113456" fill-opacity="1"><g transform="translate(26.574366, 16.916807)"><g><path d="M 4.515625 -4.28125 L 4.515625 -1.734375 C 4.515625 -1.316406 4.554688 -1.007812 4.640625 -0.8125 C 4.722656 -0.625 4.875 -0.5 5.09375 -0.4375 C 5.320312 -0.375 5.679688 -0.34375 6.171875 -0.34375 L 6.171875 0 C 4.828125 -0.03125 3.800781 -0.046875 3.09375 -0.046875 C 2.625 -0.046875 1.972656 -0.0351562 1.140625 -0.015625 L 0.421875 0 L 0.421875 -0.296875 C 0.734375 -0.316406 0.960938 -0.359375 1.109375 -0.421875 C 1.253906 -0.484375 1.351562 -0.597656 1.40625 -0.765625 C 1.457031 -0.929688 1.484375 -1.203125 1.484375 -1.578125 L 1.484375 -9 C 1.484375 -9.375 1.453125 -9.644531 1.390625 -9.8125 C 1.335938 -9.988281 1.238281 -10.109375 1.09375 -10.171875 C 0.957031 -10.234375 0.734375 -10.269531 0.421875 -10.28125 L 0.421875 -10.59375 C 0.984375 -10.5625 1.835938 -10.546875 2.984375 -10.546875 L 4.703125 -10.5625 C 4.910156 -10.570312 5.140625 -10.578125 5.390625 -10.578125 C 6.867188 -10.578125 7.988281 -10.304688 8.75 -9.765625 C 9.519531 -9.234375 9.90625 -8.519531 9.90625 -7.625 C 9.90625 -7.070312 9.753906 -6.546875 9.453125 -6.046875 C 9.148438 -5.546875 8.640625 -5.125 7.921875 -4.78125 C 7.203125 -4.445312 6.25 -4.28125 5.0625 -4.28125 Z M 5.328125 -10.28125 C 5.097656 -10.28125 4.925781 -10.242188 4.8125 -10.171875 C 4.695312 -10.109375 4.617188 -9.988281 4.578125 -9.8125 C 4.535156 -9.632812 4.515625 -9.363281 4.515625 -9 L 4.515625 -4.578125 L 4.921875 -4.578125 C 5.617188 -4.578125 6.097656 -4.832031 6.359375 -5.34375 C 6.628906 -5.863281 6.765625 -6.570312 6.765625 -7.46875 C 6.765625 -8.425781 6.648438 -9.132812 6.421875 -9.59375 C 6.203125 -10.050781 5.835938 -10.28125 5.328125 -10.28125 Z M 5.328125 -10.28125 "/></g></g></g></g></g><g transform="matrix(1, 0, 0, 1, 6, 21)"><g clip-path="url(#b73bf56ec7)"><g clip-path="url(#1e2bbd4996)"><g fill="#694e02" fill-opacity="1"><g transform="translate(0.277221, 6.750466)"><g><path d="M 2.28125 -4.375 C 2.519531 -4.375 2.710938 -4.335938 2.859375 -4.265625 C 3.015625 -4.203125 3.1875 -4.109375 3.375 -3.984375 C 3.425781 -3.941406 3.460938 -3.921875 3.484375 -3.921875 C 3.566406 -3.921875 3.617188 -4.046875 3.640625 -4.296875 L 3.78125 -4.296875 C 3.769531 -4.023438 3.765625 -3.554688 3.765625 -2.890625 L 3.625 -2.890625 C 3.582031 -3.109375 3.539062 -3.285156 3.5 -3.421875 C 3.457031 -3.566406 3.394531 -3.691406 3.3125 -3.796875 C 3.195312 -3.941406 3.046875 -4.054688 2.859375 -4.140625 C 2.671875 -4.222656 2.472656 -4.265625 2.265625 -4.265625 C 2.003906 -4.265625 1.769531 -4.175781 1.5625 -4 C 1.363281 -3.832031 1.207031 -3.585938 1.09375 -3.265625 C 0.988281 -2.941406 0.9375 -2.566406 0.9375 -2.140625 C 0.9375 -1.410156 1.050781 -0.875 1.28125 -0.53125 C 1.507812 -0.195312 1.875 -0.03125 2.375 -0.03125 C 2.613281 -0.03125 2.820312 -0.09375 3 -0.21875 C 3.070312 -0.269531 3.117188 -0.316406 3.140625 -0.359375 C 3.171875 -0.410156 3.1875 -0.476562 3.1875 -0.5625 L 3.1875 -1.140625 C 3.1875 -1.304688 3.164062 -1.425781 3.125 -1.5 C 3.09375 -1.582031 3.035156 -1.632812 2.953125 -1.65625 C 2.878906 -1.6875 2.753906 -1.707031 2.578125 -1.71875 L 2.578125 -1.84375 C 2.785156 -1.832031 3.066406 -1.828125 3.421875 -1.828125 C 3.703125 -1.828125 3.914062 -1.832031 4.0625 -1.84375 L 4.0625 -1.71875 C 3.96875 -1.707031 3.898438 -1.691406 3.859375 -1.671875 C 3.816406 -1.648438 3.785156 -1.601562 3.765625 -1.53125 C 3.753906 -1.46875 3.75 -1.359375 3.75 -1.203125 L 3.75 0 L 3.625 0 C 3.625 -0.0820312 3.609375 -0.160156 3.578125 -0.234375 C 3.546875 -0.304688 3.507812 -0.34375 3.46875 -0.34375 C 3.4375 -0.34375 3.410156 -0.335938 3.390625 -0.328125 C 3.367188 -0.316406 3.328125 -0.289062 3.265625 -0.25 C 3.117188 -0.132812 2.96875 -0.0507812 2.8125 0 C 2.664062 0.0507812 2.5 0.078125 2.3125 0.078125 C 1.894531 0.078125 1.535156 -0.00390625 1.234375 -0.171875 C 0.941406 -0.347656 0.71875 -0.597656 0.5625 -0.921875 C 0.40625 -1.242188 0.328125 -1.628906 0.328125 -2.078125 C 0.328125 -2.535156 0.410156 -2.9375 0.578125 -3.28125 C 0.742188 -3.632812 0.972656 -3.90625 1.265625 -4.09375 C 1.566406 -4.28125 1.90625 -4.375 2.28125 -4.375 Z M 2.28125 -4.375 "/></g></g></g></g><g fill="#694e02" fill-opacity="1"><g transform="translate(4.702099, 6.750466)"><g><path d="M 2.8125 -0.734375 C 2.738281 -0.503906 2.597656 -0.3125 2.390625 -0.15625 C 2.191406 0 1.953125 0.078125 1.671875 0.078125 C 1.390625 0.078125 1.140625 0.015625 0.921875 -0.109375 C 0.710938 -0.242188 0.550781 -0.425781 0.4375 -0.65625 C 0.332031 -0.894531 0.28125 -1.171875 0.28125 -1.484375 C 0.28125 -1.835938 0.335938 -2.140625 0.453125 -2.390625 C 0.566406 -2.648438 0.722656 -2.847656 0.921875 -2.984375 C 1.128906 -3.128906 1.375 -3.203125 1.65625 -3.203125 C 2.007812 -3.203125 2.285156 -3.09375 2.484375 -2.875 C 2.679688 -2.65625 2.78125 -2.320312 2.78125 -1.875 L 0.890625 -1.875 C 0.867188 -1.757812 0.859375 -1.628906 0.859375 -1.484375 C 0.859375 -1.210938 0.898438 -0.976562 0.984375 -0.78125 C 1.078125 -0.582031 1.195312 -0.429688 1.34375 -0.328125 C 1.488281 -0.222656 1.640625 -0.171875 1.796875 -0.171875 C 1.984375 -0.171875 2.148438 -0.21875 2.296875 -0.3125 C 2.453125 -0.40625 2.582031 -0.5625 2.6875 -0.78125 Z M 1.625 -3.09375 C 1.4375 -3.09375 1.269531 -3 1.125 -2.8125 C 0.988281 -2.625 0.90625 -2.347656 0.875 -1.984375 L 2.203125 -1.984375 C 2.210938 -2.304688 2.164062 -2.570312 2.0625 -2.78125 C 1.96875 -2.988281 1.820312 -3.09375 1.625 -3.09375 Z M 1.625 -3.09375 "/></g></g></g><g fill="#694e02" fill-opacity="1"><g transform="translate(7.932878, 6.750466)"><g><path d="M 1.265625 -3.203125 C 1.410156 -3.203125 1.535156 -3.179688 1.640625 -3.140625 C 1.753906 -3.097656 1.847656 -3.046875 1.921875 -2.984375 C 1.960938 -2.953125 2 -2.9375 2.03125 -2.9375 C 2.101562 -2.9375 2.148438 -3.023438 2.171875 -3.203125 L 2.296875 -3.203125 C 2.285156 -3.003906 2.28125 -2.660156 2.28125 -2.171875 L 2.140625 -2.171875 C 2.097656 -2.441406 2.007812 -2.660156 1.875 -2.828125 C 1.75 -3.003906 1.5625 -3.09375 1.3125 -3.09375 C 1.164062 -3.09375 1.046875 -3.050781 0.953125 -2.96875 C 0.859375 -2.882812 0.8125 -2.769531 0.8125 -2.625 C 0.8125 -2.476562 0.859375 -2.359375 0.953125 -2.265625 C 1.054688 -2.171875 1.21875 -2.054688 1.4375 -1.921875 C 1.46875 -1.898438 1.519531 -1.867188 1.59375 -1.828125 C 1.78125 -1.703125 1.929688 -1.59375 2.046875 -1.5 C 2.160156 -1.40625 2.25 -1.296875 2.3125 -1.171875 C 2.382812 -1.054688 2.421875 -0.921875 2.421875 -0.765625 C 2.421875 -0.492188 2.320312 -0.285156 2.125 -0.140625 C 1.925781 0.00390625 1.679688 0.078125 1.390625 0.078125 C 1.203125 0.078125 1.039062 0.0507812 0.90625 0 C 0.820312 -0.0390625 0.738281 -0.09375 0.65625 -0.15625 C 0.644531 -0.175781 0.628906 -0.1875 0.609375 -0.1875 C 0.578125 -0.1875 0.550781 -0.164062 0.53125 -0.125 C 0.507812 -0.0820312 0.492188 -0.0234375 0.484375 0.046875 L 0.34375 0.046875 C 0.351562 -0.179688 0.359375 -0.585938 0.359375 -1.171875 L 0.5 -1.171875 C 0.539062 -0.785156 0.617188 -0.5 0.734375 -0.3125 C 0.859375 -0.125 1.0625 -0.03125 1.34375 -0.03125 C 1.488281 -0.03125 1.613281 -0.078125 1.71875 -0.171875 C 1.832031 -0.265625 1.890625 -0.410156 1.890625 -0.609375 C 1.890625 -0.765625 1.832031 -0.894531 1.71875 -1 C 1.613281 -1.113281 1.441406 -1.25 1.203125 -1.40625 C 1.003906 -1.53125 0.847656 -1.632812 0.734375 -1.71875 C 0.628906 -1.800781 0.539062 -1.898438 0.46875 -2.015625 C 0.394531 -2.128906 0.359375 -2.265625 0.359375 -2.421875 C 0.359375 -2.679688 0.441406 -2.875 0.609375 -3 C 0.785156 -3.132812 1.003906 -3.203125 1.265625 -3.203125 Z M 1.265625 -3.203125 "/></g></g></g><g fill="#694e02" fill-opacity="1"><g transform="translate(10.806034, 6.750466)"><g><path d="M 1.15625 -3.109375 L 2.046875 -3.109375 L 2.046875 -3 L 1.15625 -3 L 1.15625 -0.65625 C 1.15625 -0.46875 1.1875 -0.332031 1.25 -0.25 C 1.320312 -0.175781 1.421875 -0.140625 1.546875 -0.140625 C 1.671875 -0.140625 1.773438 -0.1875 1.859375 -0.28125 C 1.953125 -0.382812 2.023438 -0.550781 2.078125 -0.78125 L 2.203125 -0.75 C 2.109375 -0.195312 1.847656 0.078125 1.421875 0.078125 C 1.285156 0.078125 1.171875 0.0625 1.078125 0.03125 C 0.992188 0 0.914062 -0.046875 0.84375 -0.109375 C 0.75 -0.203125 0.6875 -0.3125 0.65625 -0.4375 C 0.625 -0.570312 0.609375 -0.75 0.609375 -0.96875 L 0.609375 -3 L 0.03125 -3 L 0.03125 -3.109375 L 0.609375 -3.109375 L 0.609375 -4.046875 C 0.835938 -4.054688 1.019531 -4.082031 1.15625 -4.125 Z M 1.15625 -3.109375 "/></g></g></g><g fill="#694e02" fill-opacity="1"><g transform="translate(13.115479, 6.750466)"><g><path d="M 0.984375 0.046875 C 0.734375 0.046875 0.546875 -0.015625 0.421875 -0.140625 C 0.296875 -0.273438 0.234375 -0.453125 0.234375 -0.671875 C 0.234375 -0.859375 0.28125 -1.007812 0.375 -1.125 C 0.476562 -1.238281 0.597656 -1.332031 0.734375 -1.40625 C 0.867188 -1.476562 1.046875 -1.550781 1.265625 -1.625 C 1.492188 -1.695312 1.660156 -1.765625 1.765625 -1.828125 C 1.878906 -1.898438 1.9375 -1.988281 1.9375 -2.09375 L 1.9375 -2.46875 C 1.9375 -2.707031 1.882812 -2.867188 1.78125 -2.953125 C 1.6875 -3.035156 1.550781 -3.078125 1.375 -3.078125 C 1.09375 -3.078125 0.894531 -3.007812 0.78125 -2.875 C 0.851562 -2.851562 0.914062 -2.804688 0.96875 -2.734375 C 1.03125 -2.671875 1.0625 -2.59375 1.0625 -2.5 C 1.0625 -2.394531 1.023438 -2.3125 0.953125 -2.25 C 0.890625 -2.195312 0.8125 -2.171875 0.71875 -2.171875 C 0.601562 -2.171875 0.515625 -2.203125 0.453125 -2.265625 C 0.398438 -2.335938 0.375 -2.425781 0.375 -2.53125 C 0.375 -2.625 0.394531 -2.703125 0.4375 -2.765625 C 0.488281 -2.835938 0.5625 -2.90625 0.65625 -2.96875 C 0.75 -3.039062 0.867188 -3.097656 1.015625 -3.140625 C 1.171875 -3.179688 1.335938 -3.203125 1.515625 -3.203125 C 1.828125 -3.203125 2.066406 -3.128906 2.234375 -2.984375 C 2.328125 -2.890625 2.390625 -2.773438 2.421875 -2.640625 C 2.460938 -2.515625 2.484375 -2.34375 2.484375 -2.125 L 2.484375 -0.4375 C 2.484375 -0.34375 2.5 -0.269531 2.53125 -0.21875 C 2.5625 -0.175781 2.609375 -0.15625 2.671875 -0.15625 C 2.722656 -0.15625 2.769531 -0.164062 2.8125 -0.1875 C 2.851562 -0.207031 2.898438 -0.238281 2.953125 -0.28125 L 3.015625 -0.1875 C 2.910156 -0.101562 2.816406 -0.0390625 2.734375 0 C 2.660156 0.03125 2.570312 0.046875 2.46875 0.046875 C 2.269531 0.046875 2.128906 0 2.046875 -0.09375 C 1.972656 -0.195312 1.9375 -0.332031 1.9375 -0.5 C 1.820312 -0.289062 1.679688 -0.144531 1.515625 -0.0625 C 1.359375 0.0078125 1.179688 0.046875 0.984375 0.046875 Z M 1.25 -0.203125 C 1.519531 -0.203125 1.75 -0.351562 1.9375 -0.65625 L 1.9375 -1.84375 C 1.90625 -1.789062 1.851562 -1.742188 1.78125 -1.703125 C 1.71875 -1.671875 1.617188 -1.625 1.484375 -1.5625 C 1.335938 -1.5 1.210938 -1.4375 1.109375 -1.375 C 1.015625 -1.320312 0.929688 -1.242188 0.859375 -1.140625 C 0.796875 -1.035156 0.765625 -0.90625 0.765625 -0.75 C 0.765625 -0.570312 0.804688 -0.4375 0.890625 -0.34375 C 0.984375 -0.25 1.101562 -0.203125 1.25 -0.203125 Z M 1.03125 -4.65625 C 1.132812 -4.65625 1.222656 -4.632812 1.296875 -4.59375 C 1.378906 -4.5625 1.460938 -4.507812 1.546875 -4.4375 C 1.628906 -4.375 1.695312 -4.328125 1.75 -4.296875 C 1.8125 -4.265625 1.878906 -4.25 1.953125 -4.25 C 2.128906 -4.25 2.285156 -4.359375 2.421875 -4.578125 L 2.5 -4.53125 C 2.4375 -4.320312 2.34375 -4.164062 2.21875 -4.0625 C 2.09375 -3.957031 1.953125 -3.90625 1.796875 -3.90625 C 1.679688 -3.90625 1.585938 -3.921875 1.515625 -3.953125 C 1.441406 -3.992188 1.363281 -4.050781 1.28125 -4.125 C 1.1875 -4.1875 1.113281 -4.234375 1.0625 -4.265625 C 1.007812 -4.296875 0.945312 -4.3125 0.875 -4.3125 C 0.6875 -4.3125 0.53125 -4.203125 0.40625 -3.984375 L 0.3125 -4.03125 C 0.375 -4.25 0.46875 -4.40625 0.59375 -4.5 C 0.71875 -4.601562 0.863281 -4.65625 1.03125 -4.65625 Z M 1.03125 -4.65625 "/></g></g></g><g fill="#694e02" fill-opacity="1"><g transform="translate(16.297767, 6.750466)"><g><path d="M 1.65625 -3.203125 C 2.070312 -3.203125 2.40625 -3.066406 2.65625 -2.796875 C 2.90625 -2.523438 3.03125 -2.113281 3.03125 -1.5625 C 3.03125 -1.007812 2.90625 -0.597656 2.65625 -0.328125 C 2.40625 -0.0546875 2.070312 0.078125 1.65625 0.078125 C 1.25 0.078125 0.914062 -0.0546875 0.65625 -0.328125 C 0.40625 -0.597656 0.28125 -1.007812 0.28125 -1.5625 C 0.28125 -2.113281 0.40625 -2.523438 0.65625 -2.796875 C 0.914062 -3.066406 1.25 -3.203125 1.65625 -3.203125 Z M 1.65625 -3.078125 C 1.414062 -3.078125 1.222656 -2.953125 1.078125 -2.703125 C 0.941406 -2.460938 0.875 -2.082031 0.875 -1.5625 C 0.875 -1.039062 0.941406 -0.65625 1.078125 -0.40625 C 1.222656 -0.15625 1.414062 -0.03125 1.65625 -0.03125 C 1.90625 -0.03125 2.097656 -0.15625 2.234375 -0.40625 C 2.378906 -0.65625 2.453125 -1.039062 2.453125 -1.5625 C 2.453125 -2.082031 2.378906 -2.460938 2.234375 -2.703125 C 2.097656 -2.953125 1.90625 -3.078125 1.65625 -3.078125 Z M 1.65625 -3.078125 "/></g></g></g><g fill="#694e02" fill-opacity="1"><g transform="translate(19.783127, 6.750466)"><g/></g></g><g fill="#694e02" fill-opacity="1"><g transform="translate(21.456124, 6.750466)"><g><path d="M 2.9375 -0.65625 C 2.9375 -0.46875 2.96875 -0.332031 3.03125 -0.25 C 3.101562 -0.164062 3.222656 -0.125 3.390625 -0.125 L 3.390625 0 C 3.265625 -0.0078125 3.140625 -0.015625 3.015625 -0.015625 C 2.765625 -0.015625 2.554688 0.0078125 2.390625 0.0625 L 2.390625 -0.46875 C 2.316406 -0.289062 2.207031 -0.15625 2.0625 -0.0625 C 1.914062 0.03125 1.738281 0.078125 1.53125 0.078125 C 1.144531 0.078125 0.835938 -0.0546875 0.609375 -0.328125 C 0.390625 -0.609375 0.285156 -1.019531 0.296875 -1.5625 C 0.296875 -1.90625 0.351562 -2.203125 0.46875 -2.453125 C 0.59375 -2.703125 0.757812 -2.890625 0.96875 -3.015625 C 1.175781 -3.140625 1.40625 -3.203125 1.65625 -3.203125 C 1.8125 -3.203125 1.953125 -3.171875 2.078125 -3.109375 C 2.210938 -3.054688 2.316406 -2.96875 2.390625 -2.84375 L 2.390625 -4.03125 C 2.390625 -4.207031 2.351562 -4.335938 2.28125 -4.421875 C 2.21875 -4.515625 2.097656 -4.5625 1.921875 -4.5625 L 1.921875 -4.6875 C 2.054688 -4.675781 2.179688 -4.671875 2.296875 -4.671875 C 2.554688 -4.671875 2.769531 -4.695312 2.9375 -4.75 Z M 1.703125 -0.09375 C 1.859375 -0.09375 2 -0.148438 2.125 -0.265625 C 2.25 -0.390625 2.335938 -0.566406 2.390625 -0.796875 L 2.390625 -2.59375 C 2.273438 -2.90625 2.046875 -3.0625 1.703125 -3.0625 C 1.453125 -3.0625 1.25 -2.929688 1.09375 -2.671875 C 0.945312 -2.421875 0.875 -2.050781 0.875 -1.5625 C 0.875 -1.070312 0.941406 -0.703125 1.078125 -0.453125 C 1.222656 -0.210938 1.429688 -0.09375 1.703125 -0.09375 Z M 1.703125 -0.09375 "/></g></g></g><g fill="#694e02" fill-opacity="1"><g transform="translate(25.14151, 6.750466)"><g><path d="M 2.8125 -0.734375 C 2.738281 -0.503906 2.597656 -0.3125 2.390625 -0.15625 C 2.191406 0 1.953125 0.078125 1.671875 0.078125 C 1.390625 0.078125 1.140625 0.015625 0.921875 -0.109375 C 0.710938 -0.242188 0.550781 -0.425781 0.4375 -0.65625 C 0.332031 -0.894531 0.28125 -1.171875 0.28125 -1.484375 C 0.28125 -1.835938 0.335938 -2.140625 0.453125 -2.390625 C 0.566406 -2.648438 0.722656 -2.847656 0.921875 -2.984375 C 1.128906 -3.128906 1.375 -3.203125 1.65625 -3.203125 C 2.007812 -3.203125 2.285156 -3.09375 2.484375 -2.875 C 2.679688 -2.65625 2.78125 -2.320312 2.78125 -1.875 L 0.890625 -1.875 C 0.867188 -1.757812 0.859375 -1.628906 0.859375 -1.484375 C 0.859375 -1.210938 0.898438 -0.976562 0.984375 -0.78125 C 1.078125 -0.582031 1.195312 -0.429688 1.34375 -0.328125 C 1.488281 -0.222656 1.640625 -0.171875 1.796875 -0.171875 C 1.984375 -0.171875 2.148438 -0.21875 2.296875 -0.3125 C 2.453125 -0.40625 2.582031 -0.5625 2.6875 -0.78125 Z M 1.625 -3.09375 C 1.4375 -3.09375 1.269531 -3 1.125 -2.8125 C 0.988281 -2.625 0.90625 -2.347656 0.875 -1.984375 L 2.203125 -1.984375 C 2.210938 -2.304688 2.164062 -2.570312 2.0625 -2.78125 C 1.96875 -2.988281 1.820312 -3.09375 1.625 -3.09375 Z M 1.625 -3.09375 "/></g></g></g><g fill="#694e02" fill-opacity="1"><g transform="translate(28.372289, 6.750466)"><g/></g></g><g fill="#694e02" fill-opacity="1"><g transform="translate(30.045287, 6.750466)"><g><path d="M 1.3125 -1.734375 L 1.3125 -0.640625 C 1.3125 -0.484375 1.328125 -0.367188 1.359375 -0.296875 C 1.390625 -0.234375 1.445312 -0.191406 1.53125 -0.171875 C 1.613281 -0.148438 1.742188 -0.132812 1.921875 -0.125 L 1.921875 0 C 1.710938 -0.0078125 1.414062 -0.015625 1.03125 -0.015625 C 0.6875 -0.015625 0.425781 -0.0078125 0.25 0 L 0.25 -0.125 C 0.394531 -0.132812 0.5 -0.148438 0.5625 -0.171875 C 0.632812 -0.191406 0.679688 -0.234375 0.703125 -0.296875 C 0.734375 -0.367188 0.75 -0.484375 0.75 -0.640625 L 0.75 -3.65625 C 0.75 -3.800781 0.734375 -3.910156 0.703125 -3.984375 C 0.679688 -4.054688 0.632812 -4.101562 0.5625 -4.125 C 0.5 -4.144531 0.394531 -4.160156 0.25 -4.171875 L 0.25 -4.296875 C 0.425781 -4.285156 0.675781 -4.28125 1 -4.28125 L 1.65625 -4.28125 C 1.726562 -4.28125 1.8125 -4.28125 1.90625 -4.28125 C 2.382812 -4.28125 2.75 -4.171875 3 -3.953125 C 3.25 -3.742188 3.375 -3.457031 3.375 -3.09375 C 3.375 -2.875 3.320312 -2.660156 3.21875 -2.453125 C 3.125 -2.242188 2.957031 -2.070312 2.71875 -1.9375 C 2.476562 -1.800781 2.164062 -1.734375 1.78125 -1.734375 Z M 1.765625 -4.171875 C 1.628906 -4.171875 1.53125 -4.15625 1.46875 -4.125 C 1.40625 -4.101562 1.363281 -4.054688 1.34375 -3.984375 C 1.320312 -3.910156 1.3125 -3.800781 1.3125 -3.65625 L 1.3125 -1.859375 L 1.71875 -1.859375 C 2.113281 -1.859375 2.382812 -1.960938 2.53125 -2.171875 C 2.6875 -2.378906 2.765625 -2.664062 2.765625 -3.03125 C 2.765625 -3.414062 2.6875 -3.703125 2.53125 -3.890625 C 2.375 -4.078125 2.117188 -4.171875 1.765625 -4.171875 Z M 1.765625 -4.171875 "/></g></g></g><g fill="#694e02" fill-opacity="1"><g transform="translate(33.754917, 6.750466)"><g><path d="M 2.0625 -3.203125 C 2.21875 -3.203125 2.347656 -3.15625 2.453125 -3.0625 C 2.554688 -2.96875 2.609375 -2.859375 2.609375 -2.734375 C 2.609375 -2.628906 2.578125 -2.535156 2.515625 -2.453125 C 2.453125 -2.378906 2.367188 -2.34375 2.265625 -2.34375 C 2.179688 -2.34375 2.109375 -2.367188 2.046875 -2.421875 C 1.984375 -2.484375 1.953125 -2.5625 1.953125 -2.65625 C 1.953125 -2.789062 2.019531 -2.898438 2.15625 -2.984375 C 2.125 -3.023438 2.082031 -3.046875 2.03125 -3.046875 C 1.863281 -3.046875 1.71875 -2.984375 1.59375 -2.859375 C 1.46875 -2.734375 1.367188 -2.582031 1.296875 -2.40625 C 1.222656 -2.226562 1.1875 -2.0625 1.1875 -1.90625 L 1.1875 -0.625 C 1.1875 -0.4375 1.238281 -0.304688 1.34375 -0.234375 C 1.445312 -0.160156 1.609375 -0.125 1.828125 -0.125 L 1.828125 0 L 1.671875 0 C 1.265625 -0.0195312 1.003906 -0.03125 0.890625 -0.03125 C 0.785156 -0.03125 0.546875 -0.0195312 0.171875 0 L 0.171875 -0.125 C 0.347656 -0.125 0.46875 -0.15625 0.53125 -0.21875 C 0.601562 -0.28125 0.640625 -0.394531 0.640625 -0.5625 L 0.640625 -2.46875 C 0.640625 -2.644531 0.601562 -2.773438 0.53125 -2.859375 C 0.46875 -2.953125 0.347656 -3 0.171875 -3 L 0.171875 -3.125 C 0.304688 -3.113281 0.429688 -3.109375 0.546875 -3.109375 C 0.804688 -3.109375 1.019531 -3.132812 1.1875 -3.1875 L 1.1875 -2.4375 C 1.257812 -2.632812 1.375 -2.8125 1.53125 -2.96875 C 1.6875 -3.125 1.863281 -3.203125 2.0625 -3.203125 Z M 2.0625 -3.203125 "/></g></g></g><g fill="#694e02" fill-opacity="1"><g transform="translate(36.615951, 6.750466)"><g><path d="M 1.65625 -3.203125 C 2.070312 -3.203125 2.40625 -3.066406 2.65625 -2.796875 C 2.90625 -2.523438 3.03125 -2.113281 3.03125 -1.5625 C 3.03125 -1.007812 2.90625 -0.597656 2.65625 -0.328125 C 2.40625 -0.0546875 2.070312 0.078125 1.65625 0.078125 C 1.25 0.078125 0.914062 -0.0546875 0.65625 -0.328125 C 0.40625 -0.597656 0.28125 -1.007812 0.28125 -1.5625 C 0.28125 -2.113281 0.40625 -2.523438 0.65625 -2.796875 C 0.914062 -3.066406 1.25 -3.203125 1.65625 -3.203125 Z M 1.65625 -3.078125 C 1.414062 -3.078125 1.222656 -2.953125 1.078125 -2.703125 C 0.941406 -2.460938 0.875 -2.082031 0.875 -1.5625 C 0.875 -1.039062 0.941406 -0.65625 1.078125 -0.40625 C 1.222656 -0.15625 1.414062 -0.03125 1.65625 -0.03125 C 1.90625 -0.03125 2.097656 -0.15625 2.234375 -0.40625 C 2.378906 -0.65625 2.453125 -1.039062 2.453125 -1.5625 C 2.453125 -2.082031 2.378906 -2.460938 2.234375 -2.703125 C 2.097656 -2.953125 1.90625 -3.078125 1.65625 -3.078125 Z M 1.65625 -3.078125 "/></g></g></g><g fill="#694e02" fill-opacity="1"><g transform="translate(40.10131, 6.750466)"><g><path d="M 2.109375 -3.203125 C 2.328125 -3.203125 2.519531 -3.144531 2.6875 -3.03125 C 2.863281 -2.914062 3 -2.742188 3.09375 -2.515625 C 3.1875 -2.285156 3.234375 -2.015625 3.234375 -1.703125 C 3.234375 -1.390625 3.179688 -1.097656 3.078125 -0.828125 C 2.984375 -0.554688 2.832031 -0.335938 2.625 -0.171875 C 2.414062 -0.00390625 2.15625 0.078125 1.84375 0.078125 C 1.695312 0.078125 1.5625 0.0507812 1.4375 0 C 1.3125 -0.0625 1.210938 -0.144531 1.140625 -0.25 L 1.140625 0.53125 C 1.140625 0.695312 1.1875 0.8125 1.28125 0.875 C 1.382812 0.9375 1.53125 0.96875 1.71875 0.96875 L 1.71875 1.09375 L 1.578125 1.09375 C 1.203125 1.082031 0.957031 1.078125 0.84375 1.078125 C 0.75 1.078125 0.53125 1.082031 0.1875 1.09375 L 0.1875 0.96875 C 0.34375 0.96875 0.445312 0.941406 0.5 0.890625 C 0.5625 0.835938 0.59375 0.738281 0.59375 0.59375 L 0.59375 -2.46875 C 0.59375 -2.644531 0.554688 -2.773438 0.484375 -2.859375 C 0.421875 -2.953125 0.304688 -3 0.140625 -3 L 0.140625 -3.125 C 0.265625 -3.113281 0.390625 -3.109375 0.515625 -3.109375 C 0.765625 -3.109375 0.972656 -3.132812 1.140625 -3.1875 L 1.140625 -2.546875 C 1.222656 -2.753906 1.347656 -2.914062 1.515625 -3.03125 C 1.691406 -3.144531 1.890625 -3.203125 2.109375 -3.203125 Z M 1.78125 -0.046875 C 2.363281 -0.046875 2.65625 -0.570312 2.65625 -1.625 C 2.65625 -2.5625 2.421875 -3.03125 1.953125 -3.03125 C 1.765625 -3.03125 1.597656 -2.960938 1.453125 -2.828125 C 1.304688 -2.691406 1.203125 -2.503906 1.140625 -2.265625 L 1.140625 -0.4375 C 1.191406 -0.320312 1.269531 -0.226562 1.375 -0.15625 C 1.488281 -0.0820312 1.625 -0.046875 1.78125 -0.046875 Z M 1.78125 -0.046875 "/></g></g></g><g fill="#694e02" fill-opacity="1"><g transform="translate(43.786696, 6.750466)"><g><path d="M 2.0625 -3.203125 C 2.21875 -3.203125 2.347656 -3.15625 2.453125 -3.0625 C 2.554688 -2.96875 2.609375 -2.859375 2.609375 -2.734375 C 2.609375 -2.628906 2.578125 -2.535156 2.515625 -2.453125 C 2.453125 -2.378906 2.367188 -2.34375 2.265625 -2.34375 C 2.179688 -2.34375 2.109375 -2.367188 2.046875 -2.421875 C 1.984375 -2.484375 1.953125 -2.5625 1.953125 -2.65625 C 1.953125 -2.789062 2.019531 -2.898438 2.15625 -2.984375 C 2.125 -3.023438 2.082031 -3.046875 2.03125 -3.046875 C 1.863281 -3.046875 1.71875 -2.984375 1.59375 -2.859375 C 1.46875 -2.734375 1.367188 -2.582031 1.296875 -2.40625 C 1.222656 -2.226562 1.1875 -2.0625 1.1875 -1.90625 L 1.1875 -0.625 C 1.1875 -0.4375 1.238281 -0.304688 1.34375 -0.234375 C 1.445312 -0.160156 1.609375 -0.125 1.828125 -0.125 L 1.828125 0 L 1.671875 0 C 1.265625 -0.0195312 1.003906 -0.03125 0.890625 -0.03125 C 0.785156 -0.03125 0.546875 -0.0195312 0.171875 0 L 0.171875 -0.125 C 0.347656 -0.125 0.46875 -0.15625 0.53125 -0.21875 C 0.601562 -0.28125 0.640625 -0.394531 0.640625 -0.5625 L 0.640625 -2.46875 C 0.640625 -2.644531 0.601562 -2.773438 0.53125 -2.859375 C 0.46875 -2.953125 0.347656 -3 0.171875 -3 L 0.171875 -3.125 C 0.304688 -3.113281 0.429688 -3.109375 0.546875 -3.109375 C 0.804688 -3.109375 1.019531 -3.132812 1.1875 -3.1875 L 1.1875 -2.4375 C 1.257812 -2.632812 1.375 -2.8125 1.53125 -2.96875 C 1.6875 -3.125 1.863281 -3.203125 2.0625 -3.203125 Z M 2.0625 -3.203125 "/></g></g></g><g fill="#694e02" fill-opacity="1"><g transform="translate(46.647727, 6.750466)"><g><path d="M 0.875 -4.640625 C 0.976562 -4.640625 1.066406 -4.597656 1.140625 -4.515625 C 1.210938 -4.441406 1.25 -4.351562 1.25 -4.25 C 1.25 -4.144531 1.210938 -4.050781 1.140625 -3.96875 C 1.066406 -3.894531 0.976562 -3.859375 0.875 -3.859375 C 0.757812 -3.859375 0.664062 -3.894531 0.59375 -3.96875 C 0.519531 -4.050781 0.484375 -4.144531 0.484375 -4.25 C 0.484375 -4.351562 0.519531 -4.441406 0.59375 -4.515625 C 0.664062 -4.597656 0.757812 -4.640625 0.875 -4.640625 Z M 1.1875 -0.5625 C 1.1875 -0.394531 1.21875 -0.28125 1.28125 -0.21875 C 1.351562 -0.15625 1.472656 -0.125 1.640625 -0.125 L 1.640625 0 C 1.265625 -0.0195312 1.019531 -0.03125 0.90625 -0.03125 C 0.789062 -0.03125 0.546875 -0.0195312 0.171875 0 L 0.171875 -0.125 C 0.347656 -0.125 0.46875 -0.15625 0.53125 -0.21875 C 0.601562 -0.28125 0.640625 -0.394531 0.640625 -0.5625 L 0.640625 -2.46875 C 0.640625 -2.644531 0.601562 -2.773438 0.53125 -2.859375 C 0.46875 -2.953125 0.347656 -3 0.171875 -3 L 0.171875 -3.125 C 0.304688 -3.113281 0.429688 -3.109375 0.546875 -3.109375 C 0.804688 -3.109375 1.019531 -3.132812 1.1875 -3.1875 Z M 1.1875 -0.5625 "/></g></g></g><g fill="#694e02" fill-opacity="1"><g transform="translate(48.58743, 6.750466)"><g><path d="M 2.8125 -0.734375 C 2.738281 -0.503906 2.597656 -0.3125 2.390625 -0.15625 C 2.191406 0 1.953125 0.078125 1.671875 0.078125 C 1.390625 0.078125 1.140625 0.015625 0.921875 -0.109375 C 0.710938 -0.242188 0.550781 -0.425781 0.4375 -0.65625 C 0.332031 -0.894531 0.28125 -1.171875 0.28125 -1.484375 C 0.28125 -1.835938 0.335938 -2.140625 0.453125 -2.390625 C 0.566406 -2.648438 0.722656 -2.847656 0.921875 -2.984375 C 1.128906 -3.128906 1.375 -3.203125 1.65625 -3.203125 C 2.007812 -3.203125 2.285156 -3.09375 2.484375 -2.875 C 2.679688 -2.65625 2.78125 -2.320312 2.78125 -1.875 L 0.890625 -1.875 C 0.867188 -1.757812 0.859375 -1.628906 0.859375 -1.484375 C 0.859375 -1.210938 0.898438 -0.976562 0.984375 -0.78125 C 1.078125 -0.582031 1.195312 -0.429688 1.34375 -0.328125 C 1.488281 -0.222656 1.640625 -0.171875 1.796875 -0.171875 C 1.984375 -0.171875 2.148438 -0.21875 2.296875 -0.3125 C 2.453125 -0.40625 2.582031 -0.5625 2.6875 -0.78125 Z M 1.625 -3.09375 C 1.4375 -3.09375 1.269531 -3 1.125 -2.8125 C 0.988281 -2.625 0.90625 -2.347656 0.875 -1.984375 L 2.203125 -1.984375 C 2.210938 -2.304688 2.164062 -2.570312 2.0625 -2.78125 C 1.96875 -2.988281 1.820312 -3.09375 1.625 -3.09375 Z M 1.625 -3.09375 "/></g></g></g><g fill="#694e02" fill-opacity="1"><g transform="translate(51.818212, 6.750466)"><g><path d="M 2.9375 -0.65625 C 2.9375 -0.46875 2.96875 -0.332031 3.03125 -0.25 C 3.101562 -0.164062 3.222656 -0.125 3.390625 -0.125 L 3.390625 0 C 3.265625 -0.0078125 3.140625 -0.015625 3.015625 -0.015625 C 2.765625 -0.015625 2.554688 0.0078125 2.390625 0.0625 L 2.390625 -0.46875 C 2.316406 -0.289062 2.207031 -0.15625 2.0625 -0.0625 C 1.914062 0.03125 1.738281 0.078125 1.53125 0.078125 C 1.144531 0.078125 0.835938 -0.0546875 0.609375 -0.328125 C 0.390625 -0.609375 0.285156 -1.019531 0.296875 -1.5625 C 0.296875 -1.90625 0.351562 -2.203125 0.46875 -2.453125 C 0.59375 -2.703125 0.757812 -2.890625 0.96875 -3.015625 C 1.175781 -3.140625 1.40625 -3.203125 1.65625 -3.203125 C 1.8125 -3.203125 1.953125 -3.171875 2.078125 -3.109375 C 2.210938 -3.054688 2.316406 -2.96875 2.390625 -2.84375 L 2.390625 -4.03125 C 2.390625 -4.207031 2.351562 -4.335938 2.28125 -4.421875 C 2.21875 -4.515625 2.097656 -4.5625 1.921875 -4.5625 L 1.921875 -4.6875 C 2.054688 -4.675781 2.179688 -4.671875 2.296875 -4.671875 C 2.554688 -4.671875 2.769531 -4.695312 2.9375 -4.75 Z M 1.703125 -0.09375 C 1.859375 -0.09375 2 -0.148438 2.125 -0.265625 C 2.25 -0.390625 2.335938 -0.566406 2.390625 -0.796875 L 2.390625 -2.59375 C 2.273438 -2.90625 2.046875 -3.0625 1.703125 -3.0625 C 1.453125 -3.0625 1.25 -2.929688 1.09375 -2.671875 C 0.945312 -2.421875 0.875 -2.050781 0.875 -1.5625 C 0.875 -1.070312 0.941406 -0.703125 1.078125 -0.453125 C 1.222656 -0.210938 1.429688 -0.09375 1.703125 -0.09375 Z M 1.703125 -0.09375 "/></g></g></g><g fill="#694e02" fill-opacity="1"><g transform="translate(55.503598, 6.750466)"><g><path d="M 0.984375 0.046875 C 0.734375 0.046875 0.546875 -0.015625 0.421875 -0.140625 C 0.296875 -0.273438 0.234375 -0.453125 0.234375 -0.671875 C 0.234375 -0.859375 0.28125 -1.007812 0.375 -1.125 C 0.476562 -1.238281 0.597656 -1.332031 0.734375 -1.40625 C 0.867188 -1.476562 1.046875 -1.550781 1.265625 -1.625 C 1.492188 -1.695312 1.660156 -1.765625 1.765625 -1.828125 C 1.878906 -1.898438 1.9375 -1.988281 1.9375 -2.09375 L 1.9375 -2.46875 C 1.9375 -2.707031 1.882812 -2.867188 1.78125 -2.953125 C 1.6875 -3.035156 1.550781 -3.078125 1.375 -3.078125 C 1.09375 -3.078125 0.894531 -3.007812 0.78125 -2.875 C 0.851562 -2.851562 0.914062 -2.804688 0.96875 -2.734375 C 1.03125 -2.671875 1.0625 -2.59375 1.0625 -2.5 C 1.0625 -2.394531 1.023438 -2.3125 0.953125 -2.25 C 0.890625 -2.195312 0.8125 -2.171875 0.71875 -2.171875 C 0.601562 -2.171875 0.515625 -2.203125 0.453125 -2.265625 C 0.398438 -2.335938 0.375 -2.425781 0.375 -2.53125 C 0.375 -2.625 0.394531 -2.703125 0.4375 -2.765625 C 0.488281 -2.835938 0.5625 -2.90625 0.65625 -2.96875 C 0.75 -3.039062 0.867188 -3.097656 1.015625 -3.140625 C 1.171875 -3.179688 1.335938 -3.203125 1.515625 -3.203125 C 1.828125 -3.203125 2.066406 -3.128906 2.234375 -2.984375 C 2.328125 -2.890625 2.390625 -2.773438 2.421875 -2.640625 C 2.460938 -2.515625 2.484375 -2.34375 2.484375 -2.125 L 2.484375 -0.4375 C 2.484375 -0.34375 2.5 -0.269531 2.53125 -0.21875 C 2.5625 -0.175781 2.609375 -0.15625 2.671875 -0.15625 C 2.722656 -0.15625 2.769531 -0.164062 2.8125 -0.1875 C 2.851562 -0.207031 2.898438 -0.238281 2.953125 -0.28125 L 3.015625 -0.1875 C 2.910156 -0.101562 2.816406 -0.0390625 2.734375 0 C 2.660156 0.03125 2.570312 0.046875 2.46875 0.046875 C 2.269531 0.046875 2.128906 0 2.046875 -0.09375 C 1.972656 -0.195312 1.9375 -0.332031 1.9375 -0.5 C 1.820312 -0.289062 1.679688 -0.144531 1.515625 -0.0625 C 1.359375 0.0078125 1.179688 0.046875 0.984375 0.046875 Z M 1.25 -0.203125 C 1.519531 -0.203125 1.75 -0.351562 1.9375 -0.65625 L 1.9375 -1.84375 C 1.90625 -1.789062 1.851562 -1.742188 1.78125 -1.703125 C 1.71875 -1.671875 1.617188 -1.625 1.484375 -1.5625 C 1.335938 -1.5 1.210938 -1.4375 1.109375 -1.375 C 1.015625 -1.320312 0.929688 -1.242188 0.859375 -1.140625 C 0.796875 -1.035156 0.765625 -0.90625 0.765625 -0.75 C 0.765625 -0.570312 0.804688 -0.4375 0.890625 -0.34375 C 0.984375 -0.25 1.101562 -0.203125 1.25 -0.203125 Z M 1.25 -0.203125 "/></g></g></g><g fill="#694e02" fill-opacity="1"><g transform="translate(58.685885, 6.750466)"><g><path d="M 2.9375 -0.65625 C 2.9375 -0.46875 2.96875 -0.332031 3.03125 -0.25 C 3.101562 -0.164062 3.222656 -0.125 3.390625 -0.125 L 3.390625 0 C 3.265625 -0.0078125 3.140625 -0.015625 3.015625 -0.015625 C 2.765625 -0.015625 2.554688 0.0078125 2.390625 0.0625 L 2.390625 -0.46875 C 2.316406 -0.289062 2.207031 -0.15625 2.0625 -0.0625 C 1.914062 0.03125 1.738281 0.078125 1.53125 0.078125 C 1.144531 0.078125 0.835938 -0.0546875 0.609375 -0.328125 C 0.390625 -0.609375 0.285156 -1.019531 0.296875 -1.5625 C 0.296875 -1.90625 0.351562 -2.203125 0.46875 -2.453125 C 0.59375 -2.703125 0.757812 -2.890625 0.96875 -3.015625 C 1.175781 -3.140625 1.40625 -3.203125 1.65625 -3.203125 C 1.8125 -3.203125 1.953125 -3.171875 2.078125 -3.109375 C 2.210938 -3.054688 2.316406 -2.96875 2.390625 -2.84375 L 2.390625 -4.03125 C 2.390625 -4.207031 2.351562 -4.335938 2.28125 -4.421875 C 2.21875 -4.515625 2.097656 -4.5625 1.921875 -4.5625 L 1.921875 -4.6875 C 2.054688 -4.675781 2.179688 -4.671875 2.296875 -4.671875 C 2.554688 -4.671875 2.769531 -4.695312 2.9375 -4.75 Z M 1.703125 -0.09375 C 1.859375 -0.09375 2 -0.148438 2.125 -0.265625 C 2.25 -0.390625 2.335938 -0.566406 2.390625 -0.796875 L 2.390625 -2.59375 C 2.273438 -2.90625 2.046875 -3.0625 1.703125 -3.0625 C 1.453125 -3.0625 1.25 -2.929688 1.09375 -2.671875 C 0.945312 -2.421875 0.875 -2.050781 0.875 -1.5625 C 0.875 -1.070312 0.941406 -0.703125 1.078125 -0.453125 C 1.222656 -0.210938 1.429688 -0.09375 1.703125 -0.09375 Z M 1.703125 -0.09375 "/></g></g></g><g fill="#694e02" fill-opacity="1"><g transform="translate(62.371271, 6.750466)"><g><path d="M 2.8125 -0.734375 C 2.738281 -0.503906 2.597656 -0.3125 2.390625 -0.15625 C 2.191406 0 1.953125 0.078125 1.671875 0.078125 C 1.390625 0.078125 1.140625 0.015625 0.921875 -0.109375 C 0.710938 -0.242188 0.550781 -0.425781 0.4375 -0.65625 C 0.332031 -0.894531 0.28125 -1.171875 0.28125 -1.484375 C 0.28125 -1.835938 0.335938 -2.140625 0.453125 -2.390625 C 0.566406 -2.648438 0.722656 -2.847656 0.921875 -2.984375 C 1.128906 -3.128906 1.375 -3.203125 1.65625 -3.203125 C 2.007812 -3.203125 2.285156 -3.09375 2.484375 -2.875 C 2.679688 -2.65625 2.78125 -2.320312 2.78125 -1.875 L 0.890625 -1.875 C 0.867188 -1.757812 0.859375 -1.628906 0.859375 -1.484375 C 0.859375 -1.210938 0.898438 -0.976562 0.984375 -0.78125 C 1.078125 -0.582031 1.195312 -0.429688 1.34375 -0.328125 C 1.488281 -0.222656 1.640625 -0.171875 1.796875 -0.171875 C 1.984375 -0.171875 2.148438 -0.21875 2.296875 -0.3125 C 2.453125 -0.40625 2.582031 -0.5625 2.6875 -0.78125 Z M 1.625 -3.09375 C 1.4375 -3.09375 1.269531 -3 1.125 -2.8125 C 0.988281 -2.625 0.90625 -2.347656 0.875 -1.984375 L 2.203125 -1.984375 C 2.210938 -2.304688 2.164062 -2.570312 2.0625 -2.78125 C 1.96875 -2.988281 1.820312 -3.09375 1.625 -3.09375 Z M 1.625 -3.09375 "/></g></g></g><g clip-path="url(#5b05da607c)"><g fill="#694e02" fill-opacity="1"><g transform="translate(65.602048, 6.750466)"><g><path d="M 1.265625 -3.203125 C 1.410156 -3.203125 1.535156 -3.179688 1.640625 -3.140625 C 1.753906 -3.097656 1.847656 -3.046875 1.921875 -2.984375 C 1.960938 -2.953125 2 -2.9375 2.03125 -2.9375 C 2.101562 -2.9375 2.148438 -3.023438 2.171875 -3.203125 L 2.296875 -3.203125 C 2.285156 -3.003906 2.28125 -2.660156 2.28125 -2.171875 L 2.140625 -2.171875 C 2.097656 -2.441406 2.007812 -2.660156 1.875 -2.828125 C 1.75 -3.003906 1.5625 -3.09375 1.3125 -3.09375 C 1.164062 -3.09375 1.046875 -3.050781 0.953125 -2.96875 C 0.859375 -2.882812 0.8125 -2.769531 0.8125 -2.625 C 0.8125 -2.476562 0.859375 -2.359375 0.953125 -2.265625 C 1.054688 -2.171875 1.21875 -2.054688 1.4375 -1.921875 C 1.46875 -1.898438 1.519531 -1.867188 1.59375 -1.828125 C 1.78125 -1.703125 1.929688 -1.59375 2.046875 -1.5 C 2.160156 -1.40625 2.25 -1.296875 2.3125 -1.171875 C 2.382812 -1.054688 2.421875 -0.921875 2.421875 -0.765625 C 2.421875 -0.492188 2.320312 -0.285156 2.125 -0.140625 C 1.925781 0.00390625 1.679688 0.078125 1.390625 0.078125 C 1.203125 0.078125 1.039062 0.0507812 0.90625 0 C 0.820312 -0.0390625 0.738281 -0.09375 0.65625 -0.15625 C 0.644531 -0.175781 0.628906 -0.1875 0.609375 -0.1875 C 0.578125 -0.1875 0.550781 -0.164062 0.53125 -0.125 C 0.507812 -0.0820312 0.492188 -0.0234375 0.484375 0.046875 L 0.34375 0.046875 C 0.351562 -0.179688 0.359375 -0.585938 0.359375 -1.171875 L 0.5 -1.171875 C 0.539062 -0.785156 0.617188 -0.5 0.734375 -0.3125 C 0.859375 -0.125 1.0625 -0.03125 1.34375 -0.03125 C 1.488281 -0.03125 1.613281 -0.078125 1.71875 -0.171875 C 1.832031 -0.265625 1.890625 -0.410156 1.890625 -0.609375 C 1.890625 -0.765625 1.832031 -0.894531 1.71875 -1 C 1.613281 -1.113281 1.441406 -1.25 1.203125 -1.40625 C 1.003906 -1.53125 0.847656 -1.632812 0.734375 -1.71875 C 0.628906 -1.800781 0.539062 -1.898438 0.46875 -2.015625 C 0.394531 -2.128906 0.359375 -2.265625 0.359375 -2.421875 C 0.359375 -2.679688 0.441406 -2.875 0.609375 -3 C 0.785156 -3.132812 1.003906 -3.203125 1.265625 -3.203125 Z M 1.265625 -3.203125 "/></g></g></g></g></g></g></svg>